<?xml version="1.0" encoding="utf-8"?>
<!-- Generator: Adobe Illustrator 16.0.0, SVG Export Plug-In . SVG Version: 6.00 Build 0)  -->
<!DOCTYPE svg PUBLIC "-//W3C//DTD SVG 1.1//EN" "http://www.w3.org/Graphics/SVG/1.1/DTD/svg11.dtd">
<svg version="1.1" id="Vrstva_1" xmlns="http://www.w3.org/2000/svg" xmlns:xlink="http://www.w3.org/1999/xlink" x="0px" y="0px"
	 width="708.755px" height="675.977px" viewBox="0 0 708.755 675.977" enable-background="new 0 0 708.755 675.977"
	 xml:space="preserve">
<path fill-rule="evenodd" clip-rule="evenodd" fill="#00778C" d="M681.111,441.489l-1.598,2.875l-0.754-0.262
	c-1.305,0.918-2.863,1.419-4.508,1.419c-0.873,0-9.162,4.447-11.268,6.54c-2.717,2.717-6.26,5.091-9.881,7.092
	c4.771,17.614,4.76,32.959,1.857,40.04c-9.514,23.26-23.838,46.026-41.414,65.827c-26.695,30.087-74.387,57.42-84.162,61.693
	c-9.09,3.973-13.123,5.423-13.293,5.48l-3.344,1.191c0,0-22.984-12.156-37.1-22.458c-5.963-4.354-13.598-11.439-20.537-18.266
	c0.238,2.942,0.443,5.816,0.578,8.538c0.924,18.174,0.344,32.031-1.668,40.062c-1.771,7.073-4.916,13.799-4.951,13.865l-1.293,2.811
	l-2.902,1.153c-1.717,0.688-42.809,16.886-91.843,16.886c-43.21,0-78.739-12.631-87.651-16.095l-1.065,0.158l-3.424-2.237
	c-3.438-2.703-6.847-7.841-8.187-27.005c-1.003-14.358-1.478-26.095,0.676-42.907c-0.429,0.49-0.903,1.033-1.188,1.369
	c-3.335,3.889-25.016,22.783-33.908,27.222c-6.206,3.101-23.371,14.802-23.371,14.802l-3.338-0.689
	c-0.626-0.12-15.609-3.321-42.948-19.848c-28.222-17.063-54.391-42.305-64.681-57.396c-9.627-14.104-13.737-22.751-14.39-24.166
	c-1.231-2.226-11.294-20.584-13.644-27.16c-2.27-6.342-3.798-18.277,1.814-39.109c0.386-1.44,0.938-2.946,1.443-4.432
	c-3.713-1.73-7.611-3.889-12.1-6.975c-3.157-2.168-16.959-8.574-16.959-8.574c-4.258-0.632-6.037-3.956-7.754-7.179
	c-2.417-4.534-9.306-24.628-15.045-43.885c-6.299-21.117-8.445-42.058-6.755-65.891c1.556-22.003,10.178-45.059,19.272-66.697
	c5.315-12.659,15.408-23.516,27.759-30.947c-1.17-2.378-11.467-11.113-11.467-11.113l-0.572-3.413
	c-0.034-0.208-0.837-5.157-0.069-13.325c0.752-8.059,13.015-40.764,33.356-67.55c18.175-23.924,39.08-36.925,52.909-45.527
	l3.424-2.137c15.269-9.64,26.57-15.202,36.409-13.786c12.536,1.788,20.618,18.071,21.182,32.787
	c0.506,13.073-9.193,27.057-25.949,37.405c-2.478,1.527-5.816,3.418-9.561,5.457c2.648,5.714,7.403,14.862,15.999,29.979
	c13.898,24.438,40.029,58.324,68.931,91.648c18.408,21.224,31.148,35.879,38.004,43.76c-17.582,17.847-29.389,41.325-32.588,67.478
	c-4.701-1.46-12.417-4.003-22.649-7.918c-17.403-6.666-48.918-25-62.813-34.881c-9.823-6.986-28.45-22.953-38.559-31.745
	c-8.635,13.026-19.206,28.041-21.232,30.908c-0.714,1.391-2.15,3.535-4.381,6.701c5.852,3.211,13.273,6.767,21.924,9.574
	c14.891,4.825,35.281,11.947,53.438,17.005c8.808-1.848,17.01-2.661,21.73-1.335c7.696,2.17,14.107,5.724,19.133,10.431
	c13.401,2.97,26.616,6.15,32.843,7.579c-0.178,2.649-0.401,5.284-0.401,7.979c0,22.045,6.233,42.586,16.862,60.171
	c-7.187,2.765-18.974,7.251-26.312,9.819c-1.629,0.568-4.153,1.304-7.236,2.111c-0.182,3.459-0.391,6.9-0.618,10.317l36.856-17.832
	c8.04,12.053,18.392,22.324,30.253,30.622c1.617-2.713,3.23-5.339,4.821-7.85c4.419-6.998,27.512-42.251,48.212-49.039
	c14.489-4.748,28.944-2.855,40.852,5.178c9.735,6.568,24.843,23.794,35.147,40.074c1.822,2.879,4.104,6.504,6.531,10.441
	c11.016-7.989,20.68-17.696,28.289-29.001c3.295,1.899,8.082,4.538,13.697,7.201c5.262,2.487,14.914,6.757,23.289,10.425
	c-0.049-2.895-0.088-5.936-0.111-9.11c-4.836-1.166-9.652-2.456-14.84-4.092c-6.527-2.061-14.744-5.392-20.082-7.638
	c11.254-17.936,17.857-39.071,17.857-61.799c0-2.896-0.227-5.736-0.432-8.574c1.193-0.281,2.385-0.562,3.768-0.866
	c7.943-1.765,19.268-4.497,34.324-8.376c6.855-6.054,14.725-9.292,23.617-9.461l0.723-0.006c2.508,0,5.4,0.316,8.453,0.779
	c5.33-1.447,10.885-2.963,16.824-4.602c26.482-7.311,46.443-15.593,57.781-20.561c-0.256-0.389-0.537-0.799-0.781-1.184
	c-6.082-9.421-13.527-21.861-19.742-32.552c-13.729,11.366-30.244,24.245-45.039,34.301c-27.799,18.886-46.143,26.104-62.266,31.654
	c-7.967,2.743-14.02,4.537-18.117,5.653c-3.146-26.617-15.186-50.506-33.168-68.537c7.658-9.537,22.383-27.743,37.391-45.425
	c21.68-25.547,42.244-49.442,60.721-76.1c11.814-17.053,20.488-32.914,25.221-42.158c-11.09-7.006-19.939-13.665-23.773-19.787
	c-7.176-11.468-10.818-18.131-8.664-32.632c2.01-13.585,14.701-29.059,24.242-29.564l0.719-0.018c6.881,0,18.145,5.008,23.625,8.169
	c6.654,3.837,29.191,20.298,39.879,31.931c15.748,17.128,27.447,33.889,35.764,51.237c10.094,21.046,15.652,37.125,16.691,43.72
	c0.475,3.072,0.717,6.303,0.832,8.48c0.004,0.007,0.004,0.011,0.004,0.019c0.004,0.114,0.012,0.229,0.016,0.339l0.092,1.473
	l-0.01,0.033l0.1,1.836l-0.949,0.106c-1.162,2.434-3.512,4.112-6.207,4.416c-0.289,0.035-0.59,0.051-0.883,0.051
	c-0.012,0-0.02-0.005-0.031-0.005c0.119,1.605,0.193,3.09,0.221,4.461c0.451,0.205,0.813,0.374,1.354,0.615
	c4.902,2.181,12.723,7.626,19.982,16.382c7.264,8.761,13.482,22.151,17.979,38.72c4.453,16.374,7.148,33.068,8.488,52.545
	c1.582,23.176-6.334,54.581-11.193,71.238C692.111,421.008,683.592,437.025,681.111,441.489z M132.146,146.259
	c0.88-0.457,1.756-0.916,2.636-1.369c0.286-0.151,0.571-0.305,0.86-0.455c0.807-0.422,1.606-0.841,2.397-1.259
	c0.401-0.214,0.787-0.422,1.185-0.628c0.691-0.371,1.39-0.743,2.062-1.105c0.637-0.339,1.247-0.67,1.86-1.002
	c0.394-0.214,0.795-0.432,1.181-0.64c3.289-1.801,6.184-3.448,8.356-4.791c14.32-8.844,22.634-20.221,22.24-30.438
	c-0.425-11.067-6.469-24.19-14.455-25.331c-0.652-0.091-1.319-0.139-2.007-0.139c-7.334,0-16.948,5.118-29.118,12.801l-3.442,2.156
	c-13.351,8.302-33.519,20.84-50.817,43.617c-16.628,21.891-27.698,48.356-30.867,59.406c-0.062,0.226-0.146,0.49-0.205,0.704
	c-0.124,0.453-0.208,0.821-0.297,1.21c-0.201,0.851-0.378,1.668-0.428,2.224c0,0.004,0,0.004,0,0.008
	c-0.147,1.573-0.22,2.995-0.263,4.273c-0.003,0.075-0.007,0.166-0.007,0.241c-0.035,1.236-0.023,2.319,0.004,3.24
	c0,0.034,0.003,0.075,0.003,0.11l0.718-0.027c0.011-0.06,0.031-0.15,0.042-0.21c0.186-1.138,0.44-2.428,0.788-3.882
	c0.016-0.06,0.023-0.11,0.039-0.169c0.359-1.497,0.826-3.064,1.401-4.673c0.077-0.221,0.173-0.426,0.255-0.644
	c0.494-1.304,1.077-2.563,1.741-3.799c0.197-0.366,0.386-0.724,0.598-1.078c0.845-1.406,1.779-2.741,2.91-3.836
	c7.114-6.882,20.233-13.996,32.464-20.215c0.791-0.403,1.532-0.783,2.301-1.169c9.332-4.747,14.377-7.31,17.103-8.633
	c1.351-0.677,2.165-1.083,2.165-1.083s13.038-6.393,25.972-13.088C131.729,146.477,131.934,146.367,132.146,146.259z
	 M107.617,300.248h-0.004c1.178-1.785,2.313-3.519,3.37-5.17c0.038-0.056,0.077-0.114,0.111-0.169
	c0.903-1.41,1.729-2.717,2.51-3.968c0.127-0.202,0.27-0.427,0.39-0.625c0.034-0.054,0.081-0.129,0.111-0.189
	c0.88-1.429,1.741-2.935,2.586-4.455c0.429-0.779,0.873-1.604,1.332-2.484c0.382-0.723,0.745-1.458,1.111-2.193
	c0.684-1.378,1.366-2.823,2.034-4.349c0.128-0.275,0.235-0.557,0.359-0.836c0.718-1.687,1.408-3.44,2.038-5.234
	c0.185-0.524,0.351-1.049,0.521-1.571c0.448-1.394,0.854-2.804,1.2-4.217c0.228-0.936,0.433-1.869,0.603-2.789
	c0.131-0.711,0.27-1.417,0.366-2.125c0.189-1.437,0.278-2.839,0.286-4.21c0.008-0.453,0.008-0.908-0.008-1.354
	c-0.065-1.502-0.239-2.947-0.563-4.325c-0.069-0.292-0.166-0.577-0.247-0.864c-0.417-1.45-0.941-2.845-1.71-4.107
	c-0.004-0.008-0.004-0.018-0.008-0.025c-0.026-0.042-0.069-0.086-0.097-0.129c-0.768-1.244-1.709-2.465-2.756-3.666
	c-0.447-0.509-0.984-1.003-1.482-1.504c-0.732-0.739-1.481-1.47-2.312-2.171c-0.594-0.503-1.243-0.987-1.884-1.473
	c-0.941-0.712-1.922-1.402-2.968-2.058c-0.591-0.38-1.204-0.747-1.829-1.107c-1.313-0.747-2.688-1.444-4.119-2.096
	c-0.475-0.218-0.938-0.444-1.424-0.647c-1.737-0.724-3.559-1.368-5.442-1.929c-0.309-0.09-0.598-0.201-0.911-0.287
	c-2.076-0.577-4.237-1.032-6.453-1.379c-0.224-0.034-0.433-0.09-0.652-0.121c-2.289-0.328-4.65-0.498-7.06-0.546
	c-0.209-0.004-0.397-0.034-0.609-0.038c-2.621-0.021-5.304,0.129-8.032,0.49c-0.073,0.011-0.144,0.031-0.221,0.039
	c-2.327,0.316-4.631,0.802-6.908,1.387c-1.089,0.279-2.158,0.64-3.228,0.983c-1.135,0.355-2.261,0.727-3.377,1.146
	c-1.42,0.54-2.825,1.128-4.199,1.768c-0.571,0.261-1.123,0.539-1.683,0.814c-1.625,0.813-3.239,1.658-4.79,2.595
	c-0.004-0.004-0.004-0.007-0.008-0.011c-10.916,6.566-19.824,16.129-24.51,27.273c-8.823,21.014-17.195,43.344-18.677,64.212
	c-1.613,22.867,0.437,42.918,6.45,63.099c6.423,21.543,12.749,39.236,14.455,42.439c0.482,0.908,1.49,2.793,1.953,3.101
	c-0.003,0-0.003-0.004-0.003-0.004c0.035,0.016,0.05,0.012,0.05,0.012v-0.004c-0.043-0.087-5.987-11.816,0-25.765
	c0.185-0.437,0.413-0.882,0.606-1.319c6.056-13.664,15.79-28.794,25.412-39.345c0.641-0.706,1.212-1.347,1.818-2.018
	c0.583-0.647,1.197-1.322,1.749-1.94c0.621-0.697,1.181-1.341,1.76-2.005c0.494-0.562,1.016-1.146,1.475-1.678
	c0.506-0.581,0.961-1.122,1.437-1.676c0.478-0.562,0.976-1.132,1.424-1.662c0.439-0.528,0.853-1.026,1.273-1.533
	c0.401-0.485,0.814-0.983,1.196-1.444c0.421-0.522,0.818-1.016,1.216-1.514c0.313-0.39,0.642-0.793,0.938-1.164
	c0.413-0.529,0.807-1.03,1.196-1.531c0.231-0.301,0.475-0.617,0.694-0.901c0.433-0.564,0.842-1.11,1.243-1.646
	c0.14-0.183,0.29-0.384,0.421-0.562c0.525-0.707,1.026-1.391,1.505-2.054c1.429-1.986,3-4.258,4.428-6.354c0,0,0.008,0,0.008,0.004
	c1.285-1.892,2.474-3.655,3.312-4.914l-0.043-0.075l1.409-1.99C87.349,329.838,98.716,313.724,107.617,300.248z M213.058,436.304
	c-0.023-1.916-0.047-3.831-0.124-5.648c-0.023-0.523-0.065-1.018-0.093-1.536c-0.108-2.024-0.228-4.024-0.397-5.929
	c-0.03-0.323-0.073-0.626-0.101-0.946c-0.2-2.039-0.421-4.028-0.69-5.924c-0.039-0.261-0.085-0.506-0.124-0.768
	c-0.281-1.892-0.59-3.735-0.941-5.492c-0.081-0.398-0.178-0.771-0.263-1.166c-0.332-1.555-0.676-3.092-1.058-4.538
	c-0.212-0.801-0.463-1.548-0.694-2.321c-0.29-0.973-0.567-1.972-0.88-2.891c-0.575-1.682-1.197-3.306-1.865-4.847
	c-0.895-2.062-2.057-3.953-3.369-5.735c-0.2-0.264-0.39-0.535-0.59-0.789c-1.352-1.71-2.884-3.293-4.62-4.712
	c-0.147-0.118-0.298-0.228-0.444-0.347c-1.803-1.422-3.786-2.693-5.963-3.792c-0.163-0.083-0.325-0.158-0.486-0.237
	c-2.293-1.12-4.76-2.08-7.431-2.831c-0.008-0.003-0.031-0.007-0.038-0.007c-0.672-0.186-1.567-0.261-2.471-0.328
	c-0.471-0.037-0.896-0.079-1.509-0.079c-0.213-0.004-0.467,0.019-0.688,0.019c-4.547,0.076-10.822,1.09-17.558,2.74
	c-0.146,0.037-0.294,0.072-0.444,0.108c-1.513,0.378-3.049,0.793-4.589,1.229c-0.502,0.141-1,0.287-1.501,0.438
	c-1.297,0.38-2.595,0.773-3.88,1.188c-0.884,0.289-1.752,0.59-2.624,0.893c-0.966,0.332-1.941,0.656-2.888,1.007
	c-1.71,0.633-3.377,1.288-4.982,1.963c-0.131,0.056-0.278,0.108-0.409,0.162c-0.911,0.388-1.914,0.896-2.876,1.345
	c-14.918,6.965-34.776,20.558-42.928,29.54c-0.482,0.532-1.038,1.219-1.556,1.829c-0.575,0.666-1.123,1.283-1.729,2.023
	c-8.078,9.997-18.958,26.937-23.807,41.535c-0.004,0-0.004,0-0.004,0c-0.39,1.168-0.841,2.355-1.146,3.493
	c-5.083,18.873-3.895,29.146-2,34.434c2.088,5.849,12.459,24.853,13.158,26.083l0.208,0.409c0.031,0.073,3.693,8.304,13.76,23.052
	c9.827,14.413,34.989,38.622,62.262,55.109c18.979,11.475,31.623,16.218,37.204,17.969l0.397-1.103
	c-0.042-0.035-0.077-0.085-0.115-0.12c-0.668-0.586-1.362-1.307-2.042-2.133c-0.158-0.191-0.297-0.382-0.448-0.586
	c-0.702-0.93-1.366-1.943-1.864-3.143c-0.019-0.035-0.022-0.086-0.038-0.12c-0.235-0.602-0.409-1.288-0.537-2.048
	c-0.034-0.208-0.05-0.447-0.077-0.668c-0.08-0.636-0.135-1.314-0.154-2.048c-0.003-0.308-0.003-0.624-0.003-0.944
	c0.003-0.663,0.03-1.373,0.073-2.109c0.026-0.479,0.054-0.965,0.1-1.47c0.043-0.489,0.097-1.015,0.158-1.531
	c0.482-4.535,1.409-9.869,2.451-15.67c0.004-0.019,0.004-0.031,0.008-0.046l0.016-0.094c0.293-1.646,0.594-3.32,0.892-5.024
	c0.023-0.139,0.065-0.316,0.093-0.455c0.247-1.385,0.556-2.896,0.906-4.489c0.151-0.69,0.313-1.404,0.483-2.133
	c0.277-1.203,0.582-2.457,0.899-3.745c0.185-0.745,0.354-1.454,0.552-2.226c0.467-1.832,0.973-3.74,1.497-5.692
	c0.282-1.034,0.567-2.087,0.861-3.151c0.354-1.292,0.722-2.596,1.088-3.914c0.274-0.976,0.545-1.937,0.826-2.928
	c0.617-2.179,1.243-4.378,1.876-6.58c0.344-1.203,0.69-2.406,1.042-3.609c0.135-0.482,0.274-0.964,0.413-1.442
	c0.613-2.113,1.212-4.224,1.821-6.333c0.444-1.547,0.893-3.098,1.324-4.632c0.688-2.415,1.351-4.786,1.999-7.127
	c0.178-0.652,0.379-1.331,0.552-1.975c0.78-2.854,1.475-5.917,2.097-9.097c0.108-0.536,0.2-1.108,0.301-1.654
	c0.521-2.801,1.008-5.672,1.432-8.642c0.058-0.396,0.112-0.792,0.162-1.188c0.46-3.301,0.865-6.67,1.22-10.099
	c0.008-0.075,0.016-0.15,0.023-0.226c0.379-3.683,0.706-7.416,0.988-11.155h0.004c0.309-4.069,0.587-8.181,0.814-12.342
	c0.262-4.767,0.471-9.376,0.66-13.874c0.104-2.5,0.208-5.001,0.301-7.488c0.031-0.841,0.027-1.636,0.05-2.465
	c0.055-1.975,0.108-3.961,0.108-5.845C213.1,437.844,213.065,437.089,213.058,436.304z M447.859,601.598
	c-0.299-5.865-0.881-12.392-1.633-19.087c-0.355-3.162-0.754-6.344-1.182-9.515c-0.047-0.313-0.086-0.625-0.127-0.94
	c-0.213-1.521-0.438-3.027-0.66-4.532c-0.123-0.791-0.244-1.577-0.363-2.363c-0.225-1.424-0.447-2.84-0.684-4.239
	c-0.182-1.076-0.371-2.137-0.559-3.201c-0.324-1.844-0.652-3.646-0.992-5.403c-0.24-1.254-0.486-2.496-0.734-3.711
	c-0.186-0.875-0.365-1.739-0.547-2.592c-0.363-1.674-0.727-3.301-1.1-4.859c-0.07-0.289-0.137-0.602-0.205-0.883
	c-0.023-0.089-0.063-0.197-0.086-0.285c-0.463-1.848-1.104-3.838-1.852-5.912c-0.24-0.664-0.521-1.354-0.785-2.037
	c-0.629-1.604-1.305-3.247-2.057-4.937c-0.328-0.744-0.656-1.481-1.004-2.237c-0.844-1.828-1.752-3.683-2.697-5.558
	c-0.301-0.59-0.574-1.172-0.883-1.77c-1.178-2.28-2.414-4.58-3.676-6.863c-0.771-1.398-1.563-2.783-2.354-4.165
	c-0.482-0.846-0.965-1.691-1.447-2.528c-1.02-1.749-2.039-3.49-3.059-5.189c-0.068-0.118-0.139-0.233-0.211-0.352
	c-1.15-1.921-2.293-3.799-3.404-5.611l0.004-0.006c-2.502-4.063-4.84-7.778-6.697-10.714c-9.834-15.537-23.985-31.775-32.944-37.818
	c-10.001-6.753-21.715-8.251-34.016-4.227c-13.17,4.321-31.601,26.102-44.024,45.774c-1.633,2.582-3.289,5.299-4.952,8.1
	c-2.034,3.432-4.064,7.058-6.063,10.817c-0.544,1.026-1.097,2.014-1.637,3.068c-0.587,1.153-1.166,2.374-1.744,3.559
	c-0.776,1.578-1.552,3.154-2.309,4.801c-0.525,1.127-1.03,2.299-1.54,3.46c-0.799,1.816-1.586,3.672-2.362,5.573
	c-0.471,1.148-0.931,2.321-1.386,3.502c-0.791,2.059-1.563,4.173-2.319,6.332c-0.401,1.153-0.811,2.307-1.2,3.49
	c-0.803,2.418-1.56,4.93-2.305,7.475c-0.301,1.038-0.621,2.037-0.911,3.098c-1.011,3.664-1.968,7.432-2.844,11.378
	c-0.074,0.347-0.14,0.655-0.213,0.998c-0.482,2.191-0.927,4.293-1.343,6.325c-0.225,1.1-0.437,2.168-0.646,3.225
	c-0.208,1.068-0.404,2.098-0.594,3.131c-4.628,24.865-4.223,38.43-2.987,56.082c1.115,15.921,3.578,20.117,4.948,21.197l0.629,0.408
	l0.209-0.034l0.979,0.394c6.67,2.657,42.121,15.924,85.737,15.924c47.505,0,87.222-15.643,88.933-16.329
	c0.143-0.305,2.934-6.372,4.449-12.442C447.689,634.28,448.971,623.598,447.859,601.598z M613.441,411.621
	c-0.664-0.609-1.297-1.258-1.973-1.854c-1.471-1.3-3.014-2.503-4.535-3.739c-0.988-0.794-1.945-1.646-2.949-2.411
	c-1.971-1.503-4.006-2.894-6.039-4.26c-0.557-0.375-1.104-0.809-1.664-1.174c-2.502-1.621-5.145-3.189-7.877-4.707
	c-1.619-0.9-3.324-1.741-5.008-2.604c-1.141-0.58-2.254-1.195-3.414-1.756c-1.857-0.897-3.76-1.723-5.652-2.561
	c-1.072-0.474-2.131-0.982-3.203-1.433c-1.621-0.68-3.23-1.276-4.852-1.908c-1.393-0.536-2.795-1.113-4.176-1.61
	c-1.229-0.443-2.42-0.803-3.637-1.209c-1.725-0.576-3.465-1.177-5.137-1.67c-0.961-0.286-1.861-0.494-2.803-0.75
	c-1.803-0.494-3.611-0.991-5.307-1.371c-1.012-0.23-1.922-0.358-2.891-0.542c-1.463-0.28-2.957-0.585-4.297-0.762
	c-1.203-0.154-2.25-0.186-3.35-0.253c-1.043-0.067-2.182-0.209-3.107-0.193h-0.051c-0.111,0.004-0.215,0.027-0.318,0.031
	c-1.58,0.049-3.096,0.218-4.561,0.502c-0.637,0.123-1.242,0.335-1.863,0.504c-0.914,0.246-1.826,0.482-2.689,0.814
	c-0.711,0.274-1.395,0.625-2.082,0.957c-0.729,0.347-1.459,0.689-2.152,1.101c-0.715,0.419-1.406,0.908-2.096,1.398
	c-0.627,0.439-1.256,0.874-1.85,1.359c-0.691,0.565-1.363,1.199-2.037,1.836c-0.545,0.521-1.098,1.031-1.617,1.587
	c-0.668,0.716-1.316,1.502-1.965,2.291c-0.479,0.58-0.965,1.149-1.422,1.763c-0.666,0.9-1.307,1.88-1.951,2.862
	c-0.383,0.589-0.787,1.152-1.15,1.762c-0.92,1.527-1.814,3.14-2.676,4.85c-0.047,0.095-0.1,0.178-0.146,0.269
	c-0.012,0.022-0.02,0.056-0.031,0.075c-0.344,0.707-0.672,1.556-0.984,2.495c-0.08,0.241-0.154,0.509-0.234,0.768
	c-0.252,0.841-0.502,1.745-0.734,2.736c-0.049,0.218-0.104,0.431-0.15,0.651c-1.74,7.844-2.809,19.818-3.365,33.092
	c-0.047,0.964-0.082,1.934-0.111,2.906c-0.031,0.837-0.059,1.68-0.086,2.52c-0.258,8.515-0.324,17.306-0.254,25.619
	c-0.004-0.004-0.004-0.004-0.008-0.004c0.031,3.678,0.088,7.283,0.178,10.778c0.004,0,0.012,0.004,0.016,0.007
	c0.123,5.041,0.285,9.771,0.49,13.895c0.004,0.099,0.014,0.186,0.021,0.285c0.221,4.353,0.656,8.483,1.186,12.535
	c0.146,1.114,0.313,2.212,0.479,3.309c0.518,3.395,1.111,6.73,1.799,10.024c0.139,0.679,0.258,1.365,0.41,2.044
	c0.867,3.988,1.84,7.944,2.891,11.944c0.254,0.964,0.521,1.944,0.783,2.915c0.98,3.63,1.98,7.267,3.037,11.059
	c0.055,0.185,0.115,0.404,0.166,0.593c0.572,2.041,1.143,4.135,1.732,6.261c0.572,2.066,1.125,4.061,1.715,6.267
	c0.938,3.486,1.879,7.132,2.814,10.922c0.158,0.633,0.316,1.185,0.475,1.829c0.479,1.971,0.914,3.795,1.318,5.55
	c0.039,0.142,0.066,0.27,0.098,0.404c0.34,1.47,0.66,2.869,0.953,4.188c0.092,0.417,0.182,0.813,0.266,1.215
	c0.225,0.999,0.43,1.964,0.621,2.881c0.102,0.475,0.197,0.938,0.291,1.389c0.162,0.783,0.309,1.52,0.447,2.244
	c0.088,0.46,0.186,0.935,0.266,1.37c0.125,0.64,0.229,1.226,0.332,1.816c0.182,1.029,0.348,1.997,0.49,2.896
	c0.039,0.266,0.094,0.556,0.133,0.813c0.076,0.532,0.146,1.019,0.211,1.508c0.035,0.271,0.078,0.553,0.111,0.811
	c0.059,0.467,0.113,0.898,0.156,1.327c0.025,0.227,0.049,0.458,0.072,0.678c0.047,0.409,0.082,0.814,0.111,1.192
	c0.016,0.186,0.027,0.358,0.039,0.535c0.031,0.383,0.059,0.761,0.078,1.107c0.004,0.077,0.004,0.143,0.008,0.221
	c0.057,1.269,0.057,2.344,0.029,3.313c0,0.038,0,0.084-0.004,0.123c-0.02,0.705-0.049,1.365-0.088,2.01
	c-0.055,0.902-0.088,1.777-0.096,2.738c0,0.077-0.004,0.146-0.004,0.224c0,0.374-0.078,0.702-0.109,1.058
	c-0.035,0.389-0.041,0.797-0.119,1.168c-0.111,0.566-0.281,1.075-0.463,1.577c-0.055,0.146-0.082,0.301-0.135,0.436
	c-0.197,0.481-0.43,0.914-0.664,1.331c-0.09,0.154-0.154,0.319-0.248,0.471c-0.201,0.327-0.416,0.602-0.633,0.891
	c-0.146,0.201-0.281,0.424-0.439,0.613l0.553,1.172c2.094-0.848,5.217-2.137,9.482-4.003c9.457-4.131,55.584-30.581,81.438-59.711
	c16.99-19.148,30.832-41.14,40.021-63.599c1.965-4.793,2.285-17.646-1.811-33.576c-0.814-3.173-1.736-6.406-2.91-9.748
	c-0.85-2.401-1.891-4.829-3.076-7.267c-4.652-9.503-11.9-19.367-20.592-28.342c-0.256-0.26-0.482-0.536-0.738-0.796
	C616.928,414.818,615.182,413.22,613.441,411.621z M660.098,202.55c-0.76-4.871-5.658-19.953-16.01-41.547
	c-7.979-16.64-19.252-32.772-34.463-49.324c-9.619-10.465-31.65-26.764-38.027-30.441c-5.84-3.369-15.369-7.12-19.703-7.12
	c-4.67,0.24-15.471,11.215-17.199,22.898c-1.744,11.72,0.582,16.171,7.553,27.325c3.119,4.989,11.637,11.208,21.924,17.682
	c2.305,1.448,4.682,2.906,7.125,4.368c0.637,0.383,1.266,0.761,1.906,1.146c2.914,1.722,5.871,3.448,8.824,5.145
	c2.527,1.454,5.049,2.893,7.529,4.31l2.467,1.409c3.182,1.821,6.266,3.584,9.152,5.265c18.859,11.026,42.568,26.33,51.928,34.486
	c0.623,0.538,1.178,1.043,1.66,1.512c1.063,1.031,1.938,2.042,2.668,3.025c0.088,0.116,0.139,0.233,0.223,0.347
	c0.584,0.818,1.115,1.624,1.518,2.391c0.008,0.038,0.012,0.077,0.02,0.117c0.066,0.129,0.174,0.261,0.238,0.392
	c0.359-0.071,0.719-0.115,1.082-0.139C660.402,204.729,660.268,203.624,660.098,202.55z M701.012,331.346
	c-1.297-18.952-3.914-35.165-8.225-51.029c-4.211-15.494-9.9-27.867-16.459-35.773c-6.402-7.721-13.223-12.488-17.121-14.222
	c-2.234-0.991-3.732-1.699-4.504-2.07l-0.453-0.213l0.008-0.02c-0.293-0.146-0.482-0.241-0.57-0.287l-0.02,0.02l-0.248-0.17
	c-0.014-0.008-0.037-0.025-0.057-0.037c-0.066-0.039-0.193-0.106-0.293-0.167c-0.178-0.102-0.445-0.236-0.742-0.381
	c-0.096-0.049-0.178-0.091-0.285-0.139c-0.93-0.426-2.336-0.964-4.234-1.462c-0.193-0.05-0.416-0.098-0.621-0.15
	c-0.807-0.192-1.707-0.374-2.68-0.54c-0.281-0.049-0.555-0.099-0.844-0.143c-1.244-0.189-2.59-0.348-4.096-0.454
	c-0.043-0.003-0.078-0.013-0.119-0.013c-1.482-0.103-3.143-0.134-4.891-0.122c-2.193,0.016-4.494,0.118-6.871,0.336
	c-0.1,0.012-0.174,0.007-0.277,0.015c-1.135,0.106-2.273,0.238-3.42,0.384c-12.348,1.62-26.076,5.897-34.125,13.491
	c-0.053,0.05-0.115,0.098-0.168,0.154c-0.6,0.569-1.143,1.173-1.672,1.78c-0.123,0.146-0.268,0.282-0.391,0.428
	c-0.443,0.54-0.838,1.113-1.23,1.686c-0.154,0.226-0.336,0.442-0.482,0.676c-0.328,0.518-0.594,1.07-0.873,1.612
	c-0.154,0.304-0.34,0.596-0.482,0.908c-0.234,0.521-0.4,1.074-0.586,1.616c-0.115,0.347-0.271,0.683-0.371,1.037
	c-0.459,1.651-0.744,3.298-0.957,4.937c-0.059,0.462-0.088,0.937-0.131,1.406c-0.1,1.189-0.158,2.366-0.15,3.535
	c0,0.545,0.012,1.096,0.037,1.646c0.047,1.051,0.152,2.086,0.271,3.116c0.076,0.645,0.143,1.285,0.25,1.937
	c0.133,0.817,0.309,1.605,0.479,2.4c0.186,0.864,0.359,1.726,0.596,2.605c0.131,0.49,0.289,0.96,0.432,1.446
	c0.34,1.149,0.695,2.307,1.123,3.486c0.119,0.332,0.248,0.648,0.371,0.976c0.482,1.276,1.004,2.569,1.586,3.878
	c0.154,0.353,0.313,0.7,0.467,1.043c0.668,1.461,1.387,2.938,2.174,4.443c0.037,0.078,0.084,0.173,0.127,0.248
	c0.432,0.829,1.004,1.877,1.637,3.034c0.092,0.173,0.182,0.332,0.277,0.513c0.582,1.059,1.246,2.252,1.953,3.515
	c0.24,0.419,0.482,0.853,0.727,1.296c0.771,1.362,1.578,2.783,2.453,4.32c0.063,0.106,0.129,0.226,0.193,0.335
	c1.02,1.778,2.09,3.64,3.215,5.577c-0.004,0-0.004,0.004-0.004,0.004c6.277,10.826,13.977,23.719,20.227,33.399
	c0.467,0.723,0.98,1.485,1.459,2.22l0.004-0.004c9.447,14.435,21.904,31.638,29.861,42.278c0.012,0.011,0.023,0.026,0.031,0.038
	c1.135,1.521,2.186,2.908,3.111,4.127c1.004,1.315,2.045,2.738,3.104,4.223c0.424,0.593,0.838,1.215,1.262,1.825
	c0.645,0.923,1.277,1.836,1.918,2.8c0.332,0.501,0.648,1.006,0.977,1.508c0.738,1.13,1.463,2.26,2.174,3.41
	c0.143,0.227,0.266,0.452,0.404,0.678c3.732,6.117,6.938,12.339,8.346,17.23c0.313,1.078,0.498,2.046,0.617,2.966
	c0.02,0.146,0.086,0.324,0.102,0.468c0.029,0.335,0.029,0.595,0.057,0.923c0.15,1.65,0.271,3.247,0.309,4.642
	c0.047,1.666,0.031,3.14-0.008,4.439c0.943,0.121,1.838,0.41,2.66,0.848c3.563-7.068,8.916-18.778,12.768-31.957
	C694.828,383.694,702.514,353.309,701.012,331.346z M485.105,192.108c-12.787,36.66-26.684,67.766-36.135,85.538
	c-5.945,11.188-13.213,22.807-17.779,29.89c-20.455-18.337-47.348-29.616-76.936-29.841c0.062-0.916,0.119-1.817,0.22-2.819
	c1.107-11.667,3.335-41.11,8.893-78.323c5.555-37.217,12.532-83.874,15.006-106.65c2.15-19.816,2.66-50.136,1.656-63.533
	c-0.518-0.501-1.064-1.014-1.574-1.508c-8.59-8.369-12.62-13.988-9.332-19.724l1.632-2.86l3.192-0.836
	c1.111-0.28,7.873-1.809,24.867-1.358c18.361,0.489,42.357,6.859,52.484,10.157c1.652,0.562,16,5.459,23.746,9.326
	c6.662,3.336,13.84,7.728,23.775,13.81L504.758,37c14.73,8.978,19.646,18.958,20.16,20.066l1.514,3.286
	c0,0-10.348,21.624-13.529,41.769C509.564,123.23,497.889,155.45,485.105,192.108z M514.459,56.739
	c0.219,0.195,0.436,0.369,0.633,0.557c0.096,0.091,0.211,0.182,0.305,0.269l0.49-0.276c-0.557-0.77-1.262-1.674-2.092-2.646
	c-0.205-0.237-0.475-0.509-0.695-0.754c-2.689-3.014-6.643-6.67-12.428-10.197l-5.943-3.633c-9.77-5.98-16.83-10.298-23.188-13.484
	c-7.406-3.696-22.1-8.685-22.717-8.893c-9.709-3.165-32.758-9.297-50.217-9.764c-16.057-0.422-22.229,0.999-22.676,1.109h-0.004
	c-0.037,0.175-0.023,0.764,0.889,2.189c0.076,0.119,0.178,0.26,0.27,0.395c0.193,0.28,0.406,0.581,0.668,0.923
	c0.146,0.189,0.332,0.415,0.498,0.625c0.285,0.351,0.57,0.703,0.926,1.113c0.268,0.308,0.605,0.67,0.918,1.016
	c0.359,0.393,0.688,0.766,1.113,1.211c0.609,0.636,1.336,1.359,2.088,2.102c0.227,0.229,0.396,0.411,0.641,0.648
	c1.336,1.298,2.717,2.63,4.13,3.969c0.395,0.376,0.826,0.769,1.232,1.153c0.996,0.932,1.998,1.865,3.013,2.796
	c0.893,0.806,1.818,1.627,2.749,2.445c0.561,0.494,1.119,0.991,1.683,1.481c1.363,1.168,2.756,2.329,4.167,3.467
	c0.174,0.143,0.348,0.287,0.521,0.43c1.637,1.304,3.29,2.566,4.944,3.756c0.004,0,0.008,0.004,0.012,0.008
	c1.679,1.199,3.359,2.326,5.021,3.34c0.012,0.008,0.031,0.021,0.047,0.029c1.555,0.947,3.084,1.773,4.59,2.492
	c0.123,0.063,0.254,0.146,0.381,0.203c1.6,0.746,3.15,1.35,4.637,1.761c0.27,0.075,0.545,0.11,0.814,0.185
	c2.791,0.742,5.6,1.382,8.457,1.876c0.502,0.087,1.033,0.127,1.539,0.205c2.637,0.42,5.287,0.794,8.006,1.059
	c1.693,0.166,3.492,0.26,5.248,0.384c1.541,0.106,3.047,0.249,4.613,0.328c3.416,0.174,6.955,0.297,10.68,0.403
	c4.496,0.133,9.826,0.309,15.266,0.501c12.764,0.45,26.246,1.026,30.986,1.5c1.053,0.106,2.037,0.388,2.975,0.743
	c0.332,0.131,0.629,0.289,0.947,0.439c0.57,0.272,1.127,0.548,1.639,0.875c0.324,0.207,0.615,0.407,0.916,0.625
	C513.621,56.044,514.053,56.384,514.459,56.739z M249.413,261.542c-10.561-23.33-27.794-72.769-40.021-110.069
	c-12.231-37.299-17.566-64.346-20.896-82.676c-0.808-4.42-7.508-13.578-7.508-13.578l0.741-3.263
	c0.668-2.955,3.914-9.343,18.145-18.976c14.675-9.933,31.573-15.502,49.046-20.79c17.631-5.332,35.714-6.493,36.471-6.542
	l22.274-0.015c14.436,0,25.548,1.379,25.652,1.394l3.57,0.426l1.995,3.01c0.733,1.109,2.309,4.175,1.012,8.717
	c-1.158,4.043-4.181,5.642-5.47,6.327c-0.563,0.295-1.042,0.543-1.856,1.248c-0.591,0.501-1.293,1.101-2.088,1.778
	c-0.98,3.784-2.084,8.051-2.683,12.486c-1.671,12.221,0.552,33.101,2.775,59.438c2.223,26.334,5.002,43.432,10.004,77.763
	c5.006,34.327,8.341,58.88,10.008,79.433c0.699,8.645,1.294,15.209,1.757,20.044c-29.435,0.256-56.198,11.444-76.593,29.643
	C268.603,296.563,256.738,277.729,249.413,261.542z M276.995,48.517c1.532-0.087,3.021-0.193,4.45-0.332
	c0.582-0.058,1.131-0.148,1.698-0.216c1.026-0.126,2.057-0.248,3.029-0.41c0.984-0.166,1.923-0.388,2.864-0.6
	c0.517-0.12,1.065-0.214,1.57-0.349c1.182-0.311,2.32-0.69,3.443-1.098c0.251-0.09,0.525-0.162,0.772-0.256
	c1.143-0.443,2.242-0.972,3.326-1.533c0.221-0.113,0.46-0.197,0.68-0.32c1.139-0.619,2.228-1.338,3.305-2.107
	c0.139-0.101,0.285-0.17,0.42-0.274c1.154-0.856,2.362-1.768,3.586-2.717c0.178-0.137,0.359-0.283,0.537-0.422
	c1.026-0.793,2.061-1.602,3.095-2.428c0.49-0.392,0.98-0.787,1.471-1.178c0.726-0.581,1.443-1.157,2.154-1.734
	c0.637-0.517,1.258-1.026,1.883-1.535c0.548-0.452,1.101-0.901,1.637-1.341c0.634-0.524,1.243-1.03,1.853-1.535
	c0.51-0.422,1.031-0.858,1.514-1.261c0.57-0.476,1.107-0.924,1.64-1.373c0.44-0.368,0.888-0.746,1.293-1.087
	c0.525-0.442,1.004-0.85,1.475-1.248c0.344-0.292,0.726-0.615,1.023-0.868c0.39-0.331,0.718-0.613,1.054-0.9
	c0.228-0.195,0.524-0.448,0.694-0.592c0.077-0.063,0.123-0.087,0.2-0.15c0.61-0.505,1.166-0.924,1.656-1.239
	c1.698-1.111,2.563-1.221,2.945-2.236c0.004,0,0,0,0.004,0.004c0.02-0.064,0.065-0.088,0.085-0.154
	c0.413-1.443,0.05-2.129-0.004-2.22c-0.417-0.052-11.147-1.331-24.684-1.331l-22.027,0.008c-0.486,0.035-17.686,1.14-34.448,6.211
	c-16.867,5.103-33.151,10.458-46.915,19.774c-0.807,0.546-1.405,1.016-2.127,1.529c-6.183,4.416-9.375,7.694-11.023,9.821
	l0.34,0.139c0.046-0.05,0.107-0.106,0.158-0.158c0.352-0.378,0.729-0.75,1.154-1.134c0.146-0.134,0.281-0.257,0.436-0.382
	c0.413-0.347,0.854-0.663,1.313-0.975c0.201-0.132,0.386-0.261,0.591-0.384c0.467-0.275,0.965-0.49,1.478-0.69
	c0.225-0.091,0.44-0.207,0.676-0.275c0.688-0.214,1.413-0.338,2.166-0.357c0.062,0,0.111-0.026,0.17-0.026
	c2.254,0,8.992,0.294,17.55,0.667c1.505,0.067,3.057,0.134,4.658,0.2c0.348,0.018,0.676,0.033,1.027,0.044
	c0.451,0.019,0.923,0.039,1.382,0.06c1.69,0.071,3.412,0.145,5.164,0.216c0.189,0.008,0.378,0.018,0.571,0.025
	c1.938,0.079,3.902,0.162,5.866,0.236c0.108,0.004,0.217,0.009,0.324,0.017c6.265,0.245,12.514,0.465,18.018,0.604
	c0.154,0.004,0.31,0.008,0.464,0.012c1.756,0.044,3.438,0.079,5.014,0.102c0.03,0,0.065,0,0.096,0
	c1.648,0.029,3.185,0.041,4.57,0.041c0.799,0,1.544-0.012,2.316-0.012c1.301-0.007,2.624-0.011,3.855-0.033
	c0.289-0.003,0.556-0.019,0.845-0.023c1.707-0.039,3.37-0.087,4.956-0.166C276.524,48.553,276.751,48.53,276.995,48.517z"/>
</svg>
