<?xml version="1.0" encoding="utf-8"?>
<!-- Generator: Adobe Illustrator 16.0.0, SVG Export Plug-In . SVG Version: 6.00 Build 0)  -->
<!DOCTYPE svg PUBLIC "-//W3C//DTD SVG 1.1//EN" "http://www.w3.org/Graphics/SVG/1.1/DTD/svg11.dtd">
<svg version="1.1" id="Vrstva_1" xmlns="http://www.w3.org/2000/svg" xmlns:xlink="http://www.w3.org/1999/xlink" x="0px" y="0px"
	 width="96.378px" height="79.37px" viewBox="0 0 96.378 79.37" enable-background="new 0 0 96.378 79.37" xml:space="preserve">
<path fill="#FFFFFF" d="M2.144,63.193l22.214,11.674c0.97,0.643,2.265,0.643,3.235,0l20.596-10.71l20.596,10.71
	c0.971,0.643,2.266,0.643,3.235,0l22.214-11.674c0.971-0.535,1.51-1.606,1.51-2.784V7.287c0-1.178-0.647-2.249-1.617-2.784
	c-0.971-0.536-2.157-0.536-3.128,0l-20.596,10.71L49.807,4.502c-0.971-0.643-2.265-0.643-3.235,0l-20.596,10.71L5.379,4.502
	C4.84,4.181,4.301,4.074,3.762,4.074s-1.079,0.107-1.51,0.429C1.281,5.038,0.634,6.109,0.634,7.287v53.122
	C0.634,61.586,1.174,62.658,2.144,63.193z M73.53,20.782l15.96-7.818v45.624l-15.96,7.818V20.782z M51.316,12.963l15.959,7.818
	v45.624l-15.959-7.818V12.963L51.316,12.963z M29.103,20.782l15.959-7.818v45.624l-15.959,7.818V20.782z M6.889,12.963l15.959,7.818
	v45.624L6.889,58.587V12.963z"/>
</svg>
