<?xml version="1.0" encoding="utf-8"?>
<!-- Generator: Adobe Illustrator 16.0.0, SVG Export Plug-In . SVG Version: 6.00 Build 0)  -->
<!DOCTYPE svg PUBLIC "-//W3C//DTD SVG 1.1//EN" "http://www.w3.org/Graphics/SVG/1.1/DTD/svg11.dtd">
<svg version="1.1" id="Vrstva_1" xmlns="http://www.w3.org/2000/svg" xmlns:xlink="http://www.w3.org/1999/xlink" x="0px" y="0px"
	 width="96.378px" height="79.37px" viewBox="0 0 96.378 79.37" enable-background="new 0 0 96.378 79.37" xml:space="preserve">
<g>
	<g>
		<path fill="#FFFFFF" d="M86.75,14.28H65.392v-0.189c0-3.125-2.517-5.658-5.622-5.658h-3.998C55.655,5.412,53.186,3,50.157,3
			h-3.936c-3.03,0-5.499,2.412-5.617,5.433h-3.998c-3.105,0-5.622,2.533-5.622,5.658v0.189H9.628c-4.96,0-8.996,4.062-8.996,9.054
			v43.527c0,4.992,4.035,9.054,8.996,9.054H86.75c4.96,0,8.996-4.062,8.996-9.054V23.334C95.746,18.341,91.709,14.28,86.75,14.28z
			 M48.189,8.504c1.894,0,3.429,1.545,3.429,3.451c0,1.907-1.535,3.452-3.429,3.452s-3.43-1.545-3.43-3.452
			C44.759,10.049,46.295,8.504,48.189,8.504z M88.998,66.861c0,1.248-1.008,2.264-2.248,2.264H9.628
			c-1.24,0-2.249-1.016-2.249-2.264V23.334c0-1.249,1.009-2.264,2.249-2.264h21.481v0.015c0,3.125,2.517,5.659,5.622,5.659h22.915
			c3.105,0,5.623-2.533,5.623-5.659V21.07h21.48c1.24,0,2.249,1.015,2.249,2.264L88.998,66.861z M80.056,33.271h-31.05
			c-1.242,0-2.249,1.014-2.249,2.264s1.007,2.263,2.249,2.263h31.05c1.24,0,2.248-1.013,2.248-2.263S81.298,33.271,80.056,33.271z
			 M80.056,44.588h-31.05c-1.242,0-2.249,1.014-2.249,2.264s1.007,2.264,2.249,2.264h31.05c1.24,0,2.248-1.014,2.248-2.264
			S81.298,44.588,80.056,44.588z M80.056,55.906h-31.05c-1.242,0-2.249,1.013-2.249,2.264c0,1.25,1.007,2.264,2.249,2.264h31.05
			c1.24,0,2.248-1.014,2.248-2.264C82.304,56.919,81.298,55.906,80.056,55.906z M35.456,51.421l-3.944-1.828l-1.895-1.608
			l-2.937,2.94l1.352,9.093c0.005,0.033-0.003,0.068-0.023,0.095l-1.51,2.08c-0.024,0.033-0.062,0.053-0.103,0.053
			s-0.079-0.02-0.103-0.053l-1.51-2.08c-0.02-0.027-0.028-0.062-0.023-0.095l1.352-9.093l-2.936-2.939l-1.895,1.608l-3.944,1.828
			c-0.583,0.241-1.272,0.729-1.448,1.244c0,0-4.287,10.272-1.962,10.272h24.94c2.325,0-1.961-10.272-1.961-10.272
			C36.65,52.054,36.039,51.662,35.456,51.421z M26.396,47.927c4.034,0,7.043-3.783,7.112-10.125
			c0.044-4.401-2.039-7.036-7.112-7.036s-7.157,2.635-7.112,7.036C19.352,44.145,22.362,47.927,26.396,47.927z"/>
	</g>
</g>
</svg>
