<?xml version="1.0" encoding="utf-8"?>
<!-- Generator: Adobe Illustrator 16.0.0, SVG Export Plug-In . SVG Version: 6.00 Build 0)  -->
<!DOCTYPE svg PUBLIC "-//W3C//DTD SVG 1.1//EN" "http://www.w3.org/Graphics/SVG/1.1/DTD/svg11.dtd">
<svg version="1.1" id="Vrstva_1" xmlns="http://www.w3.org/2000/svg" xmlns:xlink="http://www.w3.org/1999/xlink" x="0px" y="0px"
	 width="96.378px" height="79.37px" viewBox="0 0 96.378 79.37" enable-background="new 0 0 96.378 79.37" xml:space="preserve">
<path fill="#FFFFFF" d="M88.48,0.69H70.285c-9.551,0-17.588,2.809-22.096,7.209C43.682,3.499,35.645,0.69,26.094,0.69H7.897
	c-2.864,0-5.198,2.352-5.198,5.246v60.321c0,2.895,2.334,5.246,5.198,5.246h18.196c6.934,0,14.461,3.005,17.162,5.847
	c1.225,1.291,2.917,2.02,4.688,2.02h0.519c1.757,0,3.44-0.725,4.651-2.012c2.69-2.846,10.226-5.854,17.171-5.854H88.48
	c2.867,0,5.199-2.352,5.199-5.246V5.936C93.68,3.042,91.347,0.69,88.48,0.69z M44.29,67.936c-4.619-2.688-10.972-4.302-18.197-4.302
	H10.497V8.559h15.597c11.107,0,18.197,4.66,18.197,7.868L44.29,67.936L44.29,67.936z M85.881,63.634H70.285
	c-7.225,0-13.577,1.614-18.196,4.302v-51.51c0-3.208,7.088-7.868,18.196-7.868h15.597V63.634L85.881,63.634z"/>
</svg>
