<?xml version="1.0" encoding="utf-8"?>
<!-- Generator: Adobe Illustrator 16.0.0, SVG Export Plug-In . SVG Version: 6.00 Build 0)  -->
<!DOCTYPE svg PUBLIC "-//W3C//DTD SVG 1.1//EN" "http://www.w3.org/Graphics/SVG/1.1/DTD/svg11.dtd">
<svg version="1.1" id="Vrstva_1" xmlns="http://www.w3.org/2000/svg" xmlns:xlink="http://www.w3.org/1999/xlink" x="0px" y="0px"
	 width="96.378px" height="79.37px" viewBox="0 0 96.378 79.37" enable-background="new 0 0 96.378 79.37" xml:space="preserve">
<path fill="#FFFFFF" d="M82.025,26.397L67.851,40.036l-2.907-3.075L75.67,26.638c1.037-0.999,1.065-2.645,0.064-3.681l-9.574-9.91
	c-0.487-0.499-1.138-0.784-1.835-0.795c-0.688-0.015-1.357,0.249-1.856,0.728l-8.453,8.132l7.339,7.586
	c0.6,0.626,0.553,1.66-0.076,2.269c-0.442,0.422-1.087,0.553-1.636,0.375L48.995,20.077l13.932-13.42
	c0.846-0.805,2.202-0.759,3.015,0.081l16.105,16.661C82.858,24.236,82.858,25.588,82.025,26.397z M33.907,66.832
	c-0.493,0.479-1.164,0.742-1.853,0.726c-0.694-0.012-1.353-0.297-1.835-0.79l-9.577-9.913c-0.999-1.037-0.972-2.668,0.066-3.675
	l4.403,4.565c0.607,0.627,1.604,0.644,2.232,0.047c0.629-0.6,0.641-1.592,0.033-2.221l-4.397-4.574l1.173-1.13l4.403,4.568
	c0.602,0.623,1.598,0.644,2.231,0.044c0.626-0.608,0.641-1.596,0.033-2.228l-4.401-4.561l1.174-1.132l4.4,4.563
	c0.606,0.624,1.607,0.645,2.231,0.045c0.633-0.602,0.644-1.592,0.04-2.224l-4.404-4.563l1.171-1.13l4.405,4.559
	c0.604,0.629,1.6,0.649,2.231,0.045c0.232-0.227,0.385-0.509,0.447-0.799l-8.154-8.639L14.354,53.42
	c-0.834,0.81-0.834,2.166-0.027,3.001L30.432,73.09c0.809,0.839,2.17,0.886,3.006,0.071l15.37-14.786L45.902,55.3L33.907,66.832z
	 M62.048,25.87c-2.03-2.094-1.971-5.45,0.137-7.471c2.094-2.024,5.454-1.964,7.478,0.133c2.033,2.099,1.961,5.454-0.134,7.47
	C67.438,28.027,64.078,27.967,62.048,25.87z M64.321,23.682c0.817,0.838,2.167,0.862,3.021,0.05
	c0.841-0.814,0.863-2.165,0.047-3.006c-0.815-0.842-2.169-0.871-3.013-0.057C63.531,21.483,63.506,22.833,64.321,23.682z
	 M72.876,50.746L59.016,63.779L28.125,31.07l13.864-13.033L72.876,50.746z M44.315,27.157c0.006-0.313-0.107-0.621-0.33-0.852
	l-1.509-1.592c-0.448-0.476-1.203-0.5-1.683-0.05l-0.817,0.767c-0.481,0.448-0.5,1.206-0.052,1.68l1.5,1.604
	c0.225,0.23,0.52,0.369,0.839,0.371c0.315,0.014,1.673-1.091,1.673-1.091C44.167,27.773,44.301,27.475,44.315,27.157z
	 M65.772,51.116c0.485-0.451,0.501-1.206,0.048-1.685L48.465,31.06c-0.217-0.235-0.512-0.369-0.834-0.375
	c-0.311-0.01-0.623,0.108-0.851,0.321l-0.82,0.772c-0.481,0.45-0.502,1.201-0.049,1.68l17.352,18.375
	c0.226,0.231,0.516,0.369,0.841,0.377c0.315,0.011,0.625-0.108,0.855-0.324L65.772,51.116z M26.721,29.58l13.861-13.039l-3.58-3.789
	L23.144,25.792L26.721,29.58z M16.965,19.242c-0.754-0.799-1.154-1.852-1.124-2.945c0.035-1.091,0.498-2.121,1.297-2.87l7.855-7.385
	c1.653-1.568,4.263-1.487,5.827,0.167l4.869,5.155L21.828,24.396L16.965,19.242z M19.438,16.405l2.544,2.7l8.402-7.9L27.833,8.51
	L19.438,16.405z M79.906,69.363c0.239,0.75,0.022,1.568-0.548,2.106c-0.574,0.54-1.405,0.699-2.137,0.421l-16.451-6.265
	l13.843-13.038L79.906,69.363z M75.509,63.734l-2.081-6.596l-8.048,7.576l6.476,2.466L75.509,63.734z"/>
</svg>
