<?xml version="1.0" encoding="utf-8"?>
<!-- Generator: Adobe Illustrator 16.0.0, SVG Export Plug-In . SVG Version: 6.00 Build 0)  -->
<!DOCTYPE svg PUBLIC "-//W3C//DTD SVG 1.1//EN" "http://www.w3.org/Graphics/SVG/1.1/DTD/svg11.dtd">
<svg version="1.1" id="Vrstva_1" xmlns="http://www.w3.org/2000/svg" xmlns:xlink="http://www.w3.org/1999/xlink" x="0px" y="0px"
	 width="96.378px" height="79.37px" viewBox="0 0 96.378 79.37" enable-background="new 0 0 96.378 79.37" xml:space="preserve">
<path fill="#FFFFFF" d="M81.218,26.49l9.049-10.798c0.604-0.698,0.754-1.583,0.553-2.42c-0.252-0.837-0.904-1.536-1.76-1.862
	L59.805,0.239c-1.257-0.466-2.714-0.14-3.519,0.884l-8.394,9.96L39.497,1.076c-0.854-1.024-2.312-1.349-3.569-0.837L6.673,11.875
	c-0.855,0.327-1.508,1.071-1.76,1.909c-0.251,0.838,0,1.769,0.604,2.421l9.048,10.286L4.914,38.731
	c-0.553,0.699-0.704,1.629-0.452,2.467c0.251,0.838,0.955,1.489,1.86,1.815l8.797,3.025v19.688c0,1.163,0.754,2.188,1.91,2.607
	l29.909,10.893c0.352,0.138,0.754,0.187,1.105,0.187c0.352,0,0.754-0.047,1.106-0.187l29.909-10.893
	c1.155-0.419,1.91-1.444,1.91-2.607V45.946l8.595-2.933c0.905-0.326,1.559-0.977,1.86-1.815c0.301-0.838,0.1-1.769-0.453-2.467
	L81.218,26.49z M59.604,6.197l23.474,8.937l-6.936,8.239l-23.827-8.518L59.604,6.197z M47.992,34.17l-21.765-7.215l21.011-7.912
	l22.318,7.959L47.992,34.17z M36.129,6.243l6.987,8.332l-23.525,8.844l-6.887-7.821L36.129,6.243z M18.888,30.447l24.229,8.052
	l-7.088,8.75l-23.927-8.191L18.888,30.447z M74.884,63.819l-26.892,9.822L21.1,63.819V48.087l14.979,5.121
	c0.352,0.092,0.704,0.186,1.056,0.186c0.905,0,1.81-0.418,2.413-1.117l8.345-10.333l8.344,10.333
	c0.603,0.698,1.508,1.117,2.413,1.117c0.352,0,0.704-0.046,1.056-0.186l15.18-5.167V63.819z M59.705,47.249l-7.037-8.657
	l24.229-8.098l6.735,8.564L59.705,47.249z"/>
</svg>
