<?xml version="1.0" encoding="utf-8"?>
<!-- Generator: Adobe Illustrator 16.0.0, SVG Export Plug-In . SVG Version: 6.00 Build 0)  -->
<!DOCTYPE svg PUBLIC "-//W3C//DTD SVG 1.1//EN" "http://www.w3.org/Graphics/SVG/1.1/DTD/svg11.dtd">
<svg version="1.1" id="Vrstva_1" xmlns="http://www.w3.org/2000/svg" xmlns:xlink="http://www.w3.org/1999/xlink" x="0px" y="0px"
	 width="96.378px" height="79.37px" viewBox="0 0 96.378 79.37" enable-background="new 0 0 96.378 79.37" xml:space="preserve">
<g>
	<g>
		<path fill="#FFFFFF" d="M83.039,65.923L54.208,37.128L20.525,3.485h-2.632L17.355,4.85c-1.419,3.601-2.024,7.284-1.752,10.649
			c0.31,3.836,1.77,7.159,4.221,9.607l26.295,26.262l3.468-3.463l24.31,27.148c2.419,2.417,6.581,2.561,9.143,0
			C85.559,72.537,85.559,68.441,83.039,65.923z M13.339,65.855c-2.521,2.516-2.521,6.614,0,9.13c2.394,2.391,6.536,2.604,9.142,0
			l20.594-20.569l-9.143-9.131L13.339,65.855z M62.668,37.106c2.631-0.157,5.104-1.269,6.969-3.131l15.237-15.219l-3.047-3.043
			L70.146,27.381l-3.047-3.044L78.78,12.668l-3.048-3.044L64.051,21.292l-3.047-3.043L72.685,6.581l-3.048-3.044L54.4,18.756
			c-1.864,1.861-2.977,4.333-3.135,6.961c-0.04,0.666-0.191,1.32-0.441,1.942l9.898,9.887
			C61.346,37.296,62.002,37.146,62.668,37.106z"/>
	</g>
</g>
</svg>
