<?xml version="1.0" encoding="utf-8"?>
<!-- Generator: Adobe Illustrator 16.0.0, SVG Export Plug-In . SVG Version: 6.00 Build 0)  -->
<!DOCTYPE svg PUBLIC "-//W3C//DTD SVG 1.1//EN" "http://www.w3.org/Graphics/SVG/1.1/DTD/svg11.dtd">
<svg version="1.1" id="Vrstva_1" xmlns="http://www.w3.org/2000/svg" xmlns:xlink="http://www.w3.org/1999/xlink" x="0px" y="0px"
	 width="96.378px" height="79.37px" viewBox="0 0 96.378 79.37" enable-background="new 0 0 96.378 79.37" xml:space="preserve">
<path fill="#FFFFFF" d="M89.926,13.068c0-6.826-5.554-12.38-12.38-12.38H24.308c-6.826,0-12.381,5.554-12.381,12.38
	c0,3.341,1.338,6.506,3.701,8.823c-2.363,2.317-3.701,5.481-3.701,8.823c0,5.573,3.796,10.487,9.119,11.939v15.681h-5.563
	c-1.961,0-3.557,1.595-3.557,3.556v4.411c0,6.826,5.555,12.378,12.381,12.378h26.766c6.826,0,12.38-5.553,12.38-12.378V43.094
	h14.093c6.826,0,12.38-5.553,12.38-12.379c0-3.341-1.338-6.506-3.701-8.823C88.588,19.574,89.926,16.409,89.926,13.068z
	 M77.546,35.981c-2.905,0-5.269-2.362-5.269-5.267s2.363-5.268,5.269-5.268s5.27,2.363,5.27,5.268S80.452,35.981,77.546,35.981z
	 M77.546,18.335c-2.905,0-5.269-2.362-5.269-5.267s2.363-5.268,5.269-5.268s5.27,2.363,5.27,5.268S80.452,18.335,77.546,18.335z
	 M65.167,30.715c0,1.834,0.403,3.63,1.176,5.267h-2.889v-5.267c0-1.912,1.012-3.604,2.569-4.528
	C65.458,27.619,65.167,29.153,65.167,30.715z M24.308,7.801h42.034c-0.772,1.638-1.176,3.433-1.176,5.268s0.403,3.63,1.176,5.267
	H24.308c-2.905,0-5.268-2.362-5.268-5.267S21.403,7.801,24.308,7.801z M19.041,30.715c0-2.064,1.186-3.869,2.944-4.731
	c-0.617,1.49-0.938,3.095-0.938,4.731v4.124C19.811,33.848,19.041,32.318,19.041,30.715z M39.872,71.571H24.308
	c-2.905,0-5.268-2.363-5.268-5.269v-0.856h19.654v0.856C38.695,68.135,39.098,69.932,39.872,71.571z M56.342,30.715v35.587
	c0,2.906-2.363,5.269-5.269,5.269c-2.904,0-5.268-2.363-5.268-5.269v-4.411c0-1.961-1.596-3.556-3.556-3.556H28.159v-27.62
	c0-2.904,2.362-5.268,5.268-5.268h24.092C56.746,27.084,56.342,28.88,56.342,30.715z"/>
</svg>
