<?xml version="1.0" encoding="utf-8"?>
<!-- Generator: Adobe Illustrator 16.0.0, SVG Export Plug-In . SVG Version: 6.00 Build 0)  -->
<!DOCTYPE svg PUBLIC "-//W3C//DTD SVG 1.1//EN" "http://www.w3.org/Graphics/SVG/1.1/DTD/svg11.dtd">
<svg version="1.1" id="Vrstva_1" xmlns="http://www.w3.org/2000/svg" xmlns:xlink="http://www.w3.org/1999/xlink" x="0px" y="0px"
	 width="96.378px" height="79.37px" viewBox="0 0 96.378 79.37" enable-background="new 0 0 96.378 79.37" xml:space="preserve">
<path fill="#FFFFFF" d="M75.792,11.895C68.347,4.451,58.446,0.351,47.917,0.351s-20.429,4.1-27.875,11.544
	C12.596,19.34,8.496,29.238,8.496,39.768c0,10.528,4.1,20.428,11.546,27.874c7.447,7.442,17.346,11.544,27.875,11.544
	c10.529,0,20.429-4.102,27.875-11.544c7.446-7.446,11.546-17.345,11.546-27.874C87.337,29.238,83.238,19.34,75.792,11.895z
	 M68.737,31h10.932c0.788,2.85,1.187,5.795,1.187,8.768c0,2.973-0.398,5.918-1.187,8.767H68.737c0.339-2.86,0.511-5.805,0.511-8.767
	C69.248,36.806,69.076,33.861,68.737,31z M51.158,48.535V31h11.05c0.37,2.844,0.558,5.79,0.558,8.768
	c0,2.979-0.188,5.924-0.558,8.767H51.158z M51.158,24.518V7.736c2.417,1.332,4.739,4.077,6.651,7.9
	c1.306,2.613,2.377,5.595,3.19,8.882H51.158z M62.129,10.063c6.369,3.068,11.674,8.174,14.975,14.456h-9.451
	c-0.96-4.37-2.321-8.329-4.045-11.781C63.14,11.803,62.646,10.909,62.129,10.063z M62.13,69.473
	c0.516-0.847,1.009-1.739,1.478-2.674c1.724-3.45,3.085-7.41,4.045-11.782h9.451C73.803,61.299,68.498,66.405,62.13,69.473z
	 M51.158,71.798V55.017h9.841c-0.812,3.286-1.883,6.269-3.19,8.883C55.897,67.722,53.574,70.468,51.158,71.798z M44.676,31v17.535
	h-11.05c-0.37-2.843-0.558-5.789-0.558-8.767c0-2.978,0.188-5.923,0.558-8.768H44.676z M44.676,55.017v16.782
	c-2.417-1.33-4.74-4.076-6.651-7.898c-1.307-2.614-2.378-5.598-3.19-8.883H44.676z M18.729,24.518
	c3.302-6.282,8.607-11.387,14.975-14.455c-0.516,0.846-1.009,1.739-1.478,2.674c-1.725,3.452-3.085,7.411-4.045,11.781H18.729z
	 M28.181,55.017c0.96,4.372,2.32,8.333,4.045,11.782c0.468,0.935,0.961,1.828,1.479,2.674c-6.368-3.068-11.673-8.173-14.976-14.457
	H28.181z M44.676,7.736v16.782h-9.841c0.813-3.286,1.883-6.268,3.19-8.882C39.936,11.813,42.259,9.068,44.676,7.736z M27.096,48.535
	h-10.93c-0.789-2.849-1.188-5.794-1.188-8.767c0-2.972,0.399-5.917,1.188-8.768h10.93c-0.338,2.861-0.51,5.806-0.51,8.768
	C26.585,42.729,26.758,45.674,27.096,48.535z"/>
</svg>
