<?xml version="1.0" encoding="utf-8"?>
<!-- Generator: Adobe Illustrator 16.0.0, SVG Export Plug-In . SVG Version: 6.00 Build 0)  -->
<!DOCTYPE svg PUBLIC "-//W3C//DTD SVG 1.1//EN" "http://www.w3.org/Graphics/SVG/1.1/DTD/svg11.dtd">
<svg version="1.1" id="Vrstva_1" xmlns="http://www.w3.org/2000/svg" xmlns:xlink="http://www.w3.org/1999/xlink" x="0px" y="0px"
	 width="181.417px" height="119.055px" viewBox="0 0 181.417 119.055" enable-background="new 0 0 181.417 119.055"
	 xml:space="preserve">
<g>
	<g>
		<path fill="#F7A954" d="M88.668,15.507h-5.01v-0.001l-0.23,0.231l35.081,35.452L83.429,86.642l0.047,0.048h5.376l35.127-35.5
			L88.668,15.507z M90.952,15.507L90.952,15.507l-0.23,0.23l35.079,35.452L90.722,86.642l0.047,0.048h5.375l35.127-35.5
			l-35.31-35.683H90.952z M68.843,86.642l0.047,0.048h5.375l35.127-35.5L74.084,15.506h-5.011l-0.23,0.231l35.081,35.452
			L68.843,86.642z M54.259,86.641l0.047,0.048h5.376l35.127-35.5L59.499,15.506h-5.011l-0.229,0.231l35.081,35.452L54.259,86.641z
			 M76.137,86.642l0.045,0.048h5.376l35.128-35.5l-35.31-35.683h-5.011v-0.001l-0.229,0.231l35.078,35.452L76.137,86.642z
			 M61.553,86.641l0.046,0.048h5.375l35.127-35.5L66.792,15.506h-5.013l-0.228,0.231l35.08,35.452L61.553,86.641z M46.961,86.619
			l1.106-1.106L13.701,51.188l34.374-34.331l2.567,2.595L18.867,51.188l31.776,31.737l-3.676,3.715l0.047,0.048h5.375l35.128-35.5
			L52.206,15.506h-5.01l-0.23,0.231l0.009,0.009L11.488,51.188L46.961,86.619z M82.046,51.189L66.414,66.987L50.596,51.189
			l15.818-15.798L82.046,51.189z M65.313,34.279L48.382,51.188l16.93,16.912l-2.566,2.594L43.217,51.188l19.529-19.504
			L65.313,34.279z M61.645,30.572L41.004,51.188l20.641,20.618L59.079,74.4l-23.24-23.211l23.24-23.212L61.645,30.572z
			 M57.978,26.866L33.624,51.188l24.354,24.325l-2.567,2.594L28.458,51.188l26.953-26.917L57.978,26.866z M54.31,23.158
			l-28.065,28.03l28.066,28.03l-2.569,2.596L21.08,51.188l30.663-30.624L54.31,23.158z M163.79,94.981
			c-1.327,0-2.382,0.373-3.163,1.124c-0.781,0.747-1.171,1.699-1.171,2.855c0,1.24,0.463,2.242,1.386,3.008
			c0.752,0.617,1.736,0.927,2.955,0.927c1.365,0,2.436-0.373,3.209-1.116c0.771-0.742,1.159-1.697,1.159-2.862
			c0-1.037-0.312-1.908-0.937-2.617C166.455,95.421,165.307,94.981,163.79,94.981z M164.842,100.457
			c-0.268,0.316-0.613,0.478-1.029,0.478s-0.76-0.163-1.033-0.485s-0.41-0.822-0.41-1.498c0-0.664,0.139-1.159,0.414-1.486
			c0.276-0.324,0.625-0.488,1.049-0.488c0.399,0,0.736,0.161,1.006,0.481c0.273,0.32,0.407,0.81,0.407,1.465
			C165.245,99.627,165.111,100.137,164.842,100.457z M154.173,94.98c-0.409,0-0.754,0.102-1.03,0.303
			c-0.279,0.202-0.549,0.571-0.811,1.108v-1.24h-2.72v7.572h2.921v-2.538c0-1.211,0.148-2.039,0.449-2.48
			c0.208-0.314,0.504-0.471,0.884-0.471c0.199,0,0.473,0.07,0.813,0.213l0.9-2.067C155.07,95.113,154.602,94.98,154.173,94.98z
			 M17.513,96.617c-0.611-0.311-1.624-0.619-3.037-0.922c-0.57-0.119-0.933-0.247-1.085-0.386c-0.157-0.134-0.235-0.283-0.235-0.448
			c0-0.23,0.094-0.422,0.286-0.581c0.19-0.161,0.473-0.239,0.849-0.239c0.456,0,0.815,0.107,1.074,0.321
			c0.259,0.213,0.43,0.556,0.51,1.026l3.048-0.179c-0.132-1.085-0.551-1.874-1.252-2.371c-0.702-0.495-1.722-0.745-3.059-0.745
			c-1.09,0-1.948,0.137-2.574,0.41c-0.625,0.274-1.093,0.648-1.406,1.126c-0.312,0.479-0.468,0.986-0.468,1.523
			c0,0.817,0.305,1.489,0.915,2.017c0.604,0.528,1.616,0.951,3.034,1.27c0.866,0.19,1.418,0.395,1.657,0.606
			c0.238,0.215,0.356,0.456,0.356,0.728c0,0.286-0.124,0.537-0.375,0.754c-0.25,0.216-0.605,0.322-1.067,0.322
			c-0.619,0-1.095-0.211-1.428-0.635c-0.205-0.261-0.34-0.641-0.407-1.14l-3.077,0.19c0.09,1.056,0.479,1.926,1.164,2.61
			s1.918,1.027,3.698,1.027c1.014,0,1.854-0.146,2.52-0.438c0.667-0.293,1.186-0.721,1.556-1.286
			c0.372-0.567,0.557-1.185,0.557-1.854c0-0.57-0.139-1.087-0.417-1.548C18.57,97.315,18.124,96.93,17.513,96.617z M169.322,99.814
			v2.909h3.105v-2.909H169.322z M154.953,102.724h3.104v-2.909h-3.104V102.724z M115.389,94.981c-1.327,0-2.383,0.373-3.162,1.124
			c-0.781,0.747-1.17,1.699-1.17,2.855c0,1.24,0.46,2.242,1.385,3.008c0.751,0.617,1.736,0.927,2.955,0.927
			c1.364,0,2.436-0.373,3.208-1.116c0.774-0.742,1.161-1.697,1.161-2.862c0-1.037-0.313-1.908-0.937-2.617
			C118.055,95.421,116.906,94.981,115.389,94.981z M116.441,100.457c-0.268,0.316-0.611,0.478-1.031,0.478
			c-0.414,0-0.758-0.163-1.031-0.485s-0.41-0.822-0.41-1.498c0-0.664,0.137-1.159,0.413-1.486c0.275-0.324,0.628-0.488,1.05-0.488
			c0.401,0,0.736,0.161,1.006,0.481c0.272,0.32,0.407,0.81,0.407,1.465C116.845,99.627,116.711,100.137,116.441,100.457z
			 M126.039,102.724h3.105v-2.909h-3.105V102.724z M98.819,98.244c-0.471-0.195-1.188-0.347-2.157-0.455
			c-0.637-0.075-1.051-0.162-1.24-0.256c-0.189-0.096-0.285-0.234-0.285-0.421c0-0.165,0.073-0.306,0.225-0.424
			c0.15-0.115,0.388-0.175,0.717-0.175c0.323,0,0.6,0.078,0.828,0.229c0.167,0.114,0.286,0.292,0.359,0.534l2.753-0.271
			c-0.189-0.495-0.43-0.886-0.718-1.177c-0.287-0.289-0.646-0.504-1.077-0.642s-1.1-0.206-2.003-0.206
			c-0.857,0-1.539,0.089-2.049,0.267c-0.51,0.179-0.908,0.447-1.199,0.81c-0.291,0.36-0.436,0.791-0.436,1.289
			c0,0.456,0.135,0.861,0.402,1.218c0.271,0.355,0.601,0.608,0.994,0.76c0.393,0.148,1.093,0.311,2.103,0.488
			c0.675,0.118,1.092,0.218,1.249,0.3c0.219,0.111,0.328,0.274,0.328,0.482c0,0.185-0.084,0.34-0.25,0.463
			c-0.215,0.166-0.518,0.249-0.907,0.249c-0.356,0-0.644-0.073-0.856-0.22c-0.215-0.147-0.383-0.395-0.5-0.736l-2.885,0.271
			c0.168,0.726,0.545,1.285,1.134,1.682c0.587,0.394,1.573,0.591,2.958,0.591c0.98,0,1.756-0.122,2.324-0.367
			c0.568-0.244,0.984-0.572,1.248-0.986c0.265-0.412,0.397-0.837,0.397-1.274c0-0.434-0.126-0.828-0.374-1.19
			C99.65,98.717,99.291,98.439,98.819,98.244z M106.836,94.982c-0.514,0-0.982,0.11-1.406,0.334
			c-0.314,0.166-0.658,0.484-1.033,0.955v-1.119h-2.722v10.453h2.934v-3.614c0.29,0.299,0.62,0.524,0.99,0.676
			c0.368,0.153,0.776,0.229,1.224,0.229c0.924,0,1.686-0.331,2.291-0.994c0.604-0.663,0.908-1.625,0.908-2.884
			c0-1.141-0.279-2.099-0.833-2.874C108.634,95.368,107.85,94.982,106.836,94.982z M106.771,100.311
			c-0.229,0.278-0.51,0.416-0.85,0.416c-0.385,0-0.705-0.144-0.955-0.434c-0.254-0.29-0.378-0.735-0.378-1.334
			c0-0.651,0.122-1.121,0.371-1.41c0.247-0.291,0.556-0.436,0.929-0.436c0.341,0,0.631,0.144,0.871,0.432
			c0.236,0.287,0.355,0.737,0.355,1.351C107.115,99.562,107,100.032,106.771,100.311z M26.256,92.271h-5.377v10.452h3.249v-3.878
			h1.77c1.304,0,2.274-0.298,2.909-0.893c0.635-0.594,0.954-1.418,0.954-2.474c0-1.026-0.292-1.819-0.875-2.374
			C28.302,92.55,27.426,92.271,26.256,92.271z M26.234,96.404c-0.253,0.215-0.69,0.324-1.314,0.324h-0.792v-2.332h0.92
			c0.605,0,1.016,0.113,1.235,0.343c0.22,0.229,0.33,0.505,0.33,0.834C26.612,95.911,26.486,96.188,26.234,96.404z M80.866,92.093
			c-1.699,0-3.024,0.476-3.977,1.427c-0.953,0.95-1.428,2.278-1.428,3.984c0.001,1.223,0.241,2.24,0.722,3.051
			c0.48,0.814,1.106,1.408,1.881,1.784c0.773,0.375,1.75,0.563,2.93,0.563c1.161,0,2.131-0.218,2.909-0.653
			c0.778-0.435,1.374-1.043,1.785-1.824c0.412-0.783,0.617-1.784,0.617-3.005c0-1.685-0.471-2.991-1.413-3.926
			S82.607,92.093,80.866,92.093z M82.501,99.81c-0.381,0.45-0.918,0.677-1.613,0.677c-0.676,0-1.21-0.231-1.604-0.691
			c-0.392-0.462-0.588-1.22-0.588-2.275c0-1.064,0.197-1.827,0.591-2.288c0.396-0.463,0.919-0.691,1.571-0.691
			c0.681,0,1.22,0.226,1.618,0.681c0.397,0.455,0.595,1.172,0.595,2.156C83.072,98.547,82.881,99.357,82.501,99.81z
			 M121.264,102.724h2.913V92.271h-2.913V102.724z M52.946,92.271h-4.301l-3.387,3.95v-3.95h-3.234v10.452h3.234v-2.55l1.671-1.749
			l2.207,4.298h3.983l-3.991-6.507L52.946,92.271z M34.685,98.297h5.034v-2.133h-5.034v-1.661h5.426v-2.231h-8.667v10.452h8.823
			v-2.366h-5.583V98.297z M53.453,94.852h3.298v7.871h3.233v-7.871h3.299v-2.58h-9.831V94.852z M141.866,98.244
			c-0.471-0.195-1.188-0.347-2.155-0.455c-0.639-0.075-1.053-0.162-1.242-0.256c-0.189-0.096-0.285-0.234-0.285-0.421
			c0-0.165,0.074-0.306,0.223-0.424c0.151-0.115,0.391-0.175,0.719-0.175c0.324,0,0.6,0.078,0.828,0.229
			c0.166,0.114,0.285,0.292,0.357,0.534l2.755-0.271c-0.189-0.495-0.43-0.886-0.718-1.177c-0.287-0.289-0.646-0.504-1.078-0.642
			c-0.43-0.138-1.098-0.206-2.001-0.206c-0.858,0-1.539,0.089-2.048,0.267c-0.51,0.179-0.91,0.447-1.199,0.81
			c-0.291,0.36-0.437,0.791-0.437,1.289c0,0.456,0.136,0.861,0.403,1.218c0.269,0.355,0.602,0.608,0.994,0.76
			c0.391,0.148,1.092,0.311,2.101,0.488c0.675,0.118,1.093,0.218,1.249,0.3c0.22,0.111,0.328,0.274,0.328,0.482
			c0,0.185-0.084,0.34-0.25,0.463c-0.215,0.166-0.516,0.249-0.907,0.249c-0.356,0-0.642-0.073-0.855-0.22
			c-0.214-0.147-0.382-0.395-0.499-0.736l-2.886,0.271c0.167,0.726,0.545,1.285,1.132,1.682c0.588,0.394,1.574,0.591,2.959,0.591
			c0.98,0,1.756-0.122,2.323-0.367c0.569-0.244,0.985-0.572,1.249-0.986c0.265-0.412,0.397-0.837,0.397-1.274
			c0-0.434-0.125-0.828-0.374-1.19C142.699,98.717,142.338,98.439,141.866,98.244z M73.064,99.046
			c-0.227-0.279-0.398-0.463-0.517-0.549c-0.176-0.128-0.458-0.257-0.841-0.385c0.48-0.109,0.858-0.246,1.134-0.414
			c0.435-0.262,0.774-0.602,1.022-1.023c0.247-0.421,0.371-0.922,0.371-1.502c0-0.665-0.163-1.229-0.486-1.692
			c-0.323-0.463-0.75-0.781-1.277-0.953c-0.529-0.171-1.293-0.256-2.292-0.256h-5.391v10.452h3.249v-4.241h0.286
			c0.295,0,0.559,0.08,0.793,0.242c0.17,0.123,0.366,0.392,0.584,0.806l1.729,3.193h3.655l-1.566-3.028
			C73.441,99.544,73.291,99.326,73.064,99.046z M70.783,96.037c-0.136,0.176-0.311,0.284-0.525,0.327
			c-0.424,0.095-0.709,0.143-0.856,0.143h-1.364v-2.125h1.421c0.59,0,0.992,0.091,1.207,0.271c0.213,0.181,0.32,0.439,0.32,0.777
			C70.986,95.66,70.918,95.86,70.783,96.037z"/>
	</g>
</g>
</svg>
