<?xml version="1.0" encoding="utf-8"?>
<!-- Generator: Adobe Illustrator 16.0.0, SVG Export Plug-In . SVG Version: 6.00 Build 0)  -->
<!DOCTYPE svg PUBLIC "-//W3C//DTD SVG 1.1//EN" "http://www.w3.org/Graphics/SVG/1.1/DTD/svg11.dtd">
<svg version="1.1" id="Vrstva_1" xmlns="http://www.w3.org/2000/svg" xmlns:xlink="http://www.w3.org/1999/xlink" x="0px" y="0px"
	 width="181.417px" height="119.055px" viewBox="0 0 181.417 119.055" enable-background="new 0 0 181.417 119.055"
	 xml:space="preserve">
<g>
	<g>
		<path fill="#F7A954" d="M170.157,45.996c-1.411-2.339-3.388-4.39-5.734-5.908c-1.296-0.839-2.606-1.464-3.967-1.934
			c-1.342-0.462-2.737-0.777-4.224-0.996c-3.025-0.444-6.249-0.881-9.625-1.309c-3.393-0.43-6.59-0.808-9.643-1.148
			c-9.473-1.061-18.954-1.963-28.357-2.491c-9.493-0.535-19.015-0.702-28.538-0.294c-8.479,0.363-17.046,1.001-25.668,1.842
			c-8.552,0.834-17.056,1.865-25.512,3.022c-0.148,0.021-0.298,0.04-0.448,0.061c-1.123,0.152-2.255,0.308-3.451,0.521
			c-3.927,0.704-7.391,2.579-10.002,5.2c-2.648,2.658-4.428,6.09-4.942,9.858c-0.208,1.526-0.208,2.718,0,4.243
			c0.514,3.77,2.293,7.2,4.942,9.858c2.612,2.623,6.075,4.495,10.002,5.201c1.196,0.213,2.328,0.367,3.451,0.521
			c0.149,0.02,0.299,0.041,0.448,0.062c8.457,1.156,16.96,2.187,25.512,3.021c8.623,0.843,17.19,1.48,25.668,1.843
			c9.522,0.408,19.043,0.24,28.538-0.293c9.402-0.529,18.884-1.432,28.357-2.492c3.053-0.34,6.25-0.72,9.643-1.149
			c3.375-0.428,6.6-0.864,9.625-1.309c1.486-0.219,2.882-0.532,4.224-0.996c1.36-0.468,2.671-1.095,3.967-1.934
			c2.347-1.519,4.323-3.569,5.733-5.908C173.342,57.805,173.345,51.286,170.157,45.996z M166.901,61.131
			c-1.123,1.861-2.69,3.489-4.545,4.689c-1.001,0.647-2.038,1.141-3.135,1.518c-1.115,0.385-2.286,0.648-3.54,0.832
			c-3.35,0.493-6.522,0.925-9.55,1.309c-3.013,0.383-6.228,0.761-9.582,1.135c-9.284,1.04-18.661,1.929-28.149,2.463
			c-9.398,0.529-18.805,0.695-28.182,0.293c-8.598-0.368-17.079-0.993-25.46-1.812c-8.452-0.825-16.912-1.851-25.362-3.008
			c-0.149-0.021-0.299-0.042-0.448-0.062c-1.126-0.154-2.263-0.31-3.288-0.491c-3.136-0.564-5.898-2.057-7.98-4.146
			c-2.079-2.085-3.473-4.763-3.872-7.692c-0.146-1.056-0.146-2.176,0-3.231c0.399-2.929,1.793-5.606,3.872-7.692
			c2.082-2.09,4.844-3.583,7.98-4.146c1.026-0.184,2.162-0.339,3.288-0.492c0.149-0.021,0.298-0.04,0.448-0.061
			c8.45-1.157,16.91-2.183,25.362-3.009c8.382-0.817,16.863-1.444,25.46-1.813c9.377-0.401,18.783-0.234,28.182,0.295
			c9.488,0.532,18.865,1.422,28.149,2.461c3.354,0.375,6.571,0.753,9.582,1.135c3.028,0.384,6.2,0.815,9.55,1.309
			c1.254,0.184,2.425,0.447,3.54,0.832c1.097,0.378,2.134,0.87,3.135,1.519c1.854,1.199,3.422,2.828,4.545,4.69
			C169.375,52.059,169.375,57.026,166.901,61.131z M146.143,56.014l-2.903,3.729l-4.861-6.231l-3.251-4.188l-11.402-0.014
			c-4.775-2.148-10.488-1.706-14.126,2.379c-2.462,2.767-2.353,6.525-0.14,9.391l-8.18-0.027l-1.903-1.936
			c2.257-2.609,2.688-5.953,0.417-8.72c-2.534-3.088-6.457-2.602-9.918-1.712c-1.973,0.509-3.787,1.299-5.514,2.379l0.028-6.927
			h-3.931l0.014,16.9l-8.459,0.015l-0.014-11.728h-3.903l-0.013,11.728H57.026l0.014-13.035h2.597l-0.014-3.88h-6.528l-9.75,14.326
			l-9.708-14.313l-6.488-0.008v3.869l2.586,0.01v13.031l-2.586-0.01v3.881h6.491V50.619l9.707,14.303l9.767-14.303l0.01,14.301
			h31.263l-0.01-3.86l11.359-0.011c0.945,0.93,1.887,1.867,2.844,2.788c0.61,0.516,1.209,0.802,1.986,0.995
			c0.174,0.043,0.331,0.068,0.512,0.09c5.844,0,11.69,0.002,17.535,0c4.375,0,9.578-3.135,9.954-7.813
			c0.111-1.394-0.129-2.658-0.768-3.9l5.017,0.02l3.728,4.776l3.029,3.872l2.37,3.034l2.605-0.005l3.664-4.692l4.945-6.329
			l0.527-0.653h3.514v-3.909l-5.846-0.014L146.143,56.014z M96.838,56.141c-0.379,0.488-1.143,0.982-1.78,0.984
			c-3.56,0.016-7.121,0.015-10.682,0.022v-1.313c0.705-0.601,1.406-1.122,2.198-1.601c2.349-1.422,5.065-2.228,7.813-2.312
			c0.818-0.025,1.534,0.101,2.154,0.684C97.527,53.531,97.678,55.06,96.838,56.141z M118.197,61.048
			c-3.572,0-6.486-2.05-6.486-4.563s2.914-4.564,6.486-4.564s6.486,2.051,6.486,4.564S121.77,61.048,118.197,61.048z M72.021,44.148
			h-3.938v3.862h3.938V44.148z M80.221,95.825c-0.255,0.196-0.539,0.35-0.852,0.46c-0.314,0.11-0.643,0.168-0.989,0.17
			c-0.498-0.002-0.96-0.093-1.384-0.273c-0.421-0.179-0.789-0.432-1.107-0.76c-0.314-0.33-0.559-0.717-0.733-1.165
			c-0.177-0.446-0.265-0.941-0.267-1.479c0.002-0.544,0.089-1.035,0.267-1.487c0.174-0.446,0.419-0.834,0.733-1.162
			c0.318-0.327,0.687-0.578,1.107-0.758c0.424-0.179,0.885-0.269,1.384-0.271c0.347,0.003,0.675,0.061,0.989,0.172
			c0.313,0.113,0.595,0.268,0.852,0.468c0.255,0.195,0.471,0.422,0.645,0.677l0.951-0.527c-0.24-0.345-0.525-0.65-0.856-0.917
			c-0.33-0.269-0.709-0.481-1.137-0.638c-0.43-0.157-0.91-0.234-1.443-0.237c-0.523,0.003-1.019,0.073-1.485,0.219
			c-0.469,0.146-0.894,0.356-1.281,0.627c-0.387,0.274-0.722,0.602-1.003,0.985c-0.283,0.384-0.5,0.814-0.655,1.294
			c-0.156,0.479-0.232,0.997-0.235,1.557c0.003,0.558,0.08,1.076,0.235,1.556c0.154,0.478,0.372,0.908,0.655,1.294
			c0.28,0.384,0.616,0.712,1.003,0.985c0.387,0.271,0.813,0.481,1.281,0.625c0.466,0.146,0.962,0.219,1.485,0.221
			c0.532-0.002,1.012-0.082,1.438-0.235c0.426-0.154,0.804-0.363,1.137-0.633c0.33-0.27,0.623-0.577,0.877-0.923l-0.965-0.53
			C80.692,95.398,80.477,95.628,80.221,95.825z M67.336,95.314l-5.216-7.069h-1.154v9.051h1.127v-7.218l5.285,7.218h1.086v-9.051
			h-1.127V95.314z M48.337,93.122c-0.211-0.19-0.454-0.353-0.723-0.483c-0.271-0.132-0.557-0.245-0.856-0.338
			c-0.301-0.093-0.6-0.178-0.899-0.255c-0.292-0.077-0.568-0.155-0.831-0.237c-0.263-0.081-0.498-0.177-0.702-0.285
			c-0.206-0.109-0.369-0.242-0.487-0.398c-0.117-0.156-0.178-0.346-0.181-0.572c0.002-0.287,0.083-0.538,0.24-0.752
			c0.159-0.216,0.378-0.383,0.657-0.503c0.278-0.12,0.599-0.181,0.964-0.184c0.333,0,0.654,0.04,0.968,0.117
			c0.315,0.075,0.612,0.195,0.893,0.356c0.278,0.16,0.532,0.364,0.761,0.612l0.679-0.827c-0.381-0.402-0.838-0.712-1.375-0.932
			c-0.537-0.217-1.152-0.327-1.846-0.329c-0.446,0.002-0.86,0.06-1.236,0.182c-0.378,0.12-0.706,0.29-0.987,0.512
			c-0.278,0.222-0.496,0.486-0.652,0.794c-0.154,0.308-0.233,0.646-0.236,1.022c0.002,0.352,0.063,0.657,0.179,0.913
			c0.118,0.254,0.279,0.471,0.482,0.646c0.206,0.18,0.439,0.328,0.7,0.45c0.263,0.121,0.542,0.226,0.832,0.313
			c0.292,0.085,0.586,0.165,0.878,0.24c0.302,0.08,0.589,0.163,0.863,0.252c0.274,0.09,0.519,0.195,0.733,0.319
			c0.216,0.125,0.385,0.276,0.509,0.46c0.125,0.184,0.188,0.411,0.19,0.681c0.002,0.176-0.034,0.354-0.106,0.535
			c-0.073,0.182-0.19,0.349-0.354,0.504c-0.166,0.154-0.382,0.278-0.659,0.373c-0.274,0.096-0.611,0.145-1.014,0.147
			c-0.426-0.005-0.817-0.065-1.175-0.187c-0.355-0.122-0.674-0.277-0.956-0.475c-0.283-0.193-0.522-0.401-0.722-0.627l-0.666,0.854
			c0.249,0.281,0.543,0.531,0.883,0.747c0.34,0.213,0.727,0.382,1.159,0.505c0.432,0.121,0.91,0.183,1.435,0.185
			c0.609-0.005,1.128-0.082,1.554-0.23c0.427-0.149,0.772-0.353,1.034-0.605c0.264-0.254,0.456-0.539,0.576-0.853
			c0.122-0.315,0.181-0.64,0.179-0.97c-0.002-0.378-0.066-0.705-0.188-0.979C48.714,93.547,48.549,93.313,48.337,93.122z
			 M54.213,97.296h1.128v-9.051h-1.128V97.296z M86.775,97.296h5.936v-1.004h-4.809v-3.121h4.714v-1.003h-4.714V89.25h4.809v-1.004
			h-5.936V97.296z M139.971,88.246h-1.548l-3.886,5.821v0.936h4.307v2.293h1.127v-2.293h1.277v-0.99h-1.277V88.246z M138.844,94.013
			h-3.179l3.179-4.722V94.013z M129.402,90.064c-0.172-0.394-0.396-0.737-0.67-1.031c-0.277-0.293-0.607-0.522-0.992-0.688
			c-0.387-0.163-0.833-0.246-1.34-0.249c-0.494,0.003-0.936,0.085-1.324,0.241c-0.392,0.158-0.723,0.376-0.996,0.652
			c-0.275,0.275-0.482,0.591-0.628,0.942c-0.143,0.354-0.215,0.729-0.217,1.122c0.002,0.482,0.082,0.903,0.235,1.264
			c0.154,0.363,0.368,0.663,0.641,0.902c0.271,0.242,0.589,0.424,0.946,0.544c0.358,0.121,0.742,0.181,1.151,0.181
			c0.291-0.002,0.567-0.047,0.832-0.133s0.507-0.199,0.73-0.34c0.227-0.139,0.422-0.293,0.589-0.455
			c0.171-0.164,0.304-0.325,0.403-0.483c0.008,0.061,0.012,0.122,0.012,0.184c0.002,0.061,0.002,0.122,0.002,0.184
			c0,0.342-0.029,0.685-0.088,1.022c-0.061,0.34-0.154,0.659-0.282,0.961c-0.127,0.301-0.29,0.568-0.491,0.804
			c-0.202,0.232-0.442,0.415-0.722,0.549c-0.278,0.133-0.603,0.201-0.97,0.204c-0.311-0.003-0.584-0.041-0.817-0.118
			c-0.235-0.079-0.444-0.185-0.626-0.325c-0.18-0.137-0.348-0.296-0.499-0.479l-0.57,0.841c0.19,0.22,0.405,0.41,0.647,0.57
			c0.244,0.162,0.52,0.289,0.828,0.379c0.307,0.089,0.652,0.135,1.036,0.137c0.507-0.002,0.96-0.086,1.358-0.252
			c0.398-0.164,0.742-0.393,1.035-0.689c0.291-0.295,0.533-0.638,0.725-1.029c0.189-0.391,0.332-0.814,0.424-1.275
			c0.094-0.455,0.139-0.931,0.139-1.421c0-0.498-0.038-0.974-0.12-1.438C129.703,90.882,129.576,90.456,129.402,90.064z
			 M128.129,92.327c-0.238,0.202-0.498,0.358-0.781,0.472c-0.286,0.11-0.578,0.167-0.88,0.17c-0.294,0-0.565-0.038-0.819-0.117
			c-0.254-0.08-0.473-0.199-0.666-0.363c-0.189-0.16-0.336-0.364-0.443-0.608c-0.107-0.243-0.16-0.533-0.162-0.865
			c0-0.217,0.042-0.437,0.129-0.661c0.088-0.222,0.217-0.427,0.39-0.617c0.173-0.188,0.392-0.343,0.649-0.457
			c0.26-0.116,0.563-0.177,0.91-0.18c0.314,0.003,0.59,0.056,0.833,0.154c0.239,0.102,0.446,0.238,0.617,0.41
			c0.175,0.175,0.318,0.368,0.434,0.585c0.113,0.218,0.202,0.444,0.265,0.681c0.061,0.235,0.103,0.467,0.12,0.695
			C128.563,91.895,128.363,92.129,128.129,92.327z M112.49,89.249h4.877l-3.654,8.046h1.249v0.001l3.709-8.276v-0.774h-6.181V89.249
			z M104.244,90.58l0.679,0.69l1.454-1.532v7.557h1.128v-9.05h-0.992L104.244,90.58z"/>
	</g>
</g>
</svg>
