<?xml version="1.0" encoding="utf-8"?>
<!-- Generator: Adobe Illustrator 16.0.0, SVG Export Plug-In . SVG Version: 6.00 Build 0)  -->
<!DOCTYPE svg PUBLIC "-//W3C//DTD SVG 1.1//EN" "http://www.w3.org/Graphics/SVG/1.1/DTD/svg11.dtd">
<svg version="1.1" id="Vrstva_1" xmlns="http://www.w3.org/2000/svg" xmlns:xlink="http://www.w3.org/1999/xlink" x="0px" y="0px"
	 width="181.417px" height="119.055px" viewBox="0 0 181.417 119.055" enable-background="new 0 0 181.417 119.055"
	 xml:space="preserve">
<g>
	<g>
		<path fill="#F7A954" d="M32.562,60.426c-0.819-0.938-1.945-1.734-3.377-2.394c-0.71-0.326-1.512-0.636-2.407-0.933
			c-0.875-0.288-1.718-0.636-2.512-1.037c-0.726-0.367-1.247-0.835-1.581-1.407c-0.336-0.573-0.51-1.278-0.51-2.136
			c0-1.286,0.463-2.37,1.401-3.309c0.939-0.932,2.075-1.391,3.466-1.393c1.174,0,2.093,0.196,2.764,0.57
			c0.689,0.383,1.215,0.902,1.602,1.57c0.348,0.614,0.604,1.4,0.753,2.364c0.152,0.973,0.247,1.915,0.282,2.827l0.01,0.226h1.919
			l1.96-8.927h-1.884l-0.949,1.145c-0.938-0.641-1.878-1.088-2.826-1.331c-0.995-0.259-2.051-0.386-3.162-0.386
			c-1.192,0-2.398,0.21-3.605,0.623c-1.208,0.415-2.244,0.973-3.103,1.676c-0.882,0.727-1.593,1.588-2.13,2.585
			c-0.54,1.003-0.811,2.104-0.811,3.285c0,1.252,0.354,2.391,1.054,3.393c0.697,0.995,1.624,1.762,2.761,2.294
			c0.841,0.4,1.697,0.747,2.571,1.043c0.856,0.293,1.724,0.62,2.599,0.991c0.9,0.378,1.553,0.904,1.989,1.576
			c0.44,0.683,0.661,1.454,0.661,2.335c-0.004,1.665-0.529,2.935-1.579,3.877c-1.051,0.94-2.444,1.415-4.228,1.417
			c-1.186,0-2.165-0.2-2.942-0.591c-0.784-0.399-1.418-0.95-1.912-1.674h-0.005v-0.004c-0.494-0.704-0.853-1.493-1.076-2.384
			c-0.222-0.891-0.365-1.851-0.424-2.88l-0.012-0.223h-1.915L13.5,72.41h1.888l0.984-1.232c0.702,0.446,1.569,0.835,2.622,1.177
			c1.165,0.372,2.515,0.56,4.045,0.56c1.505,0,2.892-0.214,4.155-0.642c1.257-0.427,2.398-1.047,3.414-1.853h-0.002
			c0.974-0.762,1.747-1.711,2.329-2.842c0.583-1.135,0.873-2.357,0.873-3.658C33.808,62.557,33.394,61.38,32.562,60.426z
			 M59.702,70.56c-0.4-0.11-0.705-0.241-0.917-0.386c-0.32-0.244-0.554-0.508-0.707-0.778c-0.156-0.274-0.271-0.621-0.34-1.045
			v0.005l-3.513-22.265H52.41l-0.066,0.112c-1.931,3.014-4.162,6.534-6.693,10.554c-2.535,4.021-4.865,7.67-6.986,10.951
			c-0.444,0.692-0.862,1.208-1.234,1.54c-0.391,0.342-0.791,0.626-1.204,0.858c-0.314,0.177-0.72,0.321-1.216,0.432
			c-0.497,0.112-0.903,0.179-1.203,0.201l-0.177,0.015l-0.38,1.638h10.525l0.379-1.635l-0.286-0.019
			c-0.962-0.058-1.756-0.205-2.379-0.432c-0.303-0.111-0.518-0.239-0.645-0.362c-0.125-0.126-0.172-0.234-0.172-0.368
			c-0.005-0.028,0.019-0.134,0.063-0.281c0.047-0.145,0.121-0.335,0.221-0.566c0.198-0.467,0.407-0.884,0.623-1.256h-0.004
			l0.004-0.004c0.248-0.43,0.596-1.051,1.049-1.873c0.43-0.768,0.83-1.444,1.212-2.035h8.827c0.257,1.842,0.453,3.295,0.594,4.329
			c0.072,0.534,0.127,0.95,0.163,1.241c0.038,0.285,0.054,0.473,0.054,0.481c-0.005,0.227-0.063,0.332-0.183,0.419
			c-0.158,0.108-0.423,0.226-0.787,0.34c-0.261,0.08-0.648,0.155-1.152,0.219c-0.505,0.063-0.948,0.113-1.322,0.149l-0.179,0.019
			l-0.378,1.635h11.176l0.384-1.643l-0.29-0.012C60.455,70.73,60.105,70.669,59.702,70.56z M45.138,61.584l5.694-9.044l1.493,9.044
			H45.138z M91.238,50.512c0.324-0.816,0.732-1.337,1.192-1.597c0.306-0.173,0.841-0.354,1.593-0.532
			c0.752-0.177,1.292-0.269,1.59-0.28l0.181-0.007l0.409-1.649H85.097l-0.402,1.619l0.263,0.035c0.436,0.059,1.006,0.18,1.7,0.363
			c0.68,0.18,1.151,0.393,1.396,0.604v0.002h0.001c0.116,0.092,0.212,0.248,0.286,0.488c0.07,0.239,0.108,0.551,0.108,0.93
			c0,0.413-0.048,0.921-0.144,1.514c-0.098,0.6-0.221,1.216-0.369,1.845l-2.852,12.035l-9.678-19.437h-7.842l-0.408,1.629
			l0.278,0.027c0.467,0.044,1.009,0.158,1.62,0.338c0.574,0.177,1.058,0.482,1.459,0.929c0.23,0.266,0.363,0.51,0.421,0.721
			c0.062,0.237,0.093,0.489,0.093,0.76c0,0.228-0.018,0.479-0.056,0.749c-0.032,0.273-0.093,0.604-0.177,0.992l-2.943,12.354v-0.002
			c-0.367,1.595-0.725,2.75-1.054,3.445c-0.331,0.696-0.728,1.183-1.17,1.474h-0.004v0.004c-0.203,0.141-0.713,0.338-1.487,0.528
			c-0.775,0.198-1.364,0.312-1.741,0.344l-0.178,0.017l-0.383,1.636h11.205l0.378-1.626l-0.277-0.025
			c-0.229-0.019-0.784-0.141-1.613-0.368c-0.816-0.216-1.31-0.469-1.44-0.639l-0.001-0.005l-0.001-0.004
			c-0.124-0.136-0.229-0.321-0.304-0.555c-0.078-0.221-0.117-0.539-0.117-0.941c0-0.378,0.046-0.882,0.141-1.51
			c0.101-0.628,0.224-1.252,0.369-1.865l3.146-13.256l10.461,21.047h1.983l4.497-18.922C90.577,52.411,90.906,51.341,91.238,50.512z
			 M174.477,45.791c0.006-0.471-0.076-0.62-0.399-0.733c0.323-0.139,0.471-0.361,0.476-0.73c0.002-0.309-0.113-0.563-0.33-0.719
			c-0.188-0.135-0.371-0.172-0.844-0.18l-1.365-0.015l-0.046,3.209l0.463,0.01l0.017-1.368l0.883,0.013
			c0.402,0.003,0.684,0.046,0.676,0.509l-0.004,0.408c-0.002,0.147,0.018,0.262,0.072,0.456l0.543,0.008
			c-0.107-0.15-0.15-0.321-0.146-0.499L174.477,45.791z M173.307,44.87l-0.855-0.011l0.014-1.033l0.892,0.008
			c0.388,0.006,0.726,0.074,0.721,0.526C174.07,44.836,173.713,44.876,173.307,44.87z M162.804,42.078
			c0.136,0.96-0.446,1.333-0.864,1.686c-6.408,4.804-16.365,11.724-24.121,16.854c-0.383-2.923-0.67-5.292-0.816-6.286
			c-0.674-4.792-1.497-7.494-2.86-8.788c-3.496-3.324-10.422-0.991-17.331,2.196c-0.512,0.255-0.16,0.89,0.451,0.611
			c7.452-3.622,13.365-2.85,15.049,3.224c1.191,4.311,1.882,7.959,2.4,11.075c-0.664,0.435-1.315,0.852-1.924,1.239
			c-8.512,5.421-25.584,17.223-28.155,20.732c-1.461,2.005-1.849,3.884-0.069,5.5c0.275,0.245,0.734,0.012,0.692-0.441
			c-0.597-4.431,10.626-13.62,28.247-25.039c0.467-0.299,0.926-0.595,1.392-0.896c0.21,1.299,0.396,2.512,0.579,3.623
			c0.564,3.367,1.315,10.187,1.832,13.567c0.959,6.245,7.694,5.883,17.135-0.839c0.756-0.563,0.072-1.024-0.432-0.506
			c-6.069,5.144-11.879,5.032-13.564-3.039c-0.519-2.482-1.083-5.125-1.453-7.536c-0.375-2.458-0.72-4.989-1.024-7.264
			c9.491-6.151,18.286-11.821,25.466-15.936c1.477-0.93,1.338-2.365,0.264-3.883C163.342,41.445,162.697,41.528,162.804,42.078z
			 M97.857,70.306c-0.307-0.11-0.518-0.237-0.646-0.362c-0.126-0.126-0.169-0.233-0.175-0.367c0-0.03,0.02-0.136,0.066-0.282
			c0.048-0.145,0.122-0.335,0.22-0.568c0.201-0.464,0.409-0.882,0.621-1.253v-0.005c0.249-0.431,0.596-1.052,1.053-1.873
			c0.426-0.767,0.83-1.443,1.209-2.035h8.833c0.252,1.844,0.452,3.294,0.589,4.329c0.076,0.534,0.129,0.951,0.166,1.24
			c0.036,0.286,0.053,0.473,0.053,0.483c-0.006,0.228-0.064,0.331-0.182,0.418c-0.158,0.107-0.423,0.227-0.788,0.342
			c-0.263,0.079-0.65,0.152-1.15,0.218c-0.511,0.063-0.951,0.112-1.329,0.149l-0.17,0.018l-0.381,1.635h11.174l0.383-1.644
			l-0.291-0.011c-0.292-0.009-0.645-0.068-1.045-0.179c-0.398-0.109-0.704-0.24-0.915-0.386c-0.323-0.243-0.558-0.507-0.709-0.778
			c-0.155-0.273-0.269-0.62-0.339-1.045v0.007l-3.515-22.266h-1.811l-0.07,0.11c-1.927,3.015-4.157,6.535-6.692,10.556
			c-2.533,4.021-4.862,7.669-6.983,10.95c-0.448,0.694-0.862,1.209-1.239,1.541c-0.387,0.342-0.787,0.626-1.2,0.859
			c-0.315,0.177-0.72,0.32-1.212,0.431c-0.506,0.11-0.908,0.179-1.208,0.2l-0.175,0.016l-0.386,1.637h10.525l0.381-1.635
			l-0.281-0.019C99.271,70.68,98.477,70.533,97.857,70.306z M107.195,52.54l1.494,9.043h-7.187L107.195,52.54z M173.262,42.174
			c-1.616-0.02-2.951,1.249-2.971,2.826c-0.02,1.573,1.279,2.877,2.896,2.896c1.614,0.021,2.95-1.247,2.97-2.825
			C176.175,43.495,174.876,42.195,173.262,42.174z M173.191,47.405c-1.339-0.016-2.418-1.095-2.398-2.401
			c0.016-1.305,1.123-2.356,2.461-2.341c1.338,0.02,2.42,1.096,2.398,2.405C175.635,46.371,174.528,47.421,173.191,47.405z"/>
	</g>
</g>
</svg>
