<?xml version="1.0" encoding="utf-8"?>
<!-- Generator: Adobe Illustrator 16.0.0, SVG Export Plug-In . SVG Version: 6.00 Build 0)  -->
<!DOCTYPE svg PUBLIC "-//W3C//DTD SVG 1.1//EN" "http://www.w3.org/Graphics/SVG/1.1/DTD/svg11.dtd">
<svg version="1.1" id="Vrstva_1" xmlns="http://www.w3.org/2000/svg" xmlns:xlink="http://www.w3.org/1999/xlink" x="0px" y="0px"
	 width="181.417px" height="119.055px" viewBox="0 0 181.417 119.055" enable-background="new 0 0 181.417 119.055"
	 xml:space="preserve">
<g>
	<g>
		<path fill="#F7A954" d="M169.879,35.854l-8.803,33.943l-8.805-33.943h-1.74v35.784h1.023V37.541l8.855,33.995h1.279l8.805-33.995
			v34.098h1.125V35.854H169.879z M146.438,35.854h-1.126v35.784h1.126V35.854z M121.923,48.072v-3.578c0-5.01-1.894-8.64-7.421-8.64
			h-7.064v35.784h1.126V56.456h5.119C119.363,56.456,121.923,53.747,121.923,48.072z M113.682,55.382h-5.119V36.928h5.938
			c4.812,0,6.297,3.117,6.297,7.514v3.681C120.797,53.184,118.697,55.382,113.682,55.382z M140.347,61.772
			c0-3.937-1.688-6.544-5.681-7.157c3.939-0.715,5.681-3.118,5.681-7.515V43.88c0-4.907-2.046-8.025-7.371-8.025h-7.112v35.784
			h1.125V55.127h4.401c4.658,0,7.832,1.38,7.832,6.646v5.622c0,1.535,0.152,3.12,0.869,4.243h1.229
			c-0.819-1.125-0.973-2.862-0.973-4.243V61.772z M126.988,54.053V36.928h5.938c4.607,0,6.296,2.709,6.296,7.055v3.271
			c0,5.522-2.867,6.8-7.831,6.8H126.988z M83.484,67.294v-5.521c0-3.732-0.921-6.441-3.737-7.617
			c2.508-1.175,3.685-3.578,3.685-7.259v-2.813c0-5.521-2.507-8.23-8.342-8.23h-8.497v35.784h5.629V57.069h1.946
			c2.56,0,3.685,1.226,3.685,4.55v5.622c0,2.914,0.206,3.477,0.512,4.396h5.732C83.535,70.309,83.484,69.032,83.484,67.294z
			 M77.803,48.175c0,2.862-1.28,3.783-3.378,3.783h-2.202V40.967h2.713v-0.001c1.996,0,2.867,1.125,2.867,3.681V48.175z
			 M52.62,71.639h5.631V40.966h5.887v-5.111H46.735v5.111h5.885V71.639z M84.099,71.638L84.099,71.638
			C84.099,71.638,84.099,71.639,84.099,71.638L84.099,71.638z M25.853,67.294v-5.521c0-3.732-0.921-6.441-3.736-7.617
			c2.508-1.175,3.685-3.578,3.685-7.259v-2.813c0-5.521-2.508-8.23-8.343-8.23H8.962v35.784h5.629V57.069h1.946
			c2.559,0,3.685,1.226,3.685,4.55v5.622c0,2.914,0.204,3.477,0.512,4.396h5.732C25.904,70.309,25.853,69.032,25.853,67.294z
			 M20.172,48.175c0,2.862-1.281,3.783-3.378,3.783h-2.202V40.967h2.713v-0.001c1.996,0,2.867,1.125,2.867,3.681V48.175z
			 M26.467,71.638L26.467,71.638C26.467,71.638,26.467,71.639,26.467,71.638L26.467,71.638z M44.892,66.526h-9.724v-10.48h7.728
			v-5.112h-7.728v-9.968h9.724v-5.111H29.537v35.784h15.355V66.526z M95.256,35.445c-5.528,0-8.548,3.272-8.548,8.997v18.608
			c0,5.725,3.021,8.996,8.548,8.996c5.527,0,8.548-3.271,8.548-8.996V44.442C103.804,38.718,100.783,35.445,95.256,35.445z
			 M98.173,63.409c0,2.556-1.127,3.526-2.917,3.526c-1.793,0-2.918-0.971-2.918-3.526V44.085c0-2.557,1.127-3.527,2.918-3.527
			c1.79,0,2.917,0.971,2.917,3.527V63.409z M152.195,77.097h-1.287l-6.117,7.413v-7.413h-1.234v14.024h1.234v-5.068l1.288-1.523
			l5.179,6.592h1.287l-5.714-7.493L152.195,77.097z M121.666,90.059l-3.81-12.962h-1.261l4.132,14.024h1.823l4.079-14.024h-1.153
			L121.666,90.059z M133.685,77.077l-4.104,14.044h1.127l0.939-3.105h5.848l0.939,3.105h1.234l-4.186-14.044H133.685z
			 M131.834,87.215l2.709-9.076l2.764,9.076H131.834z M165.637,77.077l-4.104,14.044h1.126l0.939-3.105h5.849l0.938,3.105h1.234
			l-4.186-14.044H165.637z M163.785,87.215l2.71-9.076l2.763,9.076H163.785z M21.276,77.938h6.922l-7.271,12.342v0.842h8.45v-0.842
			h-7.163l7.271-12.321v-0.861h-8.21V77.938z M13.013,76.977c-2.87,0-4.051,1.522-4.051,3.546v7.172
			c0,2.023,1.181,3.546,4.051,3.546c2.871,0,4.051-1.522,4.051-3.546v-1.602h-1.181v1.662c0,1.503-0.777,2.624-2.844,2.624
			s-2.844-1.122-2.844-2.624v-7.292c0-1.504,0.778-2.646,2.844-2.646c2.065,0,2.844,1.142,2.844,2.646v1.22h1.181v-1.161
			C17.064,78.499,15.884,76.977,13.013,76.977z M156.407,91.121h1.235V77.097h-1.235V91.121z M48.91,76.977
			c-2.87,0-4.052,1.522-4.052,3.546v7.172c0,2.023,1.181,3.546,4.052,3.546s4.051-1.522,4.051-3.546v-1.602H51.78v1.662
			c0,1.503-0.777,2.624-2.845,2.624c-2.065,0-2.843-1.122-2.843-2.624v-7.292c0-1.504,0.778-2.646,2.843-2.646
			c2.068,0,2.845,1.142,2.845,2.646v1.22h1.181v-1.161C52.96,78.499,51.78,76.977,48.91,76.977z M73.51,76.977
			c-2.844,0-4.105,1.503-4.105,3.546v7.172c0,2.044,1.262,3.547,4.105,3.547c2.897,0,4.159-1.503,4.159-3.547v-7.172
			C77.668,78.479,76.407,76.977,73.51,76.977z M76.434,87.755c0,1.522-0.833,2.645-2.924,2.645c-2.066,0-2.871-1.122-2.871-2.645
			v-7.292c0-1.522,0.806-2.645,2.871-2.645c2.092,0,2.924,1.122,2.924,2.645V87.755z M108.682,76.977
			c-2.845,0-4.105,1.503-4.105,3.546v7.172c0,2.044,1.261,3.547,4.105,3.547c2.896,0,4.157-1.503,4.157-3.547v-7.172
			C112.839,78.479,111.578,76.977,108.682,76.977z M111.605,87.755c0,1.522-0.832,2.645-2.924,2.645
			c-2.066,0-2.871-1.122-2.871-2.645v-7.292c0-1.522,0.805-2.645,2.871-2.645c2.092,0,2.924,1.122,2.924,2.645V87.755z
			 M64.066,83.688h-5.848v-6.591h-1.235v14.024h1.235v-6.592h5.848v6.592h1.261V77.097h-1.261V83.688z M94.892,77.097h-1.234v14.024
			h7.137v-0.842h-5.902V77.097z M33.509,91.122h7.405V90.28h-6.171V84.43h5.125v-0.841h-5.125v-5.65h6.171v-0.842h-7.405V91.122z
			 M82.874,80.402c0-1.483,0.75-2.584,2.79-2.584c2.038,0,2.79,1.122,2.79,2.604v0.359h1.18v-0.3c0-2.023-1.155-3.506-3.998-3.506
			c-2.762,0.02-3.998,1.383-3.998,3.486c0,3.906,6.788,3.967,6.788,7.332c0,1.503-0.777,2.586-2.843,2.586s-2.844-1.083-2.844-2.586
			v-0.781h-1.181v0.722c0,2.022,1.181,3.506,4.051,3.506c2.871,0,4.052-1.483,4.052-3.506
			C89.661,83.869,82.874,83.808,82.874,80.402z"/>
	</g>
</g>
</svg>
