<?xml version="1.0" encoding="utf-8"?>
<!-- Generator: Adobe Illustrator 16.0.0, SVG Export Plug-In . SVG Version: 6.00 Build 0)  -->
<!DOCTYPE svg PUBLIC "-//W3C//DTD SVG 1.1//EN" "http://www.w3.org/Graphics/SVG/1.1/DTD/svg11.dtd">
<svg version="1.1" id="Vrstva_1" xmlns="http://www.w3.org/2000/svg" xmlns:xlink="http://www.w3.org/1999/xlink" x="0px" y="0px"
	 width="176.783px" height="258.842px" viewBox="0 0 176.783 258.842" enable-background="new 0 0 176.783 258.842"
	 xml:space="preserve">
<g>
	<defs>
		<path id="SVGID_1_" d="M58.331,98.609c0,16.439,13.326,29.764,29.764,29.764s29.764-13.325,29.764-29.764
			c0-16.437-13.326-29.764-29.764-29.764S58.331,82.172,58.331,98.609"/>
	</defs>
	<clipPath id="SVGID_2_">
		<use xlink:href="#SVGID_1_"  overflow="visible"/>
	</clipPath>
	
		<radialGradient id="SVGID_3_" cx="1.895" cy="586.4409" r="1.0002" gradientTransform="matrix(13.4145 -26.2142 26.2142 13.4145 -15310.7744 -7718.3257)" gradientUnits="userSpaceOnUse">
		<stop  offset="0" style="stop-color:#FFE200"/>
		<stop  offset="0.0165" style="stop-color:#FFE200"/>
		<stop  offset="0.2825" style="stop-color:#FFD600"/>
		<stop  offset="0.5385" style="stop-color:#FFCC00"/>
		<stop  offset="0.8626" style="stop-color:#F0C100"/>
		<stop  offset="1" style="stop-color:#E5B900"/>
	</radialGradient>
	<polygon clip-path="url(#SVGID_2_)" fill="url(#SVGID_3_)" points="105.505,152.513 142,81.198 70.684,44.705 34.19,116.02 	"/>
</g>
<g>
	<defs>
		<path id="SVGID_4_" d="M103.953,123.75c2.357,3.836,5.188,8.78,5.997,12.107c0.733,3.011,1.431,7.158,1.864,11.127
			c2.149,2.216,5.258,5.291,7.462,6.901c3.685,2.691,6.662,4.394,8.787,3.969c0.406-0.081,0.815-0.299,1.218-0.564
			c-0.242,0.094-0.367,0.139-0.367,0.139s1.417-0.852,1.417-2.551c0-1.701,0.496-2.196-1.488-10.347
			c-1.984-8.149-4.111-13.252-4.464-20.41c-0.052-1.051-0.095-2.258-0.125-3.546c-2.34-1.017-6.155-2.688-7.955-3.541
			c-1.432-0.678-2.652-1.351-3.491-1.837C110.494,118.637,107.464,121.54,103.953,123.75 M51.841,120.646
			c-0.294,3.853-0.758,7.698-1.588,10.732c-1.474,5.386-3.515,11.849-4.139,15.42s-1.304,6.747-0.737,8.106
			c0.354,0.851,0.996,1.436,1.427,1.754c2.351,0.695,4.777-0.319,6.85-1.356c2.268-1.134,7.795-5.952,8.645-6.944
			c0.46-0.537,1.7-1.934,2.748-3.113c0.227-1.275,0.508-2.671,0.852-4.229c1.611-7.27,4.186-12.601,6.788-16.983
			c-3.739-2.266-6.949-5.311-9.371-8.944L51.841,120.646z M140.111,90.672c-10.772,2.976-17.575,4.678-21.402,5.528
			c-0.354,0.078-0.656,0.149-0.961,0.221c0.054,0.725,0.111,1.449,0.111,2.188c0,5.799-1.685,11.193-4.553,15.768
			c1.359,0.574,3.454,1.423,5.119,1.949c2.027,0.64,3.814,1.12,5.782,1.498c-0.062-7.095,0.271-15.575,1.518-18.081
			c1.657-3.33,4.11-6.023,7.795-6.094c3.686-0.072,11.268,2.551,16.512,5.952c5.244,3.402,10.133,8.93,11.906,13.961
			c0.3,0.853,0.535,1.679,0.742,2.488c1.449-0.585,3.198-1.538,4.36-2.7c0.93-0.931,2.022-2.415,2.898-3.961
			c0.02-0.524,0.209-1.879-0.007-3.976c-0.226-2.212-2.835-6.35-4.819-8.958c-1.9-2.497-5.66-7.635-8.415-11.85
			C154.598,85.531,148.654,88.313,140.111,90.672 M17.541,86.137c-1.021,1.417-2.401,3.175-4.932,5.953
			c-2.532,2.778-5.103,6.803-6.633,10.374c-1.531,3.572,0,6.576,0,6.576s-0.006,0.001-0.015-0.003
			c1.277,2.417,2.683,3.238,4.04,4.17c1.907,1.312,3.414,2.011,4.94,2.541c1.415-4.261,4.842-9.304,6.908-11.583
			c2.211-2.437,7.824-6.236,11.679-7.88s9.298-2.891,11.112-2.381c1.814,0.51,4.536,1.7,5.84,4.705
			c1.303,3.006,2.04,7.427,1.813,13.437c-0.064,1.697-0.14,3.553-0.245,5.456c1.772-0.402,3.145-0.779,3.874-1.035
			c1.87-0.654,4.876-1.8,6.71-2.505c-2.712-4.487-4.301-9.728-4.301-15.353c0-0.687,0.057-1.36,0.103-2.035
			c-2.476-0.569-9.278-2.225-13.851-3.067c-5.386-0.992-13.323-3.826-18.567-5.527c-3.19-1.036-5.788-2.483-7.345-3.464
			C18.306,85.052,17.906,85.63,17.541,86.137 M134.191,46.594c-4.71,6.803-9.954,12.897-15.482,19.417
			c-3.826,4.513-7.581,9.157-9.532,11.592c4.584,4.599,7.653,10.695,8.455,17.487c1.045-0.286,2.588-0.743,4.62-1.442
			c4.11-1.417,8.788-3.259,15.874-8.078c4.352-2.959,9.286-6.877,13.041-10.053c-1.19-2.056-2.182-3.825-2.666-4.744
			c-1.134-2.154-2.721-5.783-1.701-9.468c1.021-3.684,6.35-5.612,11.169-6.066c4.819-0.453,6.661,0.851,6.661,0.851
			s0.412,0.218,1.366,0.643c0.343-0.717,0.557-1.285,0.557-1.589c0-1.214-0.153-2.937-0.486-4.727
			c-0.239-0.455-0.593-0.955-1.125-1.47c-1.927-1.872-8.333-6.066-13.663-9.185c-2.947-1.724-6.705-3.777-9.767-5.728
			C140.872,35.384,138.258,40.72,134.191,46.594 M24.911,38.741c0,0-2.382,1.191-5.499,2.779c-3.119,1.587-6.463,3.401-8.278,5.159
			c-1.814,1.757-2.097,5.555-2.097,5.555s-0.17-1.076,0-2.891c0.033-0.354,0.182-0.953,0.432-1.724
			c-0.656,1.798-0.882,3.38-0.035,6.77c0.316,1.264,0.938,2.468,1.714,3.588c1.873-1.131,3.988-1.934,6.223-2.227
			c5.612-0.738,10.488,1.871,12.245,4.762c1.758,2.891-0.283,7.88-2.551,11.565c-0.455,0.739-1.019,1.614-1.628,2.535
			c1.398,1.23,8.18,7.172,11.351,9.428c3.543,2.522,11.578,7.199,16.016,8.9c2.608,0.999,4.576,1.648,5.773,2.02
			c0.818-6.673,3.828-12.664,8.309-17.218c-1.746-2.009-4.996-5.749-9.689-11.165c-7.37-8.503-14.031-17.149-17.574-23.385
			c-3.543-6.236-4.536-8.504-4.819-9.496c-0.002-0.008-0.004-0.017-0.007-0.025C30.925,35.791,24.911,38.741,24.911,38.741
			 M129.529,12.607c-0.319-0.654-0.722-1.021-1.129-1.316C128.902,11.795,129.276,12.251,129.529,12.607 M81.49,3.308
			c-0.794,0.681-3.968,3.392-6.349,5.159c-2.382,1.769-5.273,1.985-9.752,1.985c-4.478,0-14.966-0.567-16.497-0.567
			c-1.531,0-2.608,1.814-2.608,1.814s0.291-1.142,3.344-3.303c-0.256,0.122-0.487,0.241-0.651,0.355
			c-1.843,1.276-3.769,2.126-2.918,6.803c0.851,4.677,2.209,11.579,5.328,21.097c3.118,9.517,7.511,22.132,10.204,28.084
			c1.869,4.13,4.893,8.937,6.714,11.686c5.202-4.642,12.025-7.497,19.53-7.562c-0.119-1.235-0.27-2.91-0.449-5.116
			c-0.425-5.244-1.275-11.507-2.551-20.268c-1.276-8.759-1.984-13.122-2.551-19.842c-0.567-6.72-1.134-12.047-0.708-15.166
			c0.357-2.622,1.404-5.064,1.139-6.085C82.588,2.723,82.251,2.657,81.49,3.308 M94.756,3.507
			c0.426,2.267,0.347,11.622-0.283,17.433c-0.63,5.811-2.41,17.717-3.827,27.213c-1.417,9.496-1.984,17.008-2.267,19.984
			c-0.025,0.257-0.04,0.486-0.057,0.72c7.545,0.057,14.402,2.935,19.617,7.614c1.166-1.807,3.018-4.772,4.534-7.626
			c2.409-4.535,5.952-12.472,9.213-21.826c3.26-9.355,6.236-17.575,7.087-22.961c0.849-5.386,1.643-7.2,1.246-9.779
			c-0.081-0.527-0.198-0.937-0.332-1.294c-0.452-0.515-1.338-1.34-2.502-1.456c-1.701-0.17-7.938-0.397-11.793-0.51
			c-3.854-0.114-6.973-0.284-10.034-1.134c-3.062-0.851-7.2-4.762-9.468-6.973c-1.131-1.103-1.641-1.755-1.868-2.13
			C94.202,1.231,94.492,2.093,94.756,3.507 M93.85,0.401c-0.002-0.005-0.001-0.006-0.001-0.011l-0.006-0.001
			C93.843,0.389,93.848,0.399,93.85,0.401"/>
	</defs>
	<clipPath id="SVGID_5_">
		<use xlink:href="#SVGID_4_"  overflow="visible"/>
	</clipPath>
	
		<radialGradient id="SVGID_6_" cx="-2.4917" cy="593.2388" r="1" gradientTransform="matrix(82.3691 0 0 82.3691 292.875 -48785.3086)" gradientUnits="userSpaceOnUse">
		<stop  offset="0" style="stop-color:#F6F6F6"/>
		<stop  offset="0.0095" style="stop-color:#F6F6F6"/>
		<stop  offset="0.011" style="stop-color:#F6F6F6"/>
		<stop  offset="0.3939" style="stop-color:#F5F5F5"/>
		<stop  offset="0.5318" style="stop-color:#F0F0F0"/>
		<stop  offset="0.6301" style="stop-color:#E7E7E7"/>
		<stop  offset="0.7095" style="stop-color:#DBDBDB"/>
		<stop  offset="0.7776" style="stop-color:#CACAC9"/>
		<stop  offset="0.8379" style="stop-color:#B5B4B4"/>
		<stop  offset="0.8924" style="stop-color:#9A9999"/>
		<stop  offset="0.9409" style="stop-color:#7A7979"/>
		<stop  offset="0.9503" style="stop-color:#727271"/>
		<stop  offset="1" style="stop-color:#3F3F3E"/>
	</radialGradient>
	<rect x="4.445" y="0.389" clip-path="url(#SVGID_5_)" fill="url(#SVGID_6_)" width="165.702" height="157.89"/>
</g>
<g>
	<defs>
		<path id="SVGID_7_" d="M85.176,110.288c-3.459,1.134-8.221,6.916-11.226,11.679c-3.004,4.762-6.179,10.601-8.051,19.049
			c-1.87,8.447-1.87,12.132-1.473,17.802c0.397,5.669,1.473,5.499,1.473,5.499s9.865,4.167,22.111,4.167
			c12.245,0,22.677-4.166,22.677-4.166s0.737-1.589,1.134-3.177c0.397-1.587,0.624-4.591,0.368-9.637
			c-0.255-5.046-1.218-11.452-2.239-15.647c-1.021-4.196-5.272-10.999-7.71-14.854c-2.437-3.855-6.123-8.107-8.391-9.638
			c-1.488-1.004-3.268-1.642-5.293-1.642C87.494,109.723,86.365,109.898,85.176,110.288 M169.761,109.948
			c0,0,0.111-0.015,0.151-0.269C169.818,109.849,169.761,109.948,169.761,109.948 M33.528,96.285
			c-3.855,1.644-9.468,5.443-11.679,7.88c-2.21,2.438-6.009,8.051-7.2,12.472c-1.19,4.423-1.076,7.201-0.509,8.788
			c0.566,1.588,3.401,6.746,3.401,6.746s0.964,2.154,3.515,5.896c2.551,3.742,9.127,9.979,15.873,14.061
			c6.747,4.082,10.319,4.819,10.319,4.819s-1.304-0.681-1.871-2.042c-0.567-1.359,0.113-4.535,0.737-8.106s2.665-10.034,4.139-15.42
			c1.473-5.386,1.813-13.323,2.04-19.333c0.227-6.01-0.51-10.431-1.813-13.437c-1.304-3.005-4.026-4.195-5.84-4.705
			c-0.28-0.079-0.647-0.115-1.081-0.115C41.183,93.789,36.788,94.895,33.528,96.285 M133.52,93.649
			c-3.685,0.071-6.138,2.764-7.795,6.094c-1.658,3.331-1.701,17.221-1.346,24.378c0.353,7.158,2.48,12.26,4.464,20.41
			c1.984,8.15,1.488,8.646,1.488,10.347c0,1.699-1.417,2.551-1.417,2.551s0.992-0.354,3.26-1.346
			c2.268-0.992,14.102-7.725,20.764-15.237c6.66-7.511,9.567-14.669,10.205-16.227c0.637-1.56,0.566-6.024-1.205-11.056
			c-1.773-5.031-6.662-10.559-11.906-13.961c-5.174-3.356-12.626-5.954-16.363-5.954C133.619,93.647,133.569,93.648,133.52,93.649
			 M17.371,55.75c-5.613,0.737-10.545,4.591-12.473,9.184c-1.927,4.592-4.365,10.771-4.762,16.384
			C-0.26,86.931,0.192,92.09,1.78,97.419c1.587,5.329,3.232,9.978,3.685,10.829c0.454,0.85,0.511,0.792,0.511,0.792
			s-1.531-3.004,0-6.576c1.53-3.571,4.101-7.596,6.633-10.374c2.531-2.778,3.911-4.536,4.932-5.953
			c1.02-1.417,2.324-3.402,2.324-3.402s4.932-6.973,7.2-10.658s4.309-8.674,2.551-11.565c-1.552-2.555-5.54-4.889-10.32-4.889
			C18.667,55.623,18.023,55.664,17.371,55.75 M157.969,55.239c-4.819,0.454-10.148,2.382-11.169,6.066
			c-1.02,3.686,0.567,7.314,1.701,9.468c1.134,2.154,5.046,8.959,7.824,13.267c2.778,4.308,6.803,9.808,8.787,12.415
			c1.984,2.608,4.593,6.746,4.819,8.958c0.227,2.211,0,3.627,0,4.081c0,0.08-0.01,0.131-0.019,0.185
			c0.572-1.027,2.682-4.98,4.044-9.652c1.588-5.442,3.119-12.512,2.778-17.481c-0.34-4.97-1.02-9.052-2.097-13.02
			c-1.078-3.968-2.551-7.143-4.195-9.128c-1.645-1.984-3.346-3.174-4.366-3.628c-1.021-0.453-1.446-0.68-1.446-0.68
			s-1.336-0.947-4.712-0.947C159.331,55.144,158.683,55.172,157.969,55.239 M166.529,52.518c0,0,0.057-0.341-0.034-0.87
			C166.524,52.16,166.529,52.518,166.529,52.518 M30.977,21.451c-3.231,2.04-9.015,5.329-13.833,11.678
			c-4.819,6.349-7.937,14.4-8.107,16.214c-0.17,1.815,0,2.891,0,2.891s0.283-3.798,2.097-5.555c1.815-1.758,5.159-3.572,8.278-5.159
			c3.117-1.588,5.499-2.779,5.499-2.779s8.901-4.365,12.018-6.292c3.119-1.928,5.784-4.819,5.67-7.767
			c-0.113-2.948-1.701-6.18-3.685-6.463c-0.165-0.024-0.334-0.035-0.509-0.035C36.474,18.184,33.94,19.579,30.977,21.451
			 M138.637,16.915c-1.078,0.056-3.855,2.778-4.309,5.84c-0.453,3.061,0.227,4.251,1.927,6.973
			c1.701,2.721,9.695,6.916,15.024,10.034c5.33,3.119,11.736,7.313,13.664,9.185c1.079,1.047,1.437,2.029,1.552,2.701
			c-0.029-0.553-0.086-1.288-0.192-1.964c-0.204-1.305-1.474-5.16-4.082-10.602c-2.608-5.443-6.236-9.808-8.788-12.586
			c-2.551-2.778-8.22-6.916-9.694-7.767c-1.434-0.828-3.89-1.817-5.013-1.817C138.695,16.912,138.665,16.913,138.637,16.915
			 M70.889,1.437c0,0-4.536,0.284-8.844,1.588c-4.309,1.304-8.448,2.665-11.962,5.046c-3.515,2.381-3.799,3.628-3.799,3.628
			s1.077-1.814,2.608-1.814c1.531,0,12.019,0.567,16.497,0.567c4.479,0,7.37-0.216,9.752-1.985c2.381-1.767,5.555-4.478,6.349-5.159
			c0.794-0.68,1.134-0.567,1.248-0.964c0.113-0.396,0-0.566,0-0.566s-2.779-0.341-6.293-0.341H70.889z M93.849,0.304
			c0,0-0.227,0.397,2.041,2.608s6.406,6.122,9.468,6.973c3.061,0.85,6.18,1.02,10.034,1.134c3.856,0.113,10.092,0.34,11.793,0.51
			c1.701,0.17,2.834,1.871,2.834,1.871s-1.021-2.211-4.365-4.252c-3.345-2.041-5.499-3.401-7.427-4.365
			c-1.928-0.964-5.782-2.268-5.782-2.268c-2.779-0.908-8.561-2.381-12.813-2.494C99.101,0.007,98.612,0,98.163,0
			C95.021,0,93.849,0.304,93.849,0.304"/>
	</defs>
	<clipPath id="SVGID_8_">
		<use xlink:href="#SVGID_7_"  overflow="visible"/>
	</clipPath>
	
		<radialGradient id="SVGID_9_" cx="-2.3223" cy="593.3755" r="0.9997" gradientTransform="matrix(88.3908 0 0 88.3908 293.6875 -52364.6953)" gradientUnits="userSpaceOnUse">
		<stop  offset="0" style="stop-color:#00849E"/>
		<stop  offset="0.7127" style="stop-color:#00A0BC"/>
		<stop  offset="0.7471" style="stop-color:#009CB8"/>
		<stop  offset="0.7953" style="stop-color:#0094AE"/>
		<stop  offset="0.8516" style="stop-color:#00859C"/>
		<stop  offset="0.9142" style="stop-color:#006F82"/>
		<stop  offset="0.9811" style="stop-color:#00515F"/>
		<stop  offset="1" style="stop-color:#004753"/>
	</radialGradient>
	<rect x="-0.26" clip-path="url(#SVGID_8_)" fill="url(#SVGID_9_)" width="177.335" height="168.484"/>
</g>
<g>
	<g>
		<defs>
			<rect id="SVGID_10_" x="54.217" y="64.757" width="67.756" height="62.996"/>
		</defs>
		<clipPath id="SVGID_11_">
			<use xlink:href="#SVGID_10_"  overflow="visible"/>
		</clipPath>
		<g clip-path="url(#SVGID_11_)">
			<defs>
				<path id="SVGID_12_" d="M107.94,76.471c-5.216-4.678-12.073-7.557-19.618-7.614c0.017-0.234,0.032-0.463,0.057-0.72
					c0.057-0.608,0.128-1.415,0.215-2.38c8.044,0.121,15.374,3.131,21.027,8.039C108.994,74.819,108.41,75.742,107.94,76.471
					 M109.177,77.603c0.529-0.66,1.199-1.492,1.958-2.43c5.073,4.987,8.508,11.61,9.506,19.012
					c-1.251,0.405-2.263,0.701-3.009,0.904C116.831,88.298,113.761,82.202,109.177,77.603 M105.558,126.431
					c-0.54-0.927-1.084-1.833-1.605-2.681c3.512-2.211,6.541-5.113,8.855-8.553c0.688,0.399,1.64,0.923,2.746,1.472
					C112.963,120.6,109.546,123.922,105.558,126.431 M118.709,96.2c0.617-0.137,1.342-0.305,2.117-0.488
					c0.084,0.956,0.147,1.919,0.147,2.897c0,6.206-1.751,11.989-4.74,16.941c-1.071-0.406-2.127-0.835-2.927-1.173
					c2.868-4.575,4.553-9.969,4.553-15.768c0-0.738-0.058-1.463-0.111-2.188C118.053,96.35,118.356,96.279,118.709,96.2
					 M66.598,73.77c5.638-4.884,12.943-7.881,20.957-8.011c0.107,1.239,0.201,2.278,0.28,3.1c-7.505,0.065-14.328,2.92-19.529,7.562
					C67.811,75.674,67.223,74.766,66.598,73.77 M55.584,93.96c1.023-7.206,4.344-13.671,9.248-18.582
					c0.82,0.944,1.517,1.746,2.054,2.364c-4.481,4.554-7.491,10.545-8.308,17.218C57.858,94.737,56.83,94.399,55.584,93.96
					 M55.217,98.609c0-0.93,0.064-1.845,0.14-2.756c1.279,0.299,2.362,0.556,3.077,0.72c-0.046,0.676-0.103,1.349-0.103,2.036
					c0,5.625,1.589,10.866,4.301,15.353c-0.819,0.315-1.874,0.718-2.956,1.126C56.858,110.239,55.217,104.622,55.217,98.609
					 M60.504,116.451l2.813-1.362c2.42,3.633,5.631,6.679,9.37,8.944c-0.512,0.863-1.021,1.776-1.524,2.72
					C66.874,124.167,63.223,120.648,60.504,116.451"/>
			</defs>
			<clipPath id="SVGID_13_">
				<use xlink:href="#SVGID_12_"  overflow="visible"/>
			</clipPath>
		</g>
	</g>
</g>
<path fill="#FFFFFF" d="M169.552,197.232c2.608,0,3.082,6.756,3.082,9.542c0,1.363-0.474,1.718-1.067,1.955
	c-0.889,0.297-3.911,0.652-6.341,0.415c0.237-7.289,1.956-11.912,4.267-11.912H169.552z M176.783,208.077
	c0-5.984-2.193-11.911-6.697-11.911c-6.341,0-9.186,9.363-9.186,15.823c0,8.061,2.726,12.09,7.941,12.09
	c1.423,0,2.489-0.236,3.141-0.533c1.423-0.533,3.615-1.837,4.623-2.607c0.118-0.06,0.178-0.178,0.178-0.297
	c0-0.237-0.237-0.652-0.356-0.592c-1.185,0.77-2.252,1.362-3.2,1.718c-0.593,0.237-1.541,0.475-2.667,0.475
	c-3.141,0-4.86-3.556-5.215-8.356c-0.06-0.889-0.119-2.607-0.119-3.793c2.726,0.178,8.949,0.119,10.431-0.355
	c0.652-0.119,1.126-0.593,1.126-1.6V208.077z M148.395,184.49c-0.177,0-0.177,0.06-0.177,0.179c0,0.296,0.118,0.532,0.355,0.532
	l2.252,0.119c0.356,0,0.534,0.415,0.534,0.83c0.059,2.785,0.237,13.749,0.237,17.423c0,3.378,0.118,17.603,0.118,18.372
	c0,0.356-0.178,0.534-0.474,0.652l-1.956,0.534c-0.177,0.059-0.237,0.296-0.237,0.474c0,0.06,0.06,0.118,0.119,0.118
	c1.185-0.059,2.252-0.118,4.208-0.118c1.718,0,2.726,0.06,4.326,0.118c0.118,0,0.118-0.059,0.118-0.118
	c0-0.237-0.118-0.415-0.237-0.474l-2.015-0.594c-0.415-0.118-0.533-0.296-0.533-0.593c0-0.592,0.296-14.52,0.356-18.312
	c0.059-6.224,0.533-19.024,0.533-19.559c0-0.354-0.059-0.532-0.415-0.474L148.395,184.49z M137.255,197.647
	c-0.06,0-0.119,0.06-0.119,0.178c0,0.237,0.237,0.593,0.415,0.593l2.193,0.06c0.414,0,0.414,0.296,0.414,0.651
	c0.06,1.838,0.238,7.764,0.297,11.142c0.059,3.853,0.178,11.201,0.178,11.675c0,0.297-0.178,0.415-0.534,0.534l-1.956,0.592
	c-0.237,0.061-0.296,0.297-0.296,0.534c0,0.06,0,0.118,0.119,0.118c0.829-0.059,2.43-0.118,4.207-0.118
	c1.719,0,3.319,0.06,4.386,0.118c0.059,0,0.119,0,0.119-0.118c0-0.178-0.119-0.474-0.238-0.534l-1.896-0.474
	c-0.415-0.118-0.593-0.237-0.593-0.652c0-1.6,0.178-8.889,0.237-11.141c0.06-3.734,0.475-13.691,0.475-14.165
	c0-0.296-0.119-0.533-0.475-0.474L137.255,197.647z M141.996,187.928c-1.541,0-2.549,1.065-2.549,2.311
	c0,1.305,1.304,2.193,2.549,2.193c1.244,0,2.37-1.008,2.37-2.313c0-1.243-0.889-2.191-2.311-2.191H141.996z M133.284,222.538
	c-0.415-0.118-0.533-0.236-0.533-1.066c0-0.771,0.533-8.593,0.533-12.92c0-7.526-1.245-12.386-4.682-12.386
	c-4.504,0-7.052,7.822-8.001,11.675c-0.059,0.355-0.237,1.066-0.355,1.719h-0.237v-1.778c0-6.756-1.126-11.615-4.445-11.615
	c-4.682,0-7.29,8.89-8.297,12.979c-0.119,0.474-0.296,1.185-0.415,1.719l-0.237-0.059c0-0.593,0-1.187,0.059-1.719
	c0.178-3.378,0.652-12.091,0.652-12.505c0-0.297-0.118-0.415-0.474-0.355l-6.578,1.363c-0.178,0-0.178,0.059-0.178,0.177
	c0,0.297,0.118,0.593,0.356,0.593h1.955c0.356,0,0.415,0.356,0.474,0.771c0.06,1.659,0.178,7.23,0.178,10.193
	c0.059,3.675,0.178,10.964,0.178,12.623c0,0.356-0.119,0.534-0.415,0.652l-1.719,0.474c-0.177,0.061-0.237,0.297-0.237,0.475
	c0,0.119,0,0.178,0.119,0.178c1.067-0.059,2.133-0.118,3.852-0.118c1.6,0,2.667,0.06,4.149,0.118c0.118,0,0.118-0.059,0.118-0.118
	c0-0.178-0.059-0.415-0.237-0.474l-1.837-0.534c-0.296-0.118-0.534-0.296-0.534-0.711c0-1.186,0.178-4.741,0.415-6.697
	c0.83-5.986,3.497-15.586,6.519-15.586c2.371,0,3.082,5.215,3.082,12.504c0,2.313,0,8.534-0.059,9.602
	c-0.059,0.651-0.119,0.771-0.593,0.889l-1.541,0.534c-0.177,0.059-0.237,0.296-0.237,0.474c0,0.06,0,0.118,0.119,0.118
	c0.889-0.059,2.133-0.118,4.089-0.118c1.659,0,2.845,0.06,4.089,0.118c0.06,0,0.119,0,0.119-0.118c0-0.237-0.119-0.415-0.296-0.474
	l-1.838-0.534c-0.474-0.178-0.592-0.296-0.592-0.889c0-0.771,0.118-4.505,0.415-7.053c0.829-6.993,3.437-15.053,6.519-15.053
	c2.192,0,2.963,5.156,2.963,12.504c0,2.313-0.059,8.357-0.178,9.542c-0.119,0.652-0.237,0.771-0.533,0.889l-1.541,0.594
	c-0.178,0.059-0.237,0.354-0.237,0.474c0,0.06,0,0.118,0.118,0.118c1.067-0.059,2.193-0.118,3.971-0.118
	c1.6,0,2.726,0.06,3.852,0.118c0.119,0,0.119-0.059,0.119-0.118c0-0.178-0.06-0.415-0.237-0.474L133.284,222.538z M88.48,223.071
	c-2.726,0-4.563-4.622-4.563-11.793c0-6.934,1.185-14.046,4.741-14.046c2.904,0,4.445,4.445,4.445,11.854
	c0,6.814-0.889,13.985-4.564,13.985H88.48z M87.413,224.079c7.231,0,10.075-8.356,10.075-15.823c0-7.23-2.963-12.09-8.119-12.09
	c-6.815,0-9.897,8.237-9.897,15.883c0,7.171,2.845,12.03,7.882,12.03H87.413z M74.435,222.538c-0.415-0.118-0.534-0.236-0.534-1.066
	c0-0.771,0.534-8.593,0.534-12.92c0-7.526-1.245-12.386-4.682-12.386c-4.504,0-7.053,7.822-8.001,11.675
	c-0.059,0.355-0.237,1.066-0.355,1.719H61.16v-1.778c0-6.756-1.126-11.615-4.445-11.615c-4.682,0-7.29,8.89-8.297,12.979
	c-0.119,0.474-0.297,1.185-0.415,1.719l-0.237-0.059c0-0.593,0-1.187,0.059-1.719c0.178-3.378,0.652-12.091,0.652-12.505
	c0-0.297-0.119-0.415-0.474-0.355l-6.578,1.363c-0.178,0-0.178,0.059-0.178,0.177c0,0.297,0.118,0.593,0.355,0.593h1.956
	c0.356,0,0.415,0.356,0.474,0.771c0.059,1.659,0.178,7.23,0.178,10.193c0.059,3.675,0.178,10.964,0.178,12.623
	c0,0.356-0.119,0.534-0.415,0.652l-1.719,0.474c-0.178,0.061-0.237,0.297-0.237,0.475c0,0.119,0,0.178,0.119,0.178
	c1.066-0.059,2.133-0.118,3.852-0.118c1.6,0,2.667,0.06,4.148,0.118c0.119,0,0.119-0.059,0.119-0.118
	c0-0.178-0.059-0.415-0.237-0.474l-1.837-0.534c-0.297-0.118-0.534-0.296-0.534-0.711c0-1.186,0.178-4.741,0.415-6.697
	c0.83-5.986,3.497-15.586,6.519-15.586c2.371,0,3.082,5.215,3.082,12.504c0,2.313,0,8.534-0.059,9.602
	c-0.06,0.651-0.119,0.771-0.593,0.889l-1.541,0.534c-0.178,0.059-0.237,0.296-0.237,0.474c0,0.06,0,0.118,0.119,0.118
	c0.889-0.059,2.133-0.118,4.089-0.118c1.659,0,2.845,0.06,4.089,0.118c0.059,0,0.119,0,0.119-0.118c0-0.237-0.119-0.415-0.297-0.474
	l-1.837-0.534c-0.474-0.178-0.593-0.296-0.593-0.889c0-0.771,0.119-4.505,0.415-7.053c0.83-6.993,3.438-15.053,6.519-15.053
	c2.193,0,2.964,5.156,2.964,12.504c0,2.313-0.06,8.357-0.178,9.542c-0.119,0.652-0.237,0.771-0.534,0.889l-1.54,0.594
	c-0.178,0.059-0.237,0.354-0.237,0.474c0,0.06,0,0.118,0.118,0.118c1.067-0.059,2.193-0.118,3.971-0.118
	c1.6,0,2.726,0.06,3.852,0.118c0.118,0,0.118-0.059,0.118-0.118c0-0.178-0.059-0.415-0.237-0.474L74.435,222.538z M28.15,221.886
	c-1.778,0-2.963-2.252-2.963-6.46c0-4.504,1.363-8.119,3.852-8.119c2.548,0,3.852,2.963,4.148,4.089
	c0.119,0.474,0.237,1.008,0.237,1.304c0,0.356-0.118,0.89-0.177,1.305c-1.126,4.919-2.845,7.882-5.038,7.882H28.15z M33.247,208.966
	c-0.238-0.355-0.475-0.711-0.712-0.948c-0.948-1.067-2.311-1.956-4.326-1.956c-4.741,0-7.171,5.512-7.171,10.253
	c0,4.979,2.43,7.764,5.393,7.764c3.378,0,5.393-3.2,6.401-5.689c0.237-0.533,0.415-1.186,0.652-1.778h0.118
	c0,0.593-0.059,1.423-0.059,1.897c0,1.363,0.059,3.852,0.059,4.8c0,0.237,0.119,0.356,0.296,0.356c0.593-0.06,1.482-0.06,2.549-0.06
	c1.126,0,2.252,0,2.963,0.06c0.119,0,0.178,0,0.178-0.119c0-0.178-0.059-0.414-0.296-0.475l-1.838-0.651
	c-0.474-0.118-0.592-0.237-0.592-0.652c0-1.126,0.177-5.393,0.296-7.467c0.059-1.719,0.178-6.163,0.178-7.23
	c0-5.688-1.186-10.904-5.453-10.904c-3.318,0-6.222,1.659-9.008,6.223c-0.177,0.296,0.297,0.77,0.474,0.77
	c0.06,0,0.119-0.059,0.178-0.117c1.956-2.846,4.089-4.741,5.867-4.741c2.312,0,3.319,2.192,3.734,6.578
	c0.059,0.889,0.237,2.667,0.296,4.029L33.247,208.966z M0,207.544c0,10.904,4.919,16.534,11.379,16.534
	c1.363,0,2.489-0.178,3.2-0.414c1.659-0.594,3.082-1.305,4.386-2.074c0.177-0.061,0.237-0.179,0.237-0.356
	c0-0.355-0.178-0.651-0.237-0.593c-0.949,0.475-2.312,1.008-3.319,1.304c-0.652,0.179-1.837,0.356-2.608,0.356
	c-4.148,0-8.475-4.445-8.475-15.468c0-6.52,1.482-11.734,3.438-14.994c1.541-2.667,3.437-4.149,5.333-4.149
	c0.771,0,1.245,0.238,1.541,0.593c0.237,0.237,0.474,0.594,0.652,1.126c0.771,1.778,1.482,3.734,2.193,5.571
	c0.059,0.06,0.119,0.06,0.178,0.06c0.237,0,0.711-0.237,0.652-0.475l-0.593-6.637c-0.059-0.297-0.118-0.476-0.356-0.534
	c-1.007-0.592-2.133-0.77-3.733-0.77c-3.26,0-6.341,1.718-8.712,4.858C2.134,195.099,0,200.492,0,207.485V207.544z"/>
<path fill="#FFFFFF" d="M116.852,252.62c-0.208-0.089-0.297-0.147-0.267-0.593c0.089-0.741,0.296-4.563,0.296-6.312
	c0-3.822-0.592-6.282-2.4-6.282c-2.133,0-3.615,4.355-4.178,6.52c-0.059,0.207-0.148,0.563-0.207,0.918h-0.119
	c0.03-0.325,0.03-0.77,0.059-1.185c0.06-1.541,0.237-5.927,0.237-6.045c0-0.148-0.059-0.208-0.207-0.178l-3.289,0.711
	c-0.059,0.029-0.089,0.029-0.089,0.089c0,0.147,0.119,0.296,0.207,0.296l0.978,0.03c0.178,0.029,0.208,0.208,0.208,0.385
	c0.029,0.919,0.089,4.06,0.089,5.542c0,1.866,0.029,5.156,0.029,5.807c0,0.149-0.059,0.237-0.207,0.297l-0.919,0.267
	c-0.089,0.029-0.148,0.148-0.148,0.267c0,0.03,0,0.06,0.059,0.06c0.593-0.029,1.156-0.06,1.956-0.06c0.83,0,1.482,0.03,2.193,0.06
	c0.059,0,0.059-0.029,0.059-0.06c0-0.089-0.03-0.207-0.118-0.237l-0.919-0.267c-0.178-0.059-0.296-0.147-0.296-0.354
	c0-0.948,0.118-2.904,0.237-3.615c0.503-2.815,1.955-7.527,3.407-7.527c1.156,0,1.571,2.727,1.571,6.282
	c0,1.156-0.059,4.355-0.119,4.771c-0.059,0.237-0.118,0.386-0.355,0.444l-0.741,0.237c-0.089,0.029-0.119,0.148-0.119,0.267
	c0,0.03,0,0.06,0.06,0.06c0.444-0.029,1.066-0.06,2.015-0.06c0.8,0,1.363,0.03,1.955,0.06c0.06,0,0.06-0.029,0.06-0.06
	c0-0.089-0.03-0.237-0.119-0.267L116.852,252.62z M100.614,258.339c-1.689,0-3.141-0.801-3.141-2.55
	c0-1.539,0.859-2.488,2.015-3.259c0.296-0.208,0.385-0.208,0.652-0.147c2.104,0.474,4,1.185,4,2.993
	c0,1.807-1.718,2.963-3.496,2.963H100.614z M100.762,248.234c-1.155,0-2.044-1.48-2.044-3.763c0-2.371,0.652-4.563,2.044-4.563
	c1.334,0,1.986,1.837,1.986,4.06c0,3.141-0.8,4.267-1.956,4.267H100.762z M96.614,244.827c0,2.104,1.392,3.556,2.993,3.911
	c-0.682,0.326-1.334,0.652-2.312,1.097c-0.207,0.118-0.296,0.207-0.296,0.444c0,0.711,0.178,0.918,0.474,1.097
	c0.385,0.207,1.067,0.474,1.748,0.682c-3.23,2.044-3.881,2.578-3.881,3.94c0,1.748,1.866,2.845,4.681,2.845
	c3.379,0,6.223-1.837,6.223-4.207c0-2.104-1.985-2.639-4.504-3.23c-1.689-0.385-2.993-0.682-2.993-1.215
	c0-0.385,0.356-0.622,1.245-1.067c0.533-0.267,0.948-0.415,1.393-0.532c1.777-0.475,3.526-2.016,3.526-4.919
	c0-1.156-0.356-2.46-1.097-3.289l2.163-0.356c0.089-0.03,0.149-0.207,0.149-0.326c0-0.059-0.03-0.059-0.089-0.059l-2.489,0.029
	c-0.267,0-0.474,0-0.712-0.06c-0.444-0.089-1.037-0.178-1.748-0.178c-2.756,0-4.474,2.549-4.474,5.364V244.827z M90.214,240.174
	c-0.03,0-0.06,0.029-0.06,0.089c0,0.119,0.119,0.296,0.208,0.296l1.096,0.03c0.208,0,0.208,0.147,0.208,0.325
	c0.029,0.92,0.118,3.883,0.148,5.571c0.029,1.926,0.089,5.601,0.089,5.837c0,0.149-0.089,0.208-0.267,0.268l-0.978,0.296
	c-0.118,0.029-0.148,0.148-0.148,0.267c0,0.03,0,0.06,0.059,0.06c0.415-0.029,1.215-0.06,2.104-0.06c0.859,0,1.659,0.03,2.193,0.06
	c0.03,0,0.059,0,0.059-0.06c0-0.089-0.059-0.237-0.118-0.267l-0.949-0.237c-0.207-0.059-0.296-0.118-0.296-0.326
	c0-0.8,0.089-4.443,0.119-5.569c0.029-1.867,0.237-6.846,0.237-7.083c0-0.148-0.06-0.267-0.237-0.237L90.214,240.174z
	 M92.584,235.315c-0.77,0-1.274,0.533-1.274,1.155c0,0.651,0.652,1.097,1.274,1.097s1.185-0.504,1.185-1.156
	c0-0.622-0.444-1.096-1.155-1.096H92.584z M82.45,243.375c0,1.422,0.711,2.459,2.489,3.614c1.778,1.155,2.43,2.133,2.43,3.318
	c0,1.688-1.274,2.519-2.785,2.519c-0.267,0-0.593-0.117-0.771-0.267c-0.118-0.088-0.237-0.177-0.355-0.355
	c-0.326-0.622-0.623-1.304-0.919-1.926c-0.03-0.059-0.03-0.059-0.059-0.059c-0.119,0-0.356,0.147-0.356,0.266l0.237,2.489
	c0,0.119,0.089,0.178,0.178,0.208c0.356,0.118,1.008,0.207,1.452,0.207c3.289,0,4.978-1.956,4.978-4c0-1.689-0.948-2.845-2.696-4.03
	c-1.512-1.037-2.045-1.778-2.045-2.993c0-1.126,0.652-2.341,2.015-2.341c0.326,0,0.652,0.06,0.83,0.237
	c0.148,0.119,0.207,0.208,0.326,0.415c0.326,0.622,0.592,1.215,0.859,1.808c0.03,0.088,0.059,0.088,0.089,0.088
	c0.118,0,0.326-0.118,0.326-0.266l-0.208-2.46c0-0.089-0.029-0.148-0.088-0.178c-0.326-0.148-0.771-0.237-1.571-0.237
	c-2.548,0-4.356,1.986-4.356,3.912V243.375z M76.909,239.967c1.304,0,1.541,3.378,1.541,4.771c0,0.682-0.237,0.859-0.533,0.978
	c-0.444,0.148-1.956,0.325-3.171,0.208c0.119-3.646,0.978-5.956,2.134-5.956H76.909z M80.525,245.39
	c0-2.993-1.097-5.957-3.349-5.957c-3.17,0-4.593,4.682-4.593,7.912c0,4.03,1.363,6.045,3.971,6.045c0.711,0,1.244-0.118,1.57-0.267
	c0.712-0.267,1.808-0.919,2.312-1.304c0.059-0.03,0.089-0.089,0.089-0.147c0-0.119-0.119-0.326-0.178-0.297
	c-0.593,0.385-1.126,0.682-1.6,0.859c-0.297,0.118-0.771,0.237-1.334,0.237c-1.57,0-2.43-1.778-2.607-4.179
	c-0.03-0.444-0.06-1.304-0.06-1.896c1.363,0.089,4.475,0.059,5.216-0.178c0.326-0.06,0.563-0.296,0.563-0.8V245.39z M63.309,252.738
	c-0.563,0-0.771-0.147-0.771-0.415c0-0.533,0.208-14.49,0.415-16.594c0.03-0.414,0.296-0.533,0.859-0.533
	c2.578,0,4.623,3.023,4.623,8.18c0,6.519-2.548,9.362-5.097,9.362H63.309z M60.138,235.522c0.296,0.03,0.385,0.148,0.385,0.474
	c0,0.622,0.089,6.431,0.089,7.557s0.089,7.586,0.059,8.563c0,0.326-0.059,0.444-0.266,0.475l-1.008,0.267
	c-0.089,0.029-0.148,0.178-0.148,0.267c0,0.06,0,0.089,0.089,0.089c0.504-0.029,1.393-0.06,1.956-0.06
	c0.503,0,1.452,0.06,1.985,0.06c4.623,0,7.378-4.297,7.378-10.104c0-5.393-2.667-8.386-6.934-8.386
	c-1.896,0-3.911,0.207-4.711,0.355c-0.059,0-0.059,0.029-0.059,0.06c0,0.147,0.059,0.326,0.177,0.326L60.138,235.522z"/>
</svg>
