<?xml version="1.0" encoding="utf-8"?>
<!-- Generator: Adobe Illustrator 16.0.0, SVG Export Plug-In . SVG Version: 6.00 Build 0)  -->
<!DOCTYPE svg PUBLIC "-//W3C//DTD SVG 1.1//EN" "http://www.w3.org/Graphics/SVG/1.1/DTD/svg11.dtd">
<svg version="1.1" id="Vrstva_1" xmlns="http://www.w3.org/2000/svg" xmlns:xlink="http://www.w3.org/1999/xlink" x="0px" y="0px"
	 width="181.417px" height="119.055px" viewBox="0 0 181.417 119.055" enable-background="new 0 0 181.417 119.055"
	 xml:space="preserve">
<g>
	<g>
		<path fill="#F7A954" d="M100.599,79.023v-3.864c-12.861,0-3.247,0-16.131,0v14.936c12.836,0,3.316,0,16.131,0v-3.815h-8.904
			l0.021-1.882h8.406v-3.454l-8.428-0.021l0.021-1.898H100.599z M102.788,75.043V90h7.227v-5.508l4.681,5.577l4.839-5.623v5.49
			h7.228V74.997h-7.228l-4.882,5.604l-4.638-5.558H102.788z M81.921,90.095V75.159h-7.227v5.536h-3.863v-5.536h-7.2v14.936h7.2
			v-5.49h3.863v5.49H81.921z M129.308,90.073c4.383,0,2.908,0.021,7.271,0.021l-0.021-15.028c-4.431,0-2.84,0.024-7.249,0.024
			V90.073z M137.765,90.104h6.999l1.02-3.459h4.844l0.955,3.433l6.973,0.026l-4.563-14.988h-12.226L137.765,90.104z M147.762,78.916
			h0.911l1.042,3.953h-2.978L147.762,78.916z M46.347,74.994c-1.519,0-2.771,1.248-2.771,2.754v9.52
			c0,1.504,1.252,2.759,2.771,2.759h12.131c1.515,0,2.771-1.255,2.771-2.759v-9.52c0-1.506-1.257-2.754-2.771-2.754H46.347z
			 M55.079,84.407c0,0.417-0.314,0.782-0.731,0.782h-3.923c-0.366,0-0.731-0.365-0.731-0.782v-3.85c0-0.416,0.365-0.73,0.731-0.73
			h3.923c0.417,0,0.731,0.314,0.731,0.73V84.407z M41.486,80.48v-2.501c0-2.2-1.437-3.032-3.351-3.032H23.725v15.045h14.351
			c2.572,0,3.467-0.954,3.411-2.853v-2.682c-0.12-1.186-0.718-1.719-1.019-1.959C40.769,82.319,41.486,81.609,41.486,80.48z
			 M34.547,86.125h-4.542v-2.139h4.542c0.538,0,1.015,0.473,1.015,1.069C35.562,85.653,35.085,86.125,34.547,86.125z M34.547,80.66
			h-4.542v-2.084h4.542c0.538,0,1.015,0.478,1.015,1.07C35.562,80.179,35.085,80.66,34.547,80.66z M162.672,49.637l-0.232-0.007
			v2.361l0.181,0.006c4.749,0.138,7.622,2.542,7.502,5.629v33.023c0,3.114-3.222,5.658-6.465,5.658H19.475
			c-6.057,0-7.279-4.589-7.223-5.658l-0.057-32.78c0.091-3.93,2.762-5.878,7.279-5.878V49.63c-6.001,0-9.631,3.221-9.631,8.312
			L9.869,90.65c-0.025,4.695,4.198,8.063,9.606,8.063h144.177c4.956,0,8.845-3.564,8.845-8.063V57.626
			C172.631,52.965,169.133,49.745,162.672,49.637z M112.785,30.078H70.552v36.733h42.233V30.078z M108.612,53.293l0.009,5.071
			c0.005,1.863-1.023,4.487-5.871,4.494H75.082V34.745h27.668c3.893,0.118,5.833,1.921,5.812,5.411l0.082,4.045
			c0.073,2.316-0.856,3.917-2.783,4.804C107.21,49.664,108.329,50.738,108.612,53.293z M97.114,44.231v-2.147
			c0-1.684-0.933-2.337-2.619-2.337H86.92v6.913h7.575C95.992,46.66,97.025,46.099,97.114,44.231z M94.615,50.717H87.04v6.915h7.575
			c1.497,0,2.525-0.563,2.619-2.432v-2.148C97.234,51.37,96.298,50.717,94.615,50.717z M158.555,30.078h-42.229v36.735h42.229
			V30.078z M154.383,53.375l0.013,5.071c0.004,1.864-1.024,4.487-5.876,4.491h-27.664v-28.11h27.664
			c3.896,0.116,5.832,1.921,5.811,5.409l0.087,4.047c0.073,2.315-0.856,3.916-2.788,4.804
			C152.983,49.744,154.099,50.818,154.383,53.375z M142.888,44.312v-2.148c0-1.682-0.937-2.335-2.618-2.335h-7.576v6.913h7.576
			C141.766,46.741,142.794,46.18,142.888,44.312z M140.39,50.799h-7.58v6.91h7.58c1.492,0,2.524-0.559,2.615-2.428v-2.147
			C143.005,51.452,142.071,50.799,140.39,50.799z M67.176,30.093H23.454v36.721h43.722V30.093z M62.809,62.556H49.977l-9.11-10.55
			v10.55H27.489V33.994h12.681l8.852,10.528V33.994h13.787V62.556z"/>
	</g>
</g>
</svg>
