<?xml version="1.0" encoding="utf-8"?>
<!-- Generator: Adobe Illustrator 16.0.0, SVG Export Plug-In . SVG Version: 6.00 Build 0)  -->
<!DOCTYPE svg PUBLIC "-//W3C//DTD SVG 1.1//EN" "http://www.w3.org/Graphics/SVG/1.1/DTD/svg11.dtd">
<svg version="1.1" id="Vrstva_1" xmlns="http://www.w3.org/2000/svg" xmlns:xlink="http://www.w3.org/1999/xlink" x="0px" y="0px"
	 width="181.417px" height="119.055px" viewBox="0 0 181.417 119.055" enable-background="new 0 0 181.417 119.055"
	 xml:space="preserve">
<g>
	<g>
		<path fill="#F7A954" d="M35.486,55.657c-1.712-0.868-4.543-1.727-8.497-2.576c-1.596-0.328-2.61-0.687-3.032-1.073
			c-0.441-0.371-0.661-0.788-0.661-1.249c0-0.641,0.265-1.18,0.801-1.623c0.54-0.441,1.335-0.669,2.397-0.669
			c1.287,0,2.294,0.3,3.027,0.896c0.73,0.599,1.207,1.551,1.437,2.861l8.511-0.496c-0.373-3.031-1.544-5.238-3.511-6.63
			c-1.966-1.39-4.823-2.083-8.571-2.083c-3.053,0-5.457,0.382-7.21,1.146c-1.751,0.765-3.067,1.813-3.939,3.147
			c-0.875,1.335-1.311,2.752-1.311,4.25c0,2.284,0.854,4.163,2.56,5.636c1.687,1.472,4.518,2.652,8.486,3.542
			c2.423,0.529,3.967,1.094,4.629,1.69c0.666,0.595,0.996,1.27,0.996,2.027c0,0.794-0.35,1.493-1.05,2.096
			c-0.699,0.606-1.688,0.902-2.976,0.902c-1.729,0-3.061-0.587-3.991-1.768c-0.571-0.733-0.946-1.793-1.133-3.189l-8.584,0.537
			c0.252,2.949,1.334,5.377,3.252,7.293c1.917,1.91,5.356,2.866,10.332,2.866c2.831,0,5.177-0.409,7.04-1.223
			c1.86-0.814,3.311-2.013,4.348-3.591c1.038-1.575,1.555-3.304,1.555-5.172c0-1.591-0.389-3.032-1.168-4.317
			C38.442,57.602,37.196,56.527,35.486,55.657z M70.316,43.51H42.871v7.229h9.219v21.96h9.005v-21.96h9.222V43.51z M79.691,43.51
			L68.679,72.699h9.225l1.477-4.82h10.223l1.46,4.82h9.461L89.627,43.51H79.691z M81.313,61.573l3.219-10.492l3.166,10.492H81.313z
			 M127.427,47.672c-1.062-1.339-2.405-2.364-4.03-3.08c-1.629-0.721-3.766-1.081-6.41-1.081h-13.408v29.188h13.408
			c1.608,0,3.4-0.268,5.381-0.796c1.447-0.385,2.804-1.158,4.063-2.323c1.264-1.16,2.247-2.598,2.96-4.316
			c0.711-1.719,1.066-4.139,1.066-7.257c0-1.992-0.243-3.877-0.716-5.652C129.261,50.574,128.49,49.014,127.427,47.672z
			 M120.699,63.223c-0.449,1.042-1.076,1.77-1.875,2.188c-0.799,0.42-2.143,0.628-4.028,0.628h-2.212V50.098h2.253v0.001
			c2.339,0,4.013,0.573,5.024,1.712c1.012,1.142,1.514,3.262,1.514,6.347C121.375,60.494,121.15,62.181,120.699,63.223z
			 M148.084,71.334c0.684-0.846,1.422-1.677,2.195-2.473l0.195-0.199l3.87,2.641l-0.298,0.281c-0.495,0.472-0.947,0.938-1.358,1.396
			c1.906-0.272,3.579-0.808,5.019-1.609c2.172-1.213,3.834-2.905,4.99-5.08l0.092-1.749l-1.303,1l-2.165,1.606l-2.664,2.037
			l-0.202-0.261c-0.365-0.474-0.742-0.987-1.149-1.572c-0.368-0.525-0.66-0.944-0.884-1.269l-0.184-0.267l3.674-2.627l3.881-2.825
			l2.631-1.905c0.004-0.189,0.006-0.381,0.006-0.573c0-4.701-1.318-8.35-3.957-10.959c-2.638-2.611-6.393-3.911-11.27-3.911
			c-4.754,0-8.465,1.328-11.131,3.981c-2.665,2.652-3.996,6.363-3.996,11.126c0,3.411,0.676,6.252,2.018,8.522
			c1.346,2.266,3.102,3.929,5.266,4.979c1.525,0.736,3.338,1.212,5.43,1.431C147.174,72.501,147.605,71.926,148.084,71.334z
			 M144.745,64.528c-1.107-1.292-1.661-3.412-1.661-6.37c0-2.979,0.557-5.115,1.669-6.403c1.118-1.294,2.589-1.938,4.429-1.938
			c1.922,0,3.443,0.636,4.563,1.906c1.118,1.268,1.679,3.285,1.679,6.038c0,3.273-0.534,5.544-1.611,6.806
			c-1.069,1.266-2.586,1.896-4.544,1.896C147.362,66.462,145.854,65.819,144.745,64.528z M157.528,77.46l-0.814,0.679
			c-0.542,0.413-1.083,0.784-1.624,1.1c-0.536,0.314-1.026,0.563-1.471,0.742c-0.932,0.364-1.717,0.513-2.35,0.451
			c-0.627-0.066-1.103-0.305-1.419-0.711c-0.356-0.472-0.462-1.139-0.303-1.998l0.261-0.936l0.422-0.949l0.636-1.045
			c0.716-1.105,1.697-2.253,2.954-3.448l-3.303-2.254c-0.795,0.818-1.519,1.638-2.177,2.45c-0.657,0.816-1.228,1.594-1.708,2.337
			l-0.938,1.556l-0.653,1.338c-0.203,0.408-0.391,0.875-0.568,1.408c-0.418,1.365-0.6,2.553-0.541,3.554
			c0.055,1.004,0.359,1.858,0.898,2.563l0.428,0.472c0.771,0.669,1.811,1.001,3.116,1.007c0.725,0.001,1.413-0.084,2.073-0.26
			c0.732-0.167,1.557-0.444,2.463-0.842c1.725-0.732,3.473-1.778,5.252-3.142c0.544-0.412,1.021-0.794,1.432-1.142
			c0.409-0.35,0.826-0.719,1.244-1.112l-2.34-2.642L157.528,77.46z M174.449,64.484c-0.192,0.15-0.515,0.438-0.98,0.866
			c-0.463,0.428-0.812,0.731-1.052,0.914l-1.124,0.858l-1.432,1.097l-2.164,1.648c0.027-0.298,0.063-0.76,0.117-1.379
			c0.048-0.626,0.084-1.265,0.105-1.936l0.102-1.372l0.068-1.102l0.082-1.395l0.094-1.57l0.081-1.85l0.154-3.092l-0.206-0.084
			l-2.755,1.97l-3.555,2.573l-2.245,1.632l-1.635,1.194l-1.629,1.162l-1.781,1.276c0.223,0.322,0.514,0.742,0.883,1.265
			c0.365,0.526,0.745,1.05,1.141,1.561l1.365-1.045l1.041-0.794l2.159-1.604l0.989-0.76l0.884-0.673l-0.216,4.1l-0.051,0.849
			l-0.05,0.984l-0.048,0.849l-0.033,0.865l-0.206,2.972l-0.251,3.323l0.227,0.069l4.887-3.666l5.155-3.805l3.946-3.018
			L174.449,64.484z"/>
	</g>
</g>
</svg>
