<?xml version="1.0" encoding="utf-8"?>
<!-- Generator: Adobe Illustrator 16.0.0, SVG Export Plug-In . SVG Version: 6.00 Build 0)  -->
<!DOCTYPE svg PUBLIC "-//W3C//DTD SVG 1.1//EN" "http://www.w3.org/Graphics/SVG/1.1/DTD/svg11.dtd">
<svg version="1.1" id="Vrstva_1" xmlns="http://www.w3.org/2000/svg" xmlns:xlink="http://www.w3.org/1999/xlink" x="0px" y="0px"
	 width="181.417px" height="119.055px" viewBox="0 0 181.417 119.055" enable-background="new 0 0 181.417 119.055"
	 xml:space="preserve">
<g>
	<g>
		<path fill="#F7A954" d="M62.771,107.87l-0.231-0.002l-3.636-10.728h-3.868v0.253h0.072c0.712,0,1.178,0.152,1.396,0.453
			c0.169,0.253,0.254,0.799,0.254,1.631v9.986c0,0.302,0.151,0.452,0.453,0.452c0.29,0,0.435-0.15,0.435-0.452V98.463h0.182
			l3.75,10.893c0.132,0.374,0.38,0.561,0.742,0.561c0.35,0,0.609-0.187,0.778-0.561l3.683-11.018l0.122-0.002v11.382h1.722V97.141
			h-2.265L62.771,107.87z M78.099,100.965c-0.159,0-0.266,0.084-0.327,0.254l-2.757,7.166l-2.814-7.221h-2.78v0.254h0.108
			c0.52,0,0.906,0.145,1.159,0.436c0.157,0.181,0.375,0.609,0.653,1.285l2.862,7.049l-0.472,1.313
			c-0.193,0.547-0.5,0.997-0.924,1.349c-0.422,0.353-0.845,0.528-1.268,0.528h-0.706v0.2h1.069c1.088,0,1.946-0.65,2.575-1.949
			c0.279-0.666,0.472-1.165,0.581-1.492l3.365-8.693c0.012-0.062,0.018-0.111,0.018-0.148
			C78.441,101.075,78.327,100.965,78.099,100.965z M84.746,97.503c0.893,0,1.597,0.182,2.111,0.545
			c0.513,0.361,0.781,0.851,0.805,1.467h0.254v-2.066c-0.942-0.349-1.962-0.523-3.062-0.523c-1.873,0-3.219,0.498-4.04,1.493
			c-0.822,0.996-1.232,2.607-1.232,4.83c0,2.282,0.423,3.966,1.269,5.046c0.844,1.083,2.166,1.622,3.966,1.622
			c1.147,0,2.495-0.247,4.04-0.742v-6.379h-3.478v0.651h1.992v4.061c0,0.663-0.162,1.13-0.488,1.396
			c-0.326,0.266-0.877,0.398-1.649,0.398c-2.584,0-3.877-1.986-3.877-5.961c0-2.055,0.241-3.522,0.725-4.404
			C82.602,97.98,83.489,97.503,84.746,97.503z M90.741,107.923c0,0.544,0.233,1.013,0.698,1.405c0.464,0.392,1.04,0.588,1.73,0.588
			c0.457,0,0.852-0.096,1.176-0.288c0.217-0.181,0.44-0.357,0.672-0.526c0.422-0.326,0.881-0.49,1.377-0.49h0.924v-4.494
			c0-1.123-0.23-1.93-0.689-2.419s-1.214-0.733-2.264-0.733c-0.895,0-1.631,0.173-2.211,0.516c-0.58,0.346-0.905,0.795-0.977,1.352
			l1.068,1.015c0.604-0.049,0.904-0.405,0.904-1.069v-0.072c0-0.399,0.121-0.729,0.363-0.988c0.242-0.259,0.531-0.389,0.869-0.389
			c0.496,0,0.839,0.214,1.032,0.643c0.192,0.43,0.29,1.103,0.29,2.021v1.196C92.396,105.284,90.741,106.196,90.741,107.923z
			 M95.705,107.815c-0.193,0.424-0.465,0.758-0.815,1.006c-0.351,0.247-0.706,0.371-1.069,0.371c-0.373,0-0.682-0.146-0.923-0.436
			c-0.241-0.29-0.362-0.677-0.362-1.16c0-1.292,1.057-1.975,3.17-2.048V107.815z M104.437,107.47c0-0.675-0.253-1.243-0.762-1.703
			c-0.204-0.192-0.823-0.603-1.856-1.231c-1.032-0.628-1.549-1.184-1.549-1.668c0-0.423,0.148-0.768,0.445-1.032
			c0.295-0.266,0.69-0.4,1.187-0.4c1.014,0,1.611,0.448,1.794,1.342h0.162v-1.395c-0.557-0.279-1.263-0.417-2.119-0.417
			c-0.858,0-1.556,0.233-2.094,0.697c-0.537,0.465-0.805,1.066-0.805,1.805c0,0.82,0.566,1.569,1.703,2.245
			c1.134,0.677,1.714,1.028,1.738,1.051c0.482,0.364,0.725,0.786,0.725,1.269c0,0.87-0.58,1.306-1.74,1.306
			c-0.543,0-1.195-0.225-1.955-0.671c-0.086-0.048-0.14-0.072-0.164-0.072c-0.168,0-0.254,0.085-0.254,0.253
			c0,0.193,0.241,0.406,0.726,0.634c0.556,0.28,1.165,0.417,1.83,0.417c0.917,0,1.646-0.219,2.183-0.661
			C104.168,108.796,104.437,108.208,104.437,107.47z M109.652,109.536h-0.158c-0.602,0-0.985-0.114-1.15-0.344
			c-0.166-0.23-0.248-0.683-0.248-1.359v-6.034h2.445v-0.49h-2.445v-4.168h-0.615c0,2.766-0.797,4.156-2.392,4.168
			c-0.146,0.037-0.219,0.12-0.219,0.254c0,0.12,0.075,0.2,0.222,0.235h1.391v6.071c0,1.232,0.364,1.848,1.094,1.848h2.076V109.536z
			 M111.883,101.164v7.104c0,0.967,0.38,1.45,1.141,1.45h0.488v-4.113c0-0.954,0.176-1.765,0.526-2.43
			c0.325-0.604,0.682-0.904,1.069-0.904c0.193,0,0.4,0.077,0.625,0.233c0.223,0.158,0.4,0.236,0.535,0.236l0.923-0.887
			c-0.169-0.593-0.556-0.889-1.159-0.889c-1.076,0-1.855,0.821-2.338,2.464h-0.182v-2.265H111.883z M121.211,100.965
			c-2.343,0-3.514,1.516-3.514,4.549c0,2.936,1.171,4.402,3.514,4.402c2.355,0,3.533-1.467,3.533-4.402
			c0-1.438-0.314-2.555-0.942-3.353C123.174,101.362,122.31,100.965,121.211,100.965z M122.752,108.558
			c-0.279,0.665-0.756,0.996-1.432,0.996c-0.725,0-1.244-0.331-1.559-0.996c-0.302-0.628-0.452-1.642-0.452-3.044
			c0-1.438,0.146-2.494,0.443-3.172c0.296-0.677,0.781-1.015,1.458-1.015c0.688,0,1.181,0.333,1.478,0.995
			c0.294,0.666,0.442,1.729,0.442,3.191C123.131,106.938,123.005,107.954,122.752,108.558z M82.108,111.374l-0.61,1.587
			l-0.624-1.599h-0.616v0.057h0.023c0.116,0,0.202,0.032,0.258,0.096c0.034,0.041,0.082,0.135,0.144,0.284l0.634,1.562l-0.104,0.291
			c-0.043,0.121-0.111,0.221-0.205,0.298c-0.093,0.079-0.188,0.117-0.28,0.117h-0.157v0.044h0.237c0.241,0,0.431-0.144,0.571-0.431
			c0.061-0.147,0.104-0.259,0.128-0.33l0.745-1.926c0.002-0.014,0.004-0.024,0.004-0.033c0-0.048-0.025-0.072-0.077-0.072
			C82.145,111.318,82.122,111.337,82.108,111.374z M83.19,111.318c-0.519,0-0.777,0.336-0.777,1.007c0,0.65,0.259,0.976,0.777,0.976
			c0.521,0,0.783-0.325,0.783-0.976c0-0.318-0.07-0.566-0.209-0.742C83.625,111.406,83.435,111.318,83.19,111.318z M83.532,113
			c-0.062,0.146-0.167,0.22-0.317,0.22c-0.16,0-0.275-0.073-0.345-0.22c-0.066-0.139-0.1-0.364-0.1-0.674
			c0-0.319,0.033-0.553,0.098-0.702c0.065-0.149,0.173-0.226,0.322-0.226c0.153,0,0.262,0.074,0.327,0.221
			c0.066,0.146,0.098,0.383,0.098,0.706C83.616,112.641,83.588,112.865,83.532,113z M85.69,112.357c0,0.209-0.048,0.381-0.143,0.518
			c-0.096,0.136-0.209,0.204-0.34,0.204c-0.25,0-0.375-0.172-0.375-0.518v-1.199H84.17v0.057c0.21,0.024,0.317,0.185,0.317,0.481
			v0.585c0,0.287,0.038,0.494,0.116,0.622c0.078,0.129,0.213,0.193,0.406,0.193c0.133,0,0.246-0.036,0.341-0.105
			c0.039-0.031,0.11-0.108,0.212-0.229c0.101-0.12,0.263-0.18,0.482-0.18v-1.425H85.69V112.357z M87.466,111.318
			c-0.238,0-0.41,0.182-0.518,0.545h-0.04v-0.501h-0.361v1.573c0,0.214,0.084,0.321,0.252,0.321h0.109v-0.911
			c0-0.211,0.039-0.391,0.116-0.538c0.072-0.134,0.151-0.2,0.236-0.2c0.042,0,0.089,0.018,0.139,0.052
			c0.049,0.036,0.089,0.053,0.119,0.053l0.204-0.197C87.686,111.383,87.601,111.318,87.466,111.318z M89.736,111.322
			c-0.123,0-0.233,0.032-0.328,0.097c-0.078,0.058-0.155,0.117-0.229,0.176c-0.091,0.063-0.193,0.093-0.305,0.093
			c-0.041,0-0.071-0.001-0.093-0.004v2.267c0,0.107,0.055,0.16,0.164,0.16c0.126,0,0.189-0.059,0.189-0.175v-1.013
			c0.142,0.25,0.325,0.373,0.55,0.373c0.229,0,0.409-0.086,0.537-0.261c0.129-0.173,0.193-0.42,0.193-0.738
			c0-0.305-0.062-0.544-0.183-0.716C90.11,111.408,89.945,111.322,89.736,111.322z M89.584,113.124c-0.299,0-0.45-0.228-0.45-0.682
			v-0.49c0.094-0.315,0.243-0.474,0.446-0.474c0.318,0,0.477,0.269,0.477,0.806C90.058,112.844,89.9,113.124,89.584,113.124z
			 M91.51,111.318c-0.198,0-0.361,0.039-0.489,0.113c-0.129,0.077-0.2,0.177-0.217,0.3l0.237,0.224c0.134-0.01,0.2-0.089,0.2-0.236
			v-0.016c0-0.088,0.027-0.161,0.081-0.219c0.055-0.058,0.116-0.086,0.192-0.086c0.109,0,0.187,0.048,0.229,0.143
			c0.043,0.095,0.064,0.244,0.064,0.448v0.264c-0.732,0.021-1.1,0.224-1.1,0.605c0,0.121,0.052,0.225,0.154,0.312
			c0.104,0.087,0.231,0.13,0.384,0.13c0.101,0,0.188-0.021,0.261-0.064c0.049-0.04,0.098-0.078,0.148-0.115
			c0.094-0.072,0.195-0.109,0.305-0.109h0.205v-0.994c0-0.249-0.052-0.428-0.153-0.536C91.91,111.373,91.742,111.318,91.51,111.318z
			 M91.808,112.834L91.808,112.834c-0.044,0.095-0.104,0.169-0.182,0.224s-0.156,0.082-0.236,0.082
			c-0.083,0-0.151-0.032-0.206-0.097c-0.052-0.063-0.079-0.149-0.079-0.256c0-0.286,0.233-0.438,0.703-0.453V112.834z
			 M93.627,111.318c-0.237,0-0.41,0.182-0.517,0.545h-0.041v-0.501h-0.36v1.573c0,0.214,0.084,0.321,0.253,0.321h0.107v-0.911
			c0-0.211,0.04-0.391,0.117-0.538c0.071-0.134,0.15-0.2,0.236-0.2c0.043,0,0.089,0.018,0.138,0.052
			c0.051,0.036,0.09,0.053,0.119,0.053l0.205-0.197C93.846,111.383,93.762,111.318,93.627,111.318z M94.639,110.471h-0.137
			c0,0.613-0.177,0.921-0.531,0.924c-0.03,0.009-0.046,0.027-0.046,0.057c0,0.025,0.016,0.043,0.05,0.052h0.307v1.344
			c0,0.274,0.081,0.41,0.242,0.41h0.461v-0.04h-0.036c-0.134,0-0.219-0.025-0.255-0.076c-0.037-0.052-0.055-0.151-0.055-0.302
			v-1.336h0.541v-0.108h-0.541V110.471z M97.167,113.139c-0.042-0.053-0.062-0.146-0.062-0.28v-0.991
			c0-0.366-0.148-0.549-0.445-0.549c-0.283,0-0.518,0.182-0.699,0.545h-0.043v-0.501h-0.667v0.056
			c0.21,0.024,0.313,0.17,0.313,0.437v1.401h0.354v-0.991c0-0.187,0.085-0.377,0.256-0.569c0.095-0.105,0.188-0.156,0.279-0.156
			c0.119,0,0.197,0.051,0.238,0.156c0.038,0.094,0.056,0.263,0.056,0.51v0.737c0,0.21,0.091,0.313,0.272,0.313h0.386l0.003-0.04
			h-0.012C97.285,113.216,97.209,113.19,97.167,113.139z M98.227,112.076h0.699c0.08,0,0.145-0.02,0.19-0.059
			c0.046-0.041,0.07-0.094,0.07-0.158c0-0.136-0.063-0.258-0.193-0.365c-0.142-0.114-0.316-0.172-0.528-0.172
			c-0.564,0-0.847,0.316-0.847,0.95c0,0.321,0.089,0.573,0.265,0.755c0.178,0.182,0.421,0.273,0.732,0.273
			c0.186,0,0.365-0.034,0.539-0.101c0.021-0.011,0.032-0.025,0.032-0.044v-0.017c-0.008-0.013-0.021-0.019-0.036-0.019
			c-0.017,0-0.066,0.008-0.147,0.026s-0.149,0.028-0.204,0.028c-0.271,0-0.482-0.111-0.627-0.334
			c-0.106-0.162-0.16-0.344-0.16-0.545C98.012,112.149,98.084,112.076,98.227,112.076z M98.453,111.403
			c0.105,0,0.199,0.042,0.273,0.128c0.076,0.085,0.115,0.182,0.115,0.288c0,0.102-0.086,0.153-0.261,0.153h-0.558
			C98.047,111.592,98.19,111.403,98.453,111.403z M100.478,111.318c-0.237,0-0.411,0.182-0.517,0.545H99.92v-0.501h-0.36v1.573
			c0,0.214,0.083,0.321,0.253,0.321h0.107v-0.911c0-0.211,0.039-0.391,0.117-0.538c0.072-0.134,0.15-0.2,0.236-0.2
			c0.043,0,0.088,0.018,0.139,0.052c0.049,0.036,0.089,0.053,0.118,0.053l0.204-0.197
			C100.697,111.383,100.611,111.318,100.478,111.318z M102.312,113.136c-0.044-0.057-0.064-0.156-0.064-0.301v-1.473h-0.69v0.057
			h0.024c0.12,0,0.202,0.032,0.241,0.096c0.043,0.064,0.063,0.178,0.063,0.341v1.1c0,0.201,0.091,0.301,0.272,0.301h0.405v-0.036
			h-0.011C102.434,113.22,102.354,113.192,102.312,113.136z M101.91,110.532c-0.043,0.042-0.065,0.095-0.065,0.156
			s0.022,0.113,0.065,0.155c0.042,0.041,0.095,0.062,0.156,0.062s0.113-0.021,0.156-0.062c0.043-0.042,0.064-0.094,0.064-0.155
			s-0.021-0.113-0.064-0.156c-0.042-0.043-0.095-0.064-0.156-0.064S101.952,110.489,101.91,110.532z M104.559,113.139
			c-0.041-0.053-0.063-0.146-0.063-0.28v-0.991c0-0.366-0.148-0.549-0.443-0.549c-0.284,0-0.517,0.182-0.699,0.545h-0.044v-0.501
			h-0.666v0.056c0.208,0.024,0.313,0.17,0.313,0.437v1.401h0.353v-0.991c0-0.187,0.086-0.377,0.258-0.569
			c0.095-0.105,0.187-0.156,0.278-0.156c0.119,0,0.197,0.051,0.238,0.156c0.037,0.094,0.057,0.263,0.057,0.51v0.737
			c0,0.21,0.09,0.313,0.271,0.313h0.386l0.003-0.04h-0.011C104.678,113.216,104.602,113.19,104.559,113.139z M106.482,111.318
			c-0.213,0-0.382,0.09-0.503,0.271c-0.123,0.18-0.183,0.436-0.183,0.768c0,0.292,0.063,0.522,0.189,0.69
			c0.126,0.168,0.297,0.253,0.512,0.253c0.219,0,0.393-0.117,0.525-0.35h0.04v0.51c0,0.211-0.032,0.363-0.099,0.459
			c-0.064,0.095-0.178,0.143-0.338,0.143h-0.081v0.048h0.092c0.286,0,0.487-0.059,0.604-0.178s0.175-0.32,0.175-0.604v-1.642
			c-0.197-0.003-0.346-0.054-0.445-0.152C106.824,111.391,106.661,111.318,106.482,111.318z M107.064,112.458
			c0,0.214-0.043,0.381-0.125,0.501c-0.082,0.119-0.193,0.181-0.333,0.181c-0.275,0-0.413-0.279-0.413-0.838
			c0-0.55,0.143-0.823,0.43-0.823c0.193,0,0.34,0.138,0.441,0.413V112.458z M108.633,111.318c-0.199,0-0.361,0.039-0.49,0.113
			c-0.128,0.077-0.2,0.177-0.217,0.3l0.236,0.224c0.134-0.01,0.201-0.089,0.201-0.236v-0.016c0-0.088,0.025-0.161,0.08-0.219
			c0.053-0.058,0.117-0.086,0.193-0.086c0.109,0,0.186,0.048,0.228,0.143c0.043,0.095,0.065,0.244,0.065,0.448v0.264
			c-0.733,0.021-1.101,0.224-1.101,0.605c0,0.121,0.053,0.225,0.155,0.312s0.231,0.13,0.383,0.13c0.102,0,0.189-0.021,0.261-0.064
			c0.05-0.04,0.099-0.078,0.148-0.115c0.094-0.072,0.194-0.109,0.306-0.109h0.204v-0.994c0-0.249-0.049-0.428-0.152-0.536
			C109.032,111.373,108.864,111.318,108.633,111.318z M108.93,112.834c-0.044,0.095-0.104,0.169-0.182,0.224
			c-0.077,0.055-0.156,0.082-0.236,0.082c-0.082,0-0.151-0.032-0.203-0.097c-0.055-0.063-0.082-0.149-0.082-0.256
			c0-0.286,0.234-0.438,0.703-0.453V112.834z M110.283,112.108c-0.229-0.14-0.344-0.263-0.344-0.37c0-0.093,0.033-0.169,0.099-0.229
			c0.065-0.058,0.153-0.088,0.263-0.088c0.224,0,0.357,0.1,0.398,0.297h0.035v-0.309c-0.123-0.063-0.279-0.093-0.469-0.093
			s-0.346,0.052-0.464,0.155c-0.119,0.102-0.178,0.235-0.178,0.399c0,0.182,0.126,0.348,0.376,0.497
			c0.252,0.149,0.381,0.228,0.387,0.232c0.106,0.081,0.159,0.174,0.159,0.281c0,0.193-0.128,0.289-0.386,0.289
			c-0.12,0-0.264-0.05-0.434-0.148c-0.018-0.011-0.03-0.017-0.035-0.017c-0.037,0-0.057,0.019-0.057,0.056
			c0,0.044,0.054,0.091,0.16,0.141c0.123,0.062,0.259,0.092,0.405,0.092c0.203,0,0.364-0.047,0.483-0.146
			c0.119-0.098,0.18-0.228,0.18-0.391c0-0.149-0.057-0.276-0.17-0.377C110.647,112.339,110.512,112.247,110.283,112.108z
			 M111.672,110.471h-0.137c0,0.613-0.176,0.921-0.529,0.924c-0.031,0.009-0.047,0.027-0.047,0.057c0,0.025,0.017,0.043,0.049,0.052
			h0.309v1.344c0,0.274,0.08,0.41,0.24,0.41h0.461v-0.04h-0.035c-0.134,0-0.219-0.025-0.255-0.076
			c-0.037-0.052-0.056-0.151-0.056-0.302v-1.336h0.542v-0.108h-0.542V110.471z M113.43,111.318c-0.24,0-0.411,0.182-0.518,0.545
			h-0.041v-0.501h-0.361v1.573c0,0.214,0.084,0.321,0.254,0.321h0.107v-0.911c0-0.211,0.039-0.391,0.117-0.538
			c0.071-0.134,0.15-0.2,0.235-0.2c0.044,0,0.09,0.018,0.138,0.052c0.051,0.036,0.09,0.053,0.119,0.053l0.205-0.197
			C113.648,111.383,113.563,111.318,113.43,111.318z M114.576,111.318c-0.518,0-0.778,0.336-0.778,1.007
			c0,0.65,0.261,0.976,0.778,0.976c0.521,0,0.781-0.325,0.781-0.976c0-0.318-0.068-0.566-0.207-0.742
			C115.011,111.406,114.82,111.318,114.576,111.318z M114.918,113c-0.063,0.146-0.167,0.22-0.318,0.22
			c-0.16,0-0.274-0.073-0.345-0.22c-0.065-0.139-0.1-0.364-0.1-0.674c0-0.319,0.033-0.553,0.099-0.702s0.172-0.226,0.322-0.226
			c0.152,0,0.262,0.074,0.327,0.221s0.098,0.383,0.098,0.706C115.001,112.641,114.974,112.865,114.918,113z M117.498,113.139
			c-0.04-0.053-0.062-0.146-0.062-0.28v-0.991c0-0.366-0.147-0.549-0.445-0.549c-0.284,0-0.517,0.182-0.699,0.545h-0.044v-0.501
			h-0.666v0.056c0.209,0.024,0.314,0.17,0.314,0.437v1.401h0.352v-0.991c0-0.187,0.086-0.377,0.259-0.569
			c0.094-0.105,0.187-0.156,0.278-0.156c0.117,0,0.197,0.051,0.238,0.156c0.037,0.094,0.057,0.263,0.057,0.51v0.737
			c0,0.21,0.089,0.313,0.271,0.313h0.386l0.005-0.04h-0.014C117.617,113.216,117.539,113.19,117.498,113.139z M118.731,111.318
			c-0.52,0-0.778,0.336-0.778,1.007c0,0.65,0.26,0.976,0.778,0.976c0.521,0,0.782-0.325,0.782-0.976
			c0-0.318-0.069-0.566-0.209-0.742C119.166,111.406,118.975,111.318,118.731,111.318z M119.072,113
			c-0.061,0.146-0.166,0.22-0.316,0.22c-0.16,0-0.275-0.073-0.346-0.22c-0.066-0.139-0.1-0.364-0.1-0.674
			c0-0.319,0.033-0.553,0.098-0.702c0.066-0.15,0.174-0.226,0.324-0.226c0.152,0,0.262,0.074,0.326,0.221
			c0.066,0.146,0.1,0.383,0.1,0.706C119.158,112.641,119.129,112.865,119.072,113z M122.685,113.132
			c-0.041-0.056-0.062-0.155-0.062-0.297v-0.826c0-0.265-0.026-0.442-0.078-0.533c-0.057-0.104-0.178-0.157-0.359-0.157
			c-0.295,0-0.506,0.171-0.635,0.514h-0.043c-0.02-0.343-0.167-0.514-0.442-0.514c-0.288,0-0.496,0.166-0.625,0.498h-0.044v-0.454
			h-0.667v0.057c0.209,0.021,0.313,0.165,0.313,0.433v1.404h0.354v-0.975c0-0.228,0.065-0.428,0.196-0.598
			c0.089-0.115,0.195-0.173,0.321-0.173c0.104,0,0.172,0.054,0.204,0.16c0.027,0.086,0.04,0.254,0.04,0.506v0.791
			c0,0.192,0.085,0.289,0.257,0.289h0.364v-0.04h-0.012c-0.1,0-0.17-0.029-0.207-0.086c-0.039-0.058-0.057-0.156-0.057-0.296v-0.553
			c0-0.22,0.07-0.422,0.213-0.605c0.084-0.11,0.188-0.165,0.311-0.165c0.105,0,0.174,0.049,0.207,0.148
			c0.023,0.075,0.035,0.229,0.035,0.461v0.818c0,0.211,0.09,0.317,0.273,0.317h0.385v-0.04h-0.012
			C122.801,113.216,122.727,113.188,122.685,113.132z M124.596,111.374l-0.61,1.587l-0.624-1.599h-0.614v0.057h0.023
			c0.115,0,0.202,0.032,0.257,0.096c0.035,0.041,0.083,0.135,0.145,0.284l0.634,1.562l-0.104,0.291
			c-0.043,0.121-0.111,0.221-0.205,0.298c-0.094,0.079-0.188,0.117-0.281,0.117h-0.156v0.044h0.237c0.241,0,0.432-0.144,0.569-0.431
			c0.063-0.147,0.105-0.259,0.129-0.33l0.744-1.926c0.004-0.014,0.004-0.024,0.004-0.033c0.002-0.048-0.024-0.072-0.074-0.072
			C124.633,111.318,124.609,111.337,124.596,111.374z M73.101,67.928c0.119,0.188,0.357,0.565,0.357,0.565
			c-0.006,1.016,0.458,1.931,0.952,2.825l0.059-0.501c-0.229-0.532-0.372-0.55-0.297-0.032c-0.13-1.208-0.473-2.256-0.864-3.318
			C73.209,67.571,73.062,67.603,73.101,67.928z M78.04,80.004c-0.077-0.134-0.156-0.266-0.237-0.393
			c0.01,0.027,0.024,0.058,0.036,0.084C77.908,79.8,77.975,79.902,78.04,80.004z M77.444,79.07l-0.006-0.006l0.072,0.108
			c0.001,0.001,0.002,0.003,0.002,0.005l0.29,0.434c-0.087-0.222-0.141-0.426-0.171-0.611C77.631,79.149,77.595,79.237,77.444,79.07
			z M77.631,79c-0.028-0.154-0.032-0.307-0.029-0.439C77.601,78.646,77.628,78.854,77.631,79z M83.61,89.192
			c-0.228-0.661-0.663-1.351-1.093-1.822C82.668,88.004,82.942,88.676,83.61,89.192z M112.854,95.035h11.891V80.151
			c-1.953,3.663-4.188,7.164-7.135,10.463C116.152,92.156,114.584,93.676,112.854,95.035z M78.798,53.531
			c2.107,0.392,4.222,0.826,6.324,1.246l3.077,0.607c3.79,0.587,7.504,1.271,11.236,1.838c7.841,1.274,18.685,1.807,25.31-2.911
			V12.576H92.306c0.353,1.221,0.995,1.279,1.402,1.188c0.927-0.265,1.452-0.905,2.019,0.133c0.456,0.566,0.639,1.675,2.266,3.16
			c1.507,1.554,4.553,2.94,8.222,5.22c1.7,1.087,3.653,3.111,3.47,5.113c-0.119,1.944-2.527,4.639-5.136,6.202
			c-2.806,1.559-7.41,1.451-12.13,4.274c-2.517,1.536-3.534,4.943-2.934,7.663c0.22,2.859,2.793,5.732,5.713,5.342
			c-1.025,0.216-2.85,0.096-4.358-1.408c-1.497-1.556-2.264-4.002-2.088-6.906c0.098-3.227,3.449-6.207,6.485-7.113
			c3.014-1.192,6.344-1.732,8.487-2.903c1.7-0.858,4.352-4.178,4.046-5.108c0.223-0.711-2.018-2.879-5.371-3.789
			c-3.15-1.219-7.847-2.102-10.791-6.315c-0.963-1.313-1.36-3.116-1.174-4.751H56.762v82.459h32.012
			c-2.153-1.813-4.028-3.94-5.695-6.259c-0.798-1.099-1.538-2.206-2.219-3.326c-0.363-0.566-0.695-1.149-1.024-1.728l-0.053-0.172
			l0.011,0.099l-0.235-0.41c-0.018-0.452-0.377-0.977-0.75-1.496c-0.091-0.13-0.197-0.293-0.307-0.462l-1.188-2.367l0.125,0.15
			l-0.216-0.352l-0.489-1.047c-0.061-0.202-0.104-0.41-0.121-0.634c-0.067-0.268-0.222-0.355-0.391-0.499
			c-1.079-2.421-2.088-4.94-3.053-7.652c0-0.002-0.184-1.519-0.108-2.039l0.248,0.624l0.032-0.039
			c0.785,1.78,1.77,3.631,2.695,5.184l0.4,0.633c0.167,0.346,0.289,0.688,0.408,1.037c0.167,0.559,0.353,1.126,0.562,1.76
			c0.25,0.844,1.255,1.522,1.973,2.663c0.145,0.161-0.299,0.34-0.007,0.664c0.573,0.821,1.195,1.439,1.646,2.24
			c0.296,0.31,0.203,1.142,0.513,1.45c0.62,0.794,2.569,2.494,1.716,1.288c-1.29-1.79-2.122-2.992-3.171-4.699
			c1.051,1.467,2.117,2.997,3.325,4.765c0.748,1.134,1.631,2.712,2.752,3.95c1.643,1.599,3.571,2.984,5.588,4.5
			c1.155,0.916,2.358,1.641,3.577,2.174h9.541c3.371-1.45,6.421-4.191,9.328-7.274c1.179-1.426,2.104-2.789,3.046-4.046
			c3.38-4.329,5.026-10.331,7.511-14.664V54.332c-0.365,0.281-0.807,0.585-1.229,0.848c-7.101,4.19-18.194,3.475-25.979,2.148
			c6.681,1.911,14.621,2.396,21.976,0.112c-3.888,1.302-8.229,1.757-12.347,1.936c1.883,0.145,3.926,0.133,5.832-0.197
			c-1.392,0.572-4.809,0.593-6.479,0.632c-2.289,0.078-4.771-0.142-6.92-0.544c-3.692-0.684-7.164-1.075-10.926-1.905
			c-1.991-0.451-4.076-0.526-6.095-0.709c-1.101-0.1-2.054-0.619-3.119-0.676c-0.852-0.048-1.475-0.572-2.338-0.658
			c-0.406-0.04-0.833-0.108-1.238-0.233l-0.06-0.044l-0.018,0.053l0.013-0.076l-0.269-0.081l0.052-0.04
			c-0.188-0.026-0.38-0.052-0.549-0.131c0.304-0.086,0.833-0.015,1.237-0.008c-0.334-0.024-0.632-0.116-0.967-0.202
			c-0.413-0.104-0.78-0.135-1.184-0.225c0.126-0.083,0.512-0.021,0.725-0.053l-0.471-0.134c0.431-0.11,1.056-0.127,1.56-0.188
			c-0.168-0.081-0.845-0.018-0.989-0.02c-0.245-0.004-0.696,0.024-0.983-0.076c0.096-0.072,0.304-0.08,0.504-0.08
			c-0.241-0.005-0.503-0.106-0.748-0.166c0.271,0.011,0.545-0.023,0.782-0.051c-0.553-0.209-1.242-0.272-1.818-0.47
			C73.637,52.406,76.921,53.192,78.798,53.531z M98.061,39.008c5.125-4.602,11.983-2.371,14.632-5.351
			c2.745-3.242,5.317-9.368,2.757-14.097c1.793,2.168,1.926,4.014,2.274,4.938c0.266,0.979,0.552,1.281,0.847,1.329
			c0.576,0.113,1.287-0.837,1.041,1.58c-0.169,1.191-0.799,2.43-1.902,3.983c-1.121,1.409-2.602,3.82-5.689,4.869
			c-1.51,0.521-3.317,0.598-5.498,0.752c-2.121,0.209-4.987,0.276-7.643,2.404c-2.648,2.15-3.541,6.991-0.521,10.116
			c3.564,3.083,8.215,0.943,11.98-0.952c-1.504,0.943-4.019,2.668-8.143,2.936c-2.075,0.229-5.021-1.354-5.908-4.045
			C95.291,44.881,95.609,41.447,98.061,39.008z M119.982,66.54c0.272,2.18-6.536,15.803-7.354,16.62
			c-0.818,0.818-6.809,6.813-16.342,7.357c-9.533,0.545-20.7-28.338-20.7-28.338C76.676,61.636,119.711,64.36,119.982,66.54z
			 M69.618,54.647c-0.259-0.991-0.471-2.015-0.188-3.001c-0.007,0-0.12-0.43-0.18-0.646c0.058-0.327,0.207-0.313,0.334-0.387
			l-0.056-0.672l0.011-0.021l0.085,0.666l-0.041,0.027c0.066,1.139,0.099,2.246-0.058,3.456c0.046-0.527,0.188-0.472,0.277,0.103
			L69.618,54.647z M70.435,61.409l-0.253-1.229c0.136,0.184,0.27,0.301,0.274,0.579C70.417,60.984,70.418,61.196,70.435,61.409z
			 M71.056,63.551l-0.235-0.615l-0.087-0.173l-0.048-0.218l0.135,0.39l0.003,0.008c0.111,0.2,0.166,0.12,0.199-0.027
			C71.011,63.106,71.021,63.319,71.056,63.551c0.124,0.339,0.236,0.688,0.312,1.067C71.2,64.22,71.104,63.864,71.056,63.551z
			 M73.269,64.091c0.655,1.917,1.208,3.281,2.049,5.368c0.548,1.397-0.947-0.764-1.38-1.683c-0.233-0.37,0.05-1.169-0.177-1.543
			c-0.266-0.89-0.737-1.64-1.12-2.573c-0.216-0.385,0.257-0.461,0.151-0.648c-0.448-1.279-1.297-2.165-1.345-3.048
			c-0.067-0.664-0.132-1.262-0.154-1.849c0.042,0.445,0.1,0.888,0.222,1.347C72.02,61.083,72.646,62.562,73.269,64.091z"/>
	</g>
</g>
</svg>
