<?xml version="1.0" encoding="utf-8"?>
<!-- Generator: Adobe Illustrator 16.0.0, SVG Export Plug-In . SVG Version: 6.00 Build 0)  -->
<!DOCTYPE svg PUBLIC "-//W3C//DTD SVG 1.1//EN" "http://www.w3.org/Graphics/SVG/1.1/DTD/svg11.dtd">
<svg version="1.1" id="Vrstva_1" xmlns="http://www.w3.org/2000/svg" xmlns:xlink="http://www.w3.org/1999/xlink" x="0px" y="0px"
	 width="181.417px" height="119.055px" viewBox="0 0 181.417 119.055" enable-background="new 0 0 181.417 119.055"
	 xml:space="preserve">
<g>
	<g>
		<path fill="#F7A954" d="M51.959,71.111V42.178h-8.796v30.757H18.015V42.178H9.183v28.934c0,3.463,0.647,5.823,1.958,7.07
			c1.299,1.262,3.785,1.885,7.449,1.885H42.55c3.688,0,6.175-0.623,7.474-1.885C51.308,76.935,51.959,74.574,51.959,71.111z
			 M164.949,42.178h-3.321v6.63h3.321V42.178z M168.268,42.178v6.63h3.322v-6.63H168.268z M158.312,42.178h-3.321v6.63h3.321V42.178
			z M162.109,56.945h-23.644v-8.138h13.206v-6.63h-11.514c-3.689,0-6.183,0.631-7.473,1.896c-1.294,1.269-1.936,3.621-1.936,7.071
			v4.185c0,3.451,0.642,5.804,1.936,7.072c1.29,1.267,3.783,1.894,7.473,1.894h23.639v8.639h-30.897l-17.658-30.757h-8.501
			L89.321,72.935H65.618V42.178h-8.83v37.889h37.285c5.454-10.224,11.053-20.369,16.61-30.535
			c5.42,10.208,10.824,20.414,16.403,30.535h35.022c3.709,0,6.221-0.635,7.518-1.896c1.311-1.271,1.962-3.619,1.962-7.059v-5.199
			c0-3.45-0.651-5.8-1.962-7.071C168.33,57.581,165.818,56.945,162.109,56.945z M76.958,33.912l27.468,1.457
			c0.321,4.035,3.001,4.844,6.258,4.844c3.252,0,5.933-0.809,6.254-4.844l27.47-1.457c0.293-0.013,0.533-0.235,0.533-0.529
			c0-0.292-0.24-0.543-0.533-0.532l-27.47,0.888c-2.155-3.733-2.568-6.658-5.46-7.122l-0.263-5.975
			c-0.013-0.273-0.217-0.506-0.484-0.528h-0.094c-0.272,0.022-0.478,0.255-0.49,0.528l-0.261,5.975
			c-2.886,0.464-3.294,3.381-5.46,7.122l-27.468-0.888c-0.291-0.011-0.532,0.239-0.532,0.532
			C76.426,33.677,76.667,33.899,76.958,33.912z M14.895,96.102c0,2.911-0.971,4.13-2.529,4.13c-1.378,0-2.463-1.06-2.463-4.13
			v-10.38H8.934v10.583c0,3.746,1.649,4.805,3.387,4.805c1.83,0,3.547-1.148,3.547-5.12V85.722h-0.972V96.102z M18.604,100.932
			h0.971V85.318h-0.971V100.932z M23.756,87.73l-0.969,0.564v1.808h-1.356v0.832h1.356v7.02c0,1.376,0.134,2.029,0.473,2.481
			c0.338,0.449,0.857,0.632,1.445,0.632c0.453,0,0.724-0.046,0.971-0.157l-0.112-0.746c-0.159,0.045-0.384,0.066-0.655,0.066
			c-0.653,0-1.152-0.405-1.152-1.918v-7.379h2.057v-0.831h-2.057V87.73z M28.346,91.862h-0.044l-0.045-1.76H27.33
			c0.022,0.674,0.09,1.689,0.09,2.503v8.324h0.972v-6.315c0-0.319,0-0.608,0.021-0.927c0.091-1.33,0.905-2.707,2.304-2.707h0.181
			V89.92h-0.203C29.565,89.92,28.617,90.912,28.346,91.862z M36.955,93.373c0-2.597-1.173-3.453-2.644-3.453
			c-0.813,0-1.647,0.318-2.009,0.634l0.27,0.743c0.431-0.316,0.993-0.521,1.537-0.521c1.582,0,1.874,1.242,1.874,3.091v0.408
			c-2.461,0.02-4.428,1.239-4.428,3.857c0,1.85,1.063,2.978,2.396,2.978c0.927,0,1.626-0.54,2.032-1.376h0.069l0.088,1.195h0.907
			c-0.092-0.675-0.092-1.646-0.092-2.436V93.373z M35.981,97.5c0,0.205,0,0.453-0.044,0.699c-0.205,1.311-0.926,2.056-1.853,2.056
			c-0.722,0-1.514-0.563-1.514-2.189c0-2.887,2.574-2.957,3.41-2.957V97.5z M39.622,100.932h0.972V85.318h-0.972V100.932z
			 M43.488,100.93h0.971V90.102h-0.971V100.93z M43.963,86.491c-0.43,0-0.722,0.338-0.722,0.835c0,0.52,0.292,0.834,0.7,0.834
			c0.518,0,0.768-0.314,0.768-0.834C44.709,86.828,44.459,86.49,43.963,86.491z M51.941,91.386h-0.044
			c-0.273-0.519-0.701-1.466-2.035-1.466c-1.354,0-3.276,1.354-3.276,5.595c0,3.565,1.471,5.416,3.072,5.416
			c0.971,0,1.785-0.518,2.146-1.466h0.046v1.377c0,2.954-1.017,3.743-2.326,3.743c-0.882,0-1.629-0.292-1.99-0.495l-0.315,0.814
			c0.453,0.291,1.311,0.537,2.192,0.537c0.971,0,1.918-0.404,2.484-1.127c0.608-0.742,0.927-1.714,0.927-4.895h0.001v-5.98
			c0-1.896,0.066-2.754,0.089-3.34h-0.925L51.941,91.386z M51.85,96.984c0,0.315,0,0.653-0.092,1.06
			c-0.429,1.761-1.287,2.029-1.918,2.029c-1.176,0-2.237-1.397-2.237-4.647c0-2.799,0.836-4.648,2.214-4.648
			c1.287,0,1.739,1.22,1.965,2.122c0.068,0.249,0.068,0.519,0.068,0.789V96.984z M58.81,89.921c-0.653,0-1.038,0.133-1.421,0.383
			c-0.34,0.228-0.678,0.588-0.904,0.972h-0.047v-5.957h-0.969v15.61h0.969v-7.197c0-0.269,0-0.538,0.047-0.813
			c0.293-1.396,1.038-2.165,2.033-2.165c1.356,0,1.718,1.423,1.718,2.936v7.24h0.972v-7.58
			C61.207,90.619,59.805,89.921,58.81,89.921z M64.959,87.73l-0.971,0.564v1.808h-1.354v0.832h1.354v7.02
			c0,1.376,0.135,2.029,0.475,2.481c0.337,0.449,0.856,0.632,1.443,0.632c0.453,0,0.726-0.046,0.973-0.157l-0.111-0.746
			c-0.159,0.045-0.384,0.066-0.655,0.066c-0.655,0-1.153-0.405-1.153-1.918v-7.379h2.056v-0.831h-2.056V87.73z M75.084,85.722
			l-3.59,15.208h0.947l1.22-5.233h3.774l1.219,5.233h0.994L76.01,85.722H75.084z M77.207,94.861h-3.342l0.949-4.265
			c0.248-1.128,0.473-2.254,0.654-3.495h0.091c0.204,1.218,0.407,2.299,0.677,3.475L77.207,94.861z M84.849,89.921
			c-1.152,0-1.987,0.633-2.395,1.513h-0.046l-0.043-1.331h-0.882c0.021,0.766,0.09,1.173,0.09,2.503v8.325h0.973v-6.97
			c0-0.34,0-0.656,0.044-0.951c0.227-1.485,1.083-2.255,1.965-2.255c1.515,0,1.785,1.535,1.785,3.067v7.107h0.971v-7.491
			C87.311,90.687,86.002,89.921,84.849,89.921z M93.233,100.207c-1.715,0-2.779-1.713-2.779-4.6c0-2.28,0.746-4.805,2.688-4.805
			c0.634,0,1.108,0.223,1.332,0.356l0.318-0.855c-0.34-0.225-0.972-0.384-1.49-0.384c-2.531,0-3.862,2.663-3.862,5.618
			c0,3.611,1.49,5.527,3.614,5.527c0.722,0,1.333-0.18,1.761-0.45l-0.228-0.745C94.156,100.099,93.732,100.207,93.233,100.207z
			 M99.854,89.921c-0.656,0-1.038,0.133-1.422,0.383c-0.335,0.228-0.68,0.588-0.904,0.972h-0.044v-5.957h-0.971v15.61h0.971v-7.197
			c0-0.269,0-0.538,0.044-0.813c0.294-1.396,1.038-2.165,2.034-2.165c1.354,0,1.715,1.423,1.715,2.936v7.24h0.97v-7.58
			C102.247,90.619,100.851,89.921,99.854,89.921z M107.676,89.92c-1.693,0-3.297,1.604-3.297,5.596c0,3.992,1.604,5.594,3.138,5.594
			c1.674,0,3.277-1.602,3.277-5.594C110.794,91.524,109.212,89.92,107.676,89.92z M107.607,100.255
			c-1.876,0-2.215-2.979-2.215-4.739c0-1.759,0.339-4.739,2.173-4.739c1.871,0,2.208,2.98,2.208,4.739
			C109.773,97.275,109.437,100.255,107.607,100.255z M113.827,91.862h-0.046l-0.049-1.76h-0.926
			c0.025,0.674,0.091,1.689,0.091,2.503v8.324h0.972v-6.315c0-0.319,0-0.608,0.021-0.927c0.094-1.33,0.906-2.707,2.309-2.707h0.181
			V89.92h-0.208C115.043,89.92,114.094,90.912,113.827,91.862z M124.312,92.605c-1.333-1.038-2.329-1.714-2.329-3.588
			c0-1.196,0.771-2.549,2.397-2.549c0.744,0,1.377,0.247,1.737,0.519l0.385-0.834c-0.316-0.248-1.063-0.564-1.965-0.564
			c-1.94,0-3.547,1.487-3.547,3.7c0,2.324,2.211,3.632,2.868,4.194c1.128,0.951,2.033,1.988,2.033,3.589
			c0,1.873-1.106,3.115-2.824,3.115c-0.7,0-1.535-0.317-1.988-0.632l-0.338,0.813c0.381,0.335,1.425,0.697,2.351,0.697
			c2.08,0,3.795-1.534,3.795-4.06C126.887,95.267,126.028,93.96,124.312,92.605z M131.701,96.689
			c-0.202,0.901-0.45,1.85-0.585,2.505h-0.049c-0.18-0.746-0.291-1.536-0.541-2.505l-1.67-6.587h-0.999l2.576,9.97
			c0.048,0.136,0.048,0.271,0.048,0.409c0,0.155-0.021,0.27-0.114,0.584c-0.156,0.563-0.54,1.466-1.014,2.168
			c-0.523,0.743-1.086,1.307-1.604,1.646l0.497,0.812c0.337-0.202,0.972-0.697,1.625-1.601c1.332-1.805,2.103-4.761,2.87-7.92
			l1.489-6.067h-0.992L131.701,96.689z M137.761,94.637c-1.108-0.814-1.401-1.31-1.401-2.189c0-0.834,0.564-1.671,1.604-1.671
			c0.564,0,0.992,0.205,1.401,0.521l0.431-0.789c-0.365-0.271-0.95-0.588-1.762-0.588c-1.381,0-2.646,1.084-2.646,2.73
			c0,1.4,0.993,2.211,2.192,3.07c1.174,0.833,1.468,1.555,1.468,2.524c0,1.196-0.747,1.963-1.875,1.963
			c-0.679,0-1.264-0.316-1.628-0.563l-0.358,0.789c0.452,0.385,1.22,0.632,1.941,0.632c1.489,0,2.914-0.947,2.914-3.091
			C140.041,96.283,138.803,95.382,137.761,94.637z M143.318,87.73l-0.972,0.564v1.808h-1.353v0.832h1.353v7.02
			c0,1.376,0.137,2.029,0.474,2.481c0.34,0.449,0.86,0.632,1.446,0.632c0.452,0,0.726-0.046,0.973-0.157l-0.111-0.746
			c-0.159,0.045-0.388,0.066-0.654,0.066c-0.657,0-1.155-0.405-1.155-1.918v-7.379h2.057v-0.831h-2.057V87.73z M149.466,89.921
			c-1.986,0-3.229,2.212-3.229,5.641c0,3.272,1.178,5.504,3.545,5.504c0.726,0,1.515-0.181,2.037-0.54l-0.227-0.744
			c-0.364,0.247-0.927,0.427-1.628,0.427c-1.221,0-2.734-0.742-2.734-5.1h4.97v-0.63C152.199,92.562,151.613,89.921,149.466,89.921z
			 M147.254,94.321c0.111-1.741,0.791-3.545,2.052-3.545c0.792,0,1.898,0.881,1.856,3.545H147.254z M162.211,89.92
			c-0.566,0-1.062,0.133-1.488,0.428c-0.387,0.271-0.748,0.724-1.041,1.333h-0.045c-0.43-1.333-1.331-1.761-2.215-1.761
			c-1.172,0-1.941,0.634-2.346,1.557h-0.048l-0.045-1.374h-0.883c0.025,0.766,0.092,1.173,0.092,2.503v8.325h0.972v-6.925
			c0-0.341,0-0.656,0.044-0.996c0.206-1.465,1.063-2.255,1.941-2.255c1.518,0,1.812,1.422,1.812,2.866v7.309h0.971v-7.038
			c0-0.384,0-0.743,0.065-1.107c0.272-1.26,1.041-2.029,1.898-2.029c1.583,0,1.83,1.603,1.83,3.137v7.038h0.969v-7.378
			C164.694,90.687,163.387,89.92,162.211,89.92z M169.155,94.637c-1.108-0.814-1.402-1.31-1.402-2.189
			c0-0.834,0.564-1.671,1.605-1.671c0.565,0,0.996,0.205,1.399,0.521l0.431-0.789c-0.358-0.271-0.949-0.588-1.762-0.588
			c-1.38,0-2.645,1.084-2.645,2.73c0,1.4,0.996,2.211,2.191,3.07c1.173,0.833,1.468,1.555,1.468,2.524
			c0,1.196-0.744,1.963-1.873,1.963c-0.683,0-1.265-0.316-1.63-0.563l-0.359,0.789c0.453,0.385,1.22,0.632,1.942,0.632
			c1.493,0,2.913-0.947,2.913-3.091C171.435,96.283,170.195,95.382,169.155,94.637z"/>
	</g>
</g>
</svg>
